<svg width="747" height="825" viewBox="0 0 747 825" fill="none" xmlns="http://www.w3.org/2000/svg">
<path d="M707.303 339.641L372.735 532.406L16.8405 327.018L0 336.196V485.362L372.735 701.081L707.303 508.312V587.482L372.735 780.251L16.8405 574.86L0 584.043V609.285L372.735 825L746.599 609.285V460.117L729.758 450.937L372.735 656.328L39.2936 463.56V385.537L372.735 577.158L746.599 361.44V214.569L727.512 204.242L372.735 408.483L57.2557 226.043L372.735 44.7495L633.203 193.916L656.783 181.293V162.935L372.735 0L0 214.569V237.517L372.735 453.232L707.303 260.466V339.641Z" fill="#FF3621"/>
</svg>
