<?xml version="1.0" encoding="UTF-8"?>
<svg xmlns="http://www.w3.org/2000/svg" xmlns:xlink="http://www.w3.org/1999/xlink" width="900px" height="px" viewBox="0 0 900 900" version="1.1">
<g id="surface1">
<path style=" stroke:none;fill-rule:evenodd;fill:rgb(100%,100%,100%);fill-opacity:1;" d="M 427.441406 728.683594 C 464.390625 728.683594 500.8125 723.660156 535.976562 714.363281 L 560.164062 766.117188 L 560.1875 766.164062 C 581.359375 811.289062 625.589844 837.769531 671.761719 837.769531 C 682.757812 837.769531 693.960938 836.203125 704.789062 833.109375 L 705.210938 832.988281 L 707.039062 832.414062 C 781.265625 809.832031 813.8125 723.851562 781.789062 655.363281 L 751.210938 589.976562 C 819.796875 522.496094 870.40625 434.695312 889.699219 336.730469 C 892.882812 320.554688 892.902344 303.90625 889.757812 287.722656 C 886.613281 271.542969 880.359375 256.152344 871.363281 242.425781 C 862.367188 228.703125 850.796875 216.917969 837.320312 207.742188 C 823.84375 198.5625 808.71875 192.179688 792.8125 188.945312 L 792.734375 188.929688 C 725.980469 175.527344 660.894531 219.351562 647.5 287.460938 C 644.273438 303.867188 639.054688 319.898438 632.097656 335.285156 L 544.433594 147.75 L 544.421875 147.722656 C 523.953125 104.03125 480.621094 76.105469 432.984375 76.097656 C 409.566406 76.070312 386.632812 82.839844 366.867188 95.605469 C 347.128906 108.355469 331.371094 126.5625 321.445312 148.085938 L 232.804688 337.710938 C 199.800781 294.273438 141.300781 276.582031 88.851562 298.171875 C 25.746094 324.148438 -4.703125 397.148438 20.488281 461.285156 L 21.164062 463.0625 L 21.335938 463.488281 C 41.234375 512.378906 73.085938 557.082031 112.191406 595.097656 L 83.878906 655.628906 C 55.984375 715.378906 76.179688 790.398438 136.199219 822.859375 C 150.917969 830.835938 167.078125 835.699219 183.699219 837.15625 C 200.324219 838.609375 217.070312 836.617188 232.921875 831.304688 C 248.769531 825.992188 263.398438 817.464844 275.914062 806.238281 C 288.433594 795.015625 298.582031 781.328125 305.75 766 L 329.058594 716.171875 C 361.34375 724.253906 394.40625 728.683594 427.441406 728.683594 Z M 555.242188 670.355469 L 509.78125 573.070312 L 592.679688 750.398438 L 479.398438 508.0625 L 509.78125 573.070312 L 499.015625 550.050781 Z M 479.273438 507.820312 C 479.269531 507.820312 479.277344 507.820312 479.273438 507.820312 Z M 239.933594 421.109375 C 240.605469 421.949219 241.28125 422.785156 241.96875 423.617188 C 241.648438 423.234375 241.332031 422.84375 241.015625 422.453125 C 240.652344 422.007812 240.292969 421.558594 239.933594 421.109375 Z M 243.777344 425.777344 C 243.863281 425.882812 243.953125 425.988281 244.039062 426.089844 Z M 244.109375 426.027344 L 244.117188 426.035156 L 244.140625 426.0625 C 244.128906 426.046875 244.121094 426.039062 244.109375 426.027344 Z M 244.109375 426.027344 "/>
<path style=" stroke:none;fill-rule:evenodd;fill:rgb(10.196079%,0%,49.803922%);fill-opacity:1;" d="M 309.601562 672.550781 L 385.800781 509.527344 C 327.601562 496.957031 269.039062 460.351562 235.917969 415.8125 L 156.238281 586.15625 C 200.519531 624.351562 253.679688 654.367188 309.601562 672.550781 Z M 309.601562 672.550781 "/>
<path style=" stroke:none;fill-rule:evenodd;fill:rgb(30.588236%,0%,3.921569%);fill-opacity:1;" d="M 627.601562 410.929688 C 589.320312 458.640625 536.160156 494.027344 479.28125 507.816406 L 555.242188 670.355469 C 610.679688 651.316406 662.519531 620.566406 707.277344 581.152344 Z M 627.601562 410.929688 "/>
<path style=" stroke:none;fill-rule:evenodd;fill:rgb(10.196079%,0%,49.803922%);fill-opacity:1;" d="M 156.238281 586.15625 L 116.398438 671.328125 C 96.121094 714.648438 111.359375 767.972656 153.121094 790.546875 C 197.398438 814.464844 251.878906 795.792969 273.238281 750.28125 L 309.601562 672.550781 C 253.453125 654.140625 201.363281 624.800781 156.238281 586.15625 Z M 156.238281 586.15625 "/>
<path style=" stroke:none;fill-rule:evenodd;fill:rgb(100%,57.647061%,58.823532%);fill-opacity:1;" d="M 785.757812 224.964844 C 774.492188 222.671875 762.890625 222.660156 751.617188 224.925781 C 740.34375 227.191406 729.621094 231.695312 720.058594 238.175781 C 710.496094 244.65625 702.285156 252.992188 695.894531 262.699219 C 689.5 272.410156 685.050781 283.304688 682.800781 294.765625 C 674.398438 337.472656 654.71875 377.25 627.597656 411.050781 L 707.15625 581.398438 C 780.597656 516.601562 834.839844 428.378906 854.28125 329.664062 C 863.757812 281.34375 833.039062 234.484375 785.757812 224.964844 Z M 785.757812 224.964844 "/>
<path style=" stroke:none;fill-rule:evenodd;fill:rgb(0%,17.647059%,78.431374%);fill-opacity:1;" d="M 479.277344 507.816406 C 462.238281 511.96875 444.839844 514.160156 427.4375 514.160156 C 413.878906 514.160156 399.839844 512.574219 385.800781 509.527344 C 327.601562 496.957031 269.039062 460.351562 235.917969 415.8125 C 227.640625 404.707031 220.917969 393.113281 216.238281 381.28125 C 198.121094 335.765625 147.121094 313.800781 102.359375 332.101562 C 57.597656 350.53125 36 402.390625 54 447.90625 C 74.519531 499.644531 110.757812 547.109375 156.238281 586.15625 C 201.320312 624.796875 253.367188 654.140625 309.480469 672.550781 C 348 685.121094 387.960938 692.074219 427.320312 692.074219 C 471 692.074219 514.078125 684.386719 555.121094 670.355469 Z M 479.277344 507.816406 "/>
<path style=" stroke:none;fill-rule:evenodd;fill:rgb(100%,32.549021%,41.568628%);fill-opacity:1;" d="M 749.160156 670.964844 L 707.160156 581.152344 L 627.597656 410.929688 L 627.480469 411.050781 C 627.480469 411.050781 627.480469 410.929688 627.597656 410.929688 L 511.921875 163.464844 C 504.820312 148.285156 493.632812 135.457031 479.65625 126.472656 C 465.683594 117.492188 449.492188 112.714844 432.960938 112.703125 C 399.238281 112.703125 368.519531 132.472656 354 163.464844 L 236.039062 415.8125 C 269.160156 460.351562 327.722656 496.957031 385.921875 509.527344 L 424.078125 428.015625 C 427.679688 420.324219 438.480469 420.324219 442.078125 428.015625 L 479.398438 507.816406 L 555.359375 670.355469 L 592.679688 750.15625 C 599.773438 765.367188 610.976562 778.214844 624.976562 787.203125 C 638.976562 796.191406 655.203125 800.945312 671.761719 800.917969 C 679.558594 800.917969 687.359375 799.820312 695.039062 797.625 C 747.71875 782.859375 772.679688 721.238281 749.160156 670.964844 Z M 749.160156 670.964844 "/>
</g>
</svg>
