<svg width="512" height="512" viewBox="0 0 512 512" fill="none" xmlns="http://www.w3.org/2000/svg">
<path d="M474.325 165.497L458.474 122.716L469.382 98.1731C470.746 94.9348 470.064 91.3555 467.678 88.7989L437.851 58.6312C424.727 45.5073 405.297 40.9055 387.742 47.0413L379.39 49.9388L333.712 0.511318L256.503 0H255.992L178.272 0.681758L132.764 50.4501L124.583 47.5526C106.858 41.2463 87.257 45.8482 74.1332 59.3129L43.7949 89.992C41.7497 92.0373 41.2383 94.9348 42.261 97.4913L53.6804 123.057L38 165.838L48.2264 204.527L94.5859 380.591C99.8695 400.874 112.141 418.599 129.356 430.871C129.356 430.871 185.601 470.583 240.993 506.546C245.936 509.784 251.049 512 256.503 512C261.957 512 267.071 509.784 272.013 506.546C334.394 465.641 383.651 430.7 383.651 430.7C400.695 418.429 412.967 400.703 418.25 380.421L464.269 204.357L474.325 165.497Z" fill="#F15A22"/>
<path opacity="0.15" d="M96.8016 388.09L38 169.587L55.2144 126.807L43.2836 95.1051L71.747 66.1304C81.1212 57.7789 99.5286 54.8814 108.051 59.8241L152.535 85.39L210.485 98.8548L255.651 80.1064L259.401 468.197C258.719 524.101 262.298 518.136 221.222 491.718L119.811 423.712C108.903 413.315 100.551 401.555 96.8016 388.09Z" fill="url(#paint0_linear_102_1457)" style="mix-blend-mode:lighten"/>
<path opacity="0.4" d="M382.628 429.926L296.386 488.898C272.354 502.022 260.764 514.975 258.889 508.669C257.356 503.726 258.549 489.239 258.037 466.741L257.015 87.1726C257.185 83.4229 259.742 77.1166 264.173 77.7984L308.146 91.0927L371.55 81.2072L413.478 50.3576C417.909 46.9489 424.386 47.2897 428.477 51.2098L465.973 87.0021C469.382 90.5813 469.553 97.5694 467.507 102.001L457.111 121.26L474.325 165.745L415.012 386.294C405.808 413.734 392.855 420.893 382.628 429.926Z" fill="url(#paint1_linear_102_1457)" style="mix-blend-mode:darken"/>
<path d="M266.388 314.974C264.342 314.122 262.127 313.44 261.445 313.44H258.718H255.991C255.309 313.44 253.093 314.122 251.048 314.974L228.891 324.178C226.846 325.03 223.437 326.564 221.392 327.587L187.986 344.972C185.94 345.994 185.77 347.869 187.645 349.233L217.131 370.026C219.006 371.39 221.903 373.606 223.607 375.139L236.731 386.389C238.436 387.922 241.163 390.309 242.867 391.843L255.48 403.092C257.184 404.626 259.911 404.626 261.615 403.092L274.569 391.843C276.273 390.309 279 387.922 280.705 386.389L293.828 374.969C295.533 373.435 298.43 371.219 300.305 369.856L329.791 348.892C331.666 347.528 331.496 345.653 329.45 344.631L296.044 327.587C293.999 326.564 290.59 325.03 288.545 324.178L266.388 314.974Z" fill="white"/>
<path d="M426.284 173.093C426.966 170.878 426.966 170.025 426.966 170.025C426.966 167.81 426.796 164.06 426.455 161.844L424.75 156.902C423.728 154.856 422.023 151.618 420.66 149.743L401.4 121.28C400.207 119.405 397.991 116.507 396.458 114.633L371.573 83.4422C370.21 81.7378 368.846 80.2038 368.676 80.3742H368.335C368.335 80.3742 366.46 80.7151 364.244 81.056L326.236 88.5553C324.021 89.0667 320.442 89.7484 318.226 90.0893L317.544 90.2597C315.328 90.6006 311.749 90.4302 309.533 89.7484L277.661 79.522C275.446 78.8403 271.866 77.8176 269.821 77.3063C269.821 77.3063 263.344 75.7724 258.061 75.9428C252.777 75.9428 246.3 77.3063 246.3 77.3063C244.085 77.8176 240.505 78.8403 238.46 79.522L206.588 89.7484C204.372 90.4302 200.793 90.6006 198.577 90.2597L197.896 90.0893C195.68 89.7484 192.101 88.8962 189.885 88.5553L151.536 81.3969C149.32 80.8856 147.446 80.7151 147.446 80.7151H147.105C146.934 80.7151 145.571 82.0786 144.207 83.783L119.323 114.973C117.96 116.678 115.744 119.746 114.38 121.621L95.1206 150.084C93.9276 151.959 92.0527 155.197 91.0301 157.242L89.3257 162.185C88.9848 164.401 88.6439 168.151 88.8144 170.366C88.8144 170.366 88.8144 171.048 89.4961 173.434C90.6892 177.525 93.5867 181.274 93.5867 181.274C94.9502 182.979 97.5068 185.876 99.0407 187.41L155.456 247.405C156.99 249.109 157.501 252.177 156.649 254.222L144.889 282.004C144.037 284.049 143.866 287.458 144.719 289.674L147.957 298.366C150.684 305.695 155.286 312.172 161.422 317.115L172.841 326.318C174.545 327.682 177.613 328.193 179.659 327.171L215.792 309.956C217.837 308.934 220.905 306.888 222.609 305.354L248.516 282.004C252.266 278.595 252.436 272.8 249.027 269.051L194.657 232.406C192.782 231.213 192.101 228.486 193.123 226.441L216.985 181.445C218.007 179.4 218.178 176.161 217.326 174.116L214.428 167.469C213.576 165.424 211.019 163.037 208.974 162.185L138.924 135.937C136.878 135.085 136.878 134.233 139.094 134.063L184.26 129.802C186.476 129.631 190.055 129.972 192.271 130.483L232.495 141.732C234.711 142.414 236.074 144.63 235.733 146.846L221.757 223.373C221.416 225.589 221.416 228.657 221.928 230.361C222.439 232.065 224.655 233.599 226.87 234.111L254.822 240.076C257.038 240.587 260.617 240.587 262.833 240.076L288.91 234.111C291.126 233.599 293.342 231.895 293.853 230.361C294.364 228.827 294.535 225.589 294.023 223.373L280.218 146.846C279.877 144.63 281.24 142.244 283.456 141.732L323.68 130.483C325.896 129.802 329.475 129.631 331.691 129.802L376.857 134.063C379.073 134.233 379.243 135.085 377.027 135.937L306.977 162.526C304.932 163.378 302.375 165.594 301.523 167.81L298.625 174.457C297.773 176.502 297.773 179.911 298.966 181.786L322.998 226.782C324.021 228.827 323.339 231.384 321.464 232.747L267.094 269.562C263.515 273.141 263.856 279.107 267.605 282.515L293.512 305.866C295.217 307.4 298.284 309.445 300.33 310.297L336.633 327.511C338.679 328.534 341.746 328.023 343.451 326.659L354.87 317.285C361.006 312.342 365.608 305.866 368.165 298.537L371.403 289.844C372.255 287.799 372.085 284.22 371.232 282.175L359.472 254.393C358.62 252.348 359.131 249.28 360.665 247.575L417.081 187.581C418.615 185.876 421.001 183.149 422.535 181.445C422.194 180.934 425.262 177.184 426.284 173.093Z" fill="white"/>
<defs>
<linearGradient id="paint0_linear_102_1457" x1="38" y1="284.377" x2="259.616" y2="284.377" gradientUnits="userSpaceOnUse">
<stop stop-color="white"/>
<stop offset="0.1413" stop-color="white" stop-opacity="0.9576"/>
<stop offset="1" stop-color="white" stop-opacity="0.7"/>
</linearGradient>
<linearGradient id="paint1_linear_102_1457" x1="256.93" y1="279.084" x2="474.325" y2="279.084" gradientUnits="userSpaceOnUse">
<stop stop-color="#F1F1F2"/>
<stop offset="0.0919144" stop-color="#E4E5E6"/>
<stop offset="0.2357" stop-color="#D9DADB"/>
<stop offset="0.438" stop-color="#D2D4D5"/>
<stop offset="1" stop-color="#D0D2D3"/>
</linearGradient>
</defs>
</svg>
