<?xml version="1.0" encoding="UTF-8"?>
<svg xmlns="http://www.w3.org/2000/svg" xmlns:xlink="http://www.w3.org/1999/xlink" width="900px" height="px" viewBox="0 0 900 900" version="1.1">
<defs>
<linearGradient id="linear0" gradientUnits="userSpaceOnUse" x1="17.492201" y1="29.075701" x2="5.43582" y2="8.19349" gradientTransform="matrix(28.125,0,0,28.125,0,0)">
<stop offset="0" style="stop-color:rgb(11.764706%,55.686275%,24.313725%);stop-opacity:1;"/>
<stop offset="1" style="stop-color:rgb(20.392157%,65.882353%,32.54902%);stop-opacity:1;"/>
</linearGradient>
<linearGradient id="linear1" gradientUnits="userSpaceOnUse" x1="13.9541" y1="29.981701" x2="26.0105" y2="9.09953" gradientTransform="matrix(28.125,0,0,28.125,0,0)">
<stop offset="0" style="stop-color:rgb(98.823529%,78.823529%,20.392157%);stop-opacity:1;"/>
<stop offset="1" style="stop-color:rgb(98.431373%,73.72549%,1.568627%);stop-opacity:1;"/>
</linearGradient>
<linearGradient id="linear2" gradientUnits="userSpaceOnUse" x1="3.92821" y1="10.8031" x2="28.040899" y2="10.8031" gradientTransform="matrix(28.125,0,0,28.125,0,0)">
<stop offset="0" style="stop-color:rgb(85.098039%,18.823529%,14.509804%);stop-opacity:1;"/>
<stop offset="1" style="stop-color:rgb(91.764706%,26.27451%,20.784314%);stop-opacity:1;"/>
</linearGradient>
</defs>
<g id="surface1">
<path style=" stroke:none;fill-rule:nonzero;fill:rgb(100%,100%,100%);fill-opacity:1;" d="M 449.582031 646.429688 C 557.714844 646.429688 645.382812 558.773438 645.382812 450.628906 C 645.382812 342.488281 557.726562 254.832031 449.582031 254.832031 C 341.441406 254.832031 253.785156 342.488281 253.785156 450.628906 C 253.785156 558.773438 341.441406 646.429688 449.582031 646.429688 Z M 449.582031 646.429688 "/>
<path style=" stroke:none;fill-rule:nonzero;fill:url(#linear0);" d="M 280.011719 548.5625 L 110.484375 254.925781 C 76.105469 314.449219 58.003906 381.972656 58.003906 450.707031 C 58.003906 519.445312 76.089844 586.964844 110.46875 646.488281 C 144.84375 706.011719 194.277344 755.433594 253.816406 789.792969 C 313.359375 824.15625 380.878906 842.226562 449.613281 842.210938 L 619.144531 548.5625 L 619.144531 548.511719 C 601.980469 578.292969 577.261719 603.023438 547.5 620.21875 C 517.734375 637.417969 483.976562 646.476562 449.601562 646.476562 C 415.222656 646.476562 381.460938 637.429688 351.6875 620.25 C 321.90625 603.070312 297.191406 578.335938 280.011719 548.5625 Z M 280.011719 548.5625 "/>
<path style=" stroke:none;fill-rule:nonzero;fill:url(#linear1);" d="M 619.125 548.558594 L 449.601562 842.195312 C 518.339844 842.210938 585.859375 824.125 645.382812 789.746094 C 704.90625 755.386719 754.339844 705.953125 788.699219 646.429688 C 823.0625 586.902344 841.152344 519.367188 841.132812 450.628906 C 841.121094 381.890625 823.015625 314.371094 788.625 254.863281 L 449.570312 254.863281 L 449.523438 254.894531 C 483.898438 254.878906 517.675781 263.90625 547.4375 281.085938 C 577.214844 298.265625 601.929688 322.984375 619.125 352.746094 C 636.324219 382.507812 645.367188 416.285156 645.367188 450.660156 C 645.382812 485.019531 636.324219 518.78125 619.125 548.558594 Z M 619.125 548.558594 "/>
<path style=" stroke:none;fill-rule:nonzero;fill:rgb(10.196079%,45.09804%,90.980393%);fill-opacity:1;" d="M 449.582031 605.667969 C 535.195312 605.667969 604.59375 536.269531 604.59375 450.660156 C 604.59375 365.050781 535.195312 295.652344 449.582031 295.652344 C 363.972656 295.652344 294.574219 365.050781 294.574219 450.660156 C 294.574219 536.269531 363.972656 605.667969 449.582031 605.667969 Z M 449.582031 605.667969 "/>
<path style=" stroke:none;fill-rule:nonzero;fill:url(#linear2);" d="M 449.582031 254.878906 L 788.65625 254.878906 C 754.296875 195.339844 704.859375 145.90625 645.335938 111.542969 C 585.8125 77.167969 518.289062 59.082031 449.554688 59.082031 C 380.816406 59.082031 313.296875 77.183594 253.769531 111.558594 C 194.246094 145.9375 144.828125 195.386719 110.484375 254.910156 L 280.011719 548.5625 L 280.058594 548.59375 C 262.859375 518.832031 253.785156 485.070312 253.785156 450.691406 C 253.785156 416.316406 262.816406 382.539062 279.996094 352.777344 C 297.175781 323 321.894531 298.28125 351.667969 281.101562 C 381.429688 263.90625 415.210938 254.863281 449.582031 254.878906 Z M 449.582031 254.878906 "/>
</g>
</svg>
