<svg width="212" height="215" viewBox="0 0 212 215" fill="none" xmlns="http://www.w3.org/2000/svg">
<path d="M63.3146 171.339L62.9946 171.029C26.3846 133.999 26.6546 74.2389 63.6246 37.5489C81.3546 19.9289 105.375 10.0889 130.385 10.2089C155.385 10.3289 179.315 20.3789 196.885 38.1589L197.195 38.4789C198.025 39.3189 198.025 40.6689 197.195 41.5089C196.795 41.8989 196.255 42.1389 195.685 42.1389C195.115 42.1389 194.565 41.9089 194.165 41.5089L193.545 40.8889C178.185 25.4989 157.355 16.8489 135.615 16.8489C113.875 16.8489 93.0346 25.4989 77.6846 40.8889C45.6846 72.9589 45.6846 124.879 77.6846 156.949C82.5346 161.809 87.6546 166.409 93.0546 170.729C93.4146 171.029 93.7946 171.309 94.2046 171.549C94.6046 171.799 95.0846 171.919 95.5546 171.909C96.0346 171.859 96.4946 171.689 96.8746 171.399C97.2546 171.109 97.6046 170.799 97.9246 170.449L120.965 147.399C121.485 146.879 121.845 146.459 122.065 146.159C122.415 145.719 122.605 145.179 122.615 144.609C122.565 144.049 122.325 143.529 121.945 143.119C121.575 142.709 121.175 142.319 120.735 141.969C115.665 137.689 110.775 133.199 106.075 128.499C82.8846 105.249 82.8846 67.6089 106.075 44.3489C117.215 33.1989 132.315 26.9289 148.085 26.9289C163.855 26.9289 178.955 33.1989 190.085 44.3489L190.695 44.9689C191.535 45.8089 191.535 47.1589 190.695 48.0089C190.305 48.3989 189.755 48.6389 189.185 48.6389C188.615 48.6389 188.065 48.4089 187.675 48.0089L187.055 47.3889C178.145 38.4589 166.045 33.4389 153.425 33.4389C140.805 33.4389 128.705 38.4689 119.795 47.3889C101.215 66.0089 101.215 96.1489 119.795 114.769C124.605 119.589 129.575 124.259 134.705 128.759C135.185 129.189 135.565 129.479 135.855 129.659C136.335 129.959 136.805 130.109 137.245 130.089C137.675 130.089 138.135 129.919 138.625 129.589C139.015 129.289 139.385 128.959 139.725 128.589L158.785 109.499C159.175 109.129 159.525 108.729 159.845 108.309C160.175 107.879 160.375 107.369 160.395 106.819C160.365 106.279 160.145 105.759 159.795 105.339C159.455 104.919 159.085 104.529 158.675 104.179C153.755 99.6589 148.935 95.0289 144.215 90.2989C133.345 79.3989 133.345 61.7489 144.215 50.8489C149.435 45.6189 156.515 42.6789 163.905 42.6789C171.295 42.6789 178.375 45.6189 183.595 50.8489C186.415 53.6489 189.135 56.5289 191.815 59.4789C196.045 64.1589 203.255 64.5089 207.925 60.2589C212.365 56.2189 212.925 49.4389 209.225 44.7089C169.165 -6.18111 95.4846 -14.9311 44.6546 25.1889C-6.17542 65.2889 -14.9054 139.099 25.1446 190.009C32.3346 199.159 40.8346 207.179 50.3846 213.809C51.3946 214.499 52.2046 214.829 52.8346 214.779C53.4646 214.729 54.2146 214.259 55.0846 213.389L78.5046 189.919C78.9246 189.529 79.3046 189.099 79.6546 188.639C80.0146 188.179 80.2146 187.619 80.2046 187.039C80.1346 186.469 79.8646 185.929 79.4446 185.529C79.0546 185.129 78.6246 184.759 78.1646 184.419C72.9446 180.369 67.9946 175.999 63.3246 171.329L63.3146 171.339Z" fill="#00A3A6"/>
</svg>
