<?xml version="1.0" encoding="UTF-8"?>
<svg xmlns="http://www.w3.org/2000/svg" xmlns:xlink="http://www.w3.org/1999/xlink" width="900px" height="px" viewBox="0 0 900 900" version="1.1">
<defs>
<linearGradient id="linear0" gradientUnits="userSpaceOnUse" x1="12.2832" y1="12.4367" x2="10.8637" y2="12.4367" gradientTransform="matrix(28.125,0,0,28.125,0,0)">
<stop offset="0" style="stop-color:rgb(22.352941%,29.019608%,62.352941%);stop-opacity:1;"/>
<stop offset="1" style="stop-color:rgb(38.039216%,46.27451%,72.54902%);stop-opacity:1;"/>
</linearGradient>
<linearGradient id="linear1" gradientUnits="userSpaceOnUse" x1="18.4464" y1="11.5268" x2="17.1532" y2="11.5268" gradientTransform="matrix(28.125,0,0,28.125,0,0)">
<stop offset="0" style="stop-color:rgb(22.352941%,29.019608%,62.352941%);stop-opacity:1;"/>
<stop offset="1" style="stop-color:rgb(38.039216%,46.27451%,72.54902%);stop-opacity:1;"/>
</linearGradient>
</defs>
<g id="surface1">
<path style=" stroke:none;fill-rule:nonzero;fill:rgb(87.058824%,34.509805%,20%);fill-opacity:1;" d="M 450.003906 114.332031 C 635.394531 114.332031 785.679688 264.617188 785.679688 450.003906 C 785.679688 635.390625 635.394531 785.675781 450.003906 785.675781 C 264.621094 785.675781 114.335938 635.390625 114.335938 450.003906 C 114.335938 264.617188 264.621094 114.332031 450.003906 114.332031 Z M 450.003906 114.332031 "/>
<path style=" stroke:none;fill-rule:nonzero;fill:rgb(87.058824%,34.509805%,20%);fill-opacity:1;" d="M 450 843.75 C 667.460938 843.75 843.75 667.460938 843.75 450 C 843.75 232.539062 667.460938 56.25 450 56.25 C 232.539062 56.25 56.25 232.539062 56.25 450 C 56.25 667.460938 232.539062 843.75 450 843.75 Z M 450 810.9375 C 250.660156 810.9375 89.0625 649.339844 89.0625 450 C 89.0625 250.660156 250.660156 89.0625 450 89.0625 C 649.339844 89.0625 810.9375 250.660156 810.9375 450 C 810.9375 649.339844 649.339844 810.9375 450 810.9375 Z M 450 810.9375 "/>
<path style=" stroke:none;fill-rule:nonzero;fill:rgb(83.529413%,84.313726%,84.705883%);fill-opacity:1;" d="M 286.484375 223.363281 C 286.417969 217.71875 290.515625 214.558594 295.964844 212.34375 C 293.472656 212.75 291.085938 213.375 288.933594 214.339844 C 283.253906 216.914062 279.007812 226.65625 279.050781 231.269531 C 306.617188 228.484375 347.386719 230.410156 377.199219 239.308594 C 379.402344 239 381.601562 238.691406 383.832031 238.4375 C 354.097656 225.234375 318.746094 220.136719 286.484375 223.363281 Z M 286.484375 223.363281 "/>
<path style=" stroke:none;fill-rule:nonzero;fill:rgb(83.529413%,84.313726%,84.705883%);fill-opacity:1;" d="M 292.132812 189.441406 C 292.757812 189.328125 293.386719 189.25 294.011719 189.148438 C 288.0625 189.886719 284.925781 192.011719 280.460938 192.742188 C 285.308594 193.171875 303.675781 201.746094 315.222656 206.460938 C 316.839844 205.847656 318.300781 205.164062 319.488281 204.355469 C 313.503906 203.472656 298.632812 190.035156 292.132812 189.441406 Z M 292.132812 189.441406 "/>
<path style=" stroke:none;fill-rule:nonzero;fill:rgb(83.529413%,84.313726%,84.705883%);fill-opacity:1;" d="M 320.800781 256.195312 C 319.148438 256.832031 317.578125 257.496094 316.21875 258.207031 C 271.277344 281.886719 251.425781 337.1875 263.257812 403.457031 C 274.054688 463.757812 318.316406 669.800781 338.582031 766.710938 C 344.496094 768.792969 350.484375 770.722656 356.550781 772.476562 C 338.5 685.222656 289.242188 456.585938 277.75 392.371094 C 266.097656 327.046875 277.433594 280.171875 320.800781 256.195312 Z M 320.800781 256.195312 "/>
<path style=" stroke:none;fill-rule:nonzero;fill:rgb(100%,100%,100%);fill-opacity:1;" d="M 502.652344 731.582031 C 501.910156 732.078125 501.027344 732.539062 500.085938 732.992188 C 499.386719 735.699219 498.320312 737.75 496.765625 738.78125 C 487.484375 744.9375 461.269531 748.039062 447.429688 744.9375 C 445.046875 744.410156 443.242188 743.539062 441.832031 742.335938 C 418.199219 755.457031 384.210938 772.925781 377.3125 768.992188 C 366.527344 762.804688 364.964844 681.082031 366.527344 661.03125 C 367.667969 645.890625 420.847656 670.414062 446.71875 683.273438 C 452.4375 677.933594 466.449219 674.359375 478.851562 673.144531 C 460.109375 627.535156 446.289062 575.371094 454.765625 538.378906 C 443.054688 530.21875 427.535156 511.292969 430.765625 491.539062 C 433.253906 476.507812 472.105469 448.0625 499.613281 446.347656 C 527.183594 444.605469 535.777344 445 558.742188 439.5 C 559.894531 439.222656 561.15625 438.921875 562.476562 438.605469 C 576.617188 388.898438 542.707031 302.429688 504.882812 264.589844 C 492.554688 252.257812 473.59375 244.496094 452.234375 240.398438 C 444.019531 229.125 430.765625 218.34375 412.007812 208.363281 C 377.167969 189.867188 334.117188 182.335938 294.011719 189.148438 C 293.386719 189.253906 292.757812 189.328125 292.132812 189.441406 C 298.632812 190.035156 313.503906 203.472656 319.484375 204.359375 C 318.296875 205.164062 316.839844 205.847656 315.21875 206.460938 C 309.601562 208.601562 301.96875 209.898438 295.964844 212.34375 C 290.515625 214.558594 286.417969 217.722656 286.484375 223.367188 C 318.746094 220.136719 354.097656 225.234375 383.832031 238.4375 C 381.601562 238.695312 379.402344 239.003906 377.199219 239.3125 C 356.113281 242.277344 336.730469 247.742188 322.730469 255.128906 C 322.070312 255.46875 321.445312 255.839844 320.800781 256.195312 C 277.433594 280.175781 266.097656 327.046875 277.75 392.375 C 289.242188 456.585938 338.820312 688.765625 356.871094 776.019531 C 386.539062 784.605469 414.28125 791.464844 446.71875 791.464844 C 474.253906 791.464844 507.371094 785.367188 532.984375 779.109375 C 523.988281 761.765625 512.417969 742.585938 505.285156 728.835938 C 504.335938 729.96875 503.582031 730.960938 502.652344 731.582031 Z M 520.800781 402.34375 C 509.046875 402.34375 499.457031 392.78125 499.457031 380.960938 C 499.457031 369.195312 509.046875 359.632812 520.800781 359.632812 C 532.617188 359.632812 542.167969 369.195312 542.167969 380.960938 C 542.167969 392.78125 532.617188 402.34375 520.800781 402.34375 Z M 533.65625 321.984375 C 533.65625 321.984375 520.195312 314.292969 509.746094 314.425781 C 488.28125 314.707031 482.433594 324.191406 482.433594 324.191406 C 482.433594 324.191406 486.035156 301.582031 513.488281 306.117188 C 528.375 308.59375 533.65625 321.984375 533.65625 321.984375 Z M 307.320312 349.78125 C 307.320312 349.78125 297.652344 328.238281 323.417969 317.679688 C 349.210938 307.121094 361.769531 323.691406 361.769531 323.691406 C 361.769531 323.691406 343.039062 315.21875 324.828125 326.664062 C 306.648438 338.097656 307.320312 349.78125 307.320312 349.78125 Z M 329.84375 395.703125 C 329.84375 381.964844 340.949219 370.847656 354.707031 370.847656 C 368.421875 370.847656 379.546875 381.964844 379.546875 395.703125 C 379.546875 409.445312 368.421875 420.546875 354.707031 420.546875 C 340.949219 420.554688 329.84375 409.445312 329.84375 395.703125 Z M 329.84375 395.703125 "/>
<path style=" stroke:none;fill-rule:nonzero;fill:rgb(17.647059%,30.980393%,55.686277%);fill-opacity:1;" d="M 379.546875 395.703125 C 379.546875 381.964844 368.425781 370.847656 354.707031 370.847656 C 340.949219 370.847656 329.84375 381.964844 329.84375 395.703125 C 329.84375 409.441406 340.949219 420.554688 354.707031 420.546875 C 368.425781 420.546875 379.546875 409.441406 379.546875 395.703125 Z M 365.710938 393.875 C 362.183594 393.886719 359.28125 390.984375 359.28125 387.417969 C 359.28125 383.84375 362.175781 380.96875 365.710938 380.96875 C 369.277344 380.96875 372.167969 383.84375 372.167969 387.417969 C 372.167969 390.984375 369.277344 393.875 365.710938 393.875 Z M 365.710938 393.875 "/>
<path style=" stroke:none;fill-rule:nonzero;fill:rgb(100%,100%,100%);fill-opacity:1;" d="M 365.710938 380.96875 C 362.175781 380.96875 359.28125 383.839844 359.28125 387.417969 C 359.28125 390.984375 362.183594 393.886719 365.710938 393.875 C 369.277344 393.875 372.167969 390.984375 372.167969 387.417969 C 372.167969 383.839844 369.277344 380.96875 365.710938 380.96875 Z M 365.710938 380.96875 "/>
<path style=" stroke:none;fill-rule:nonzero;fill:rgb(17.647059%,30.980393%,55.686277%);fill-opacity:1;" d="M 520.800781 359.632812 C 509.046875 359.632812 499.457031 369.195312 499.457031 380.960938 C 499.457031 392.78125 509.046875 402.34375 520.800781 402.34375 C 532.617188 402.34375 542.164062 392.78125 542.164062 380.960938 C 542.164062 369.195312 532.617188 359.632812 520.800781 359.632812 Z M 530.273438 379.390625 C 527.261719 379.390625 524.777344 376.941406 524.777344 373.863281 C 524.777344 370.824219 527.261719 368.332031 530.273438 368.332031 C 533.414062 368.332031 535.828125 370.824219 535.828125 373.863281 C 535.828125 376.941406 533.414062 379.390625 530.273438 379.390625 Z M 530.273438 379.390625 "/>
<path style=" stroke:none;fill-rule:nonzero;fill:rgb(100%,100%,100%);fill-opacity:1;" d="M 530.273438 368.332031 C 527.261719 368.332031 524.777344 370.824219 524.777344 373.859375 C 524.777344 376.9375 527.261719 379.390625 530.273438 379.390625 C 533.417969 379.390625 535.828125 376.9375 535.828125 373.859375 C 535.828125 370.824219 533.417969 368.332031 530.273438 368.332031 Z M 530.273438 368.332031 "/>
<path style=" stroke:none;fill-rule:nonzero;fill:url(#linear0);" d="M 361.769531 323.691406 C 361.769531 323.691406 349.207031 307.121094 323.417969 317.679688 C 297.652344 328.238281 307.320312 349.78125 307.320312 349.78125 C 307.320312 349.78125 306.648438 338.09375 324.828125 326.664062 C 343.039062 315.21875 361.769531 323.691406 361.769531 323.691406 Z M 361.769531 323.691406 "/>
<path style=" stroke:none;fill-rule:nonzero;fill:url(#linear1);" d="M 513.488281 306.117188 C 486.035156 301.578125 482.433594 324.191406 482.433594 324.191406 C 482.433594 324.191406 488.28125 314.703125 509.75 314.421875 C 520.195312 314.292969 533.65625 321.984375 533.65625 321.984375 C 533.65625 321.984375 528.375 308.589844 513.488281 306.117188 Z M 513.488281 306.117188 "/>
<path style=" stroke:none;fill-rule:nonzero;fill:rgb(99.215686%,82.352942%,3.529412%);fill-opacity:1;" d="M 499.613281 446.347656 C 472.105469 448.066406 433.253906 476.507812 430.765625 491.542969 C 427.535156 511.296875 443.054688 530.21875 454.761719 538.378906 C 454.792969 538.398438 454.828125 538.429688 454.859375 538.449219 C 466.566406 546.59375 544.515625 572.890625 583.1875 572.160156 C 621.90625 571.40625 685.492188 547.699219 678.511719 528.699219 C 671.558594 509.695312 608.410156 545.46875 542.539062 539.363281 C 493.757812 534.828125 485.152344 512.976562 495.949219 497.015625 C 509.539062 476.953125 534.28125 500.820312 575.097656 488.605469 C 615.972656 476.429688 673.136719 454.625 694.351562 442.753906 C 743.390625 415.414062 673.828125 404.078125 657.398438 411.664062 C 641.820312 418.855469 587.609375 432.539062 562.476562 438.605469 C 561.15625 438.921875 559.894531 439.226562 558.742188 439.5 C 535.777344 445 527.183594 444.609375 499.613281 446.347656 Z M 499.613281 446.347656 "/>
<path style=" stroke:none;fill-rule:nonzero;fill:rgb(39.607844%,73.725492%,27.450982%);fill-opacity:1;" d="M 438.179688 695.59375 C 438.179688 692.746094 440.46875 690.230469 444.097656 688.082031 C 444.203125 686.355469 445.144531 684.75 446.71875 683.273438 C 420.847656 670.414062 367.667969 645.886719 366.527344 661.027344 C 364.964844 681.082031 366.527344 762.804688 377.3125 768.988281 C 384.210938 772.925781 418.199219 755.453125 441.832031 742.335938 C 435.015625 736.519531 438.179688 722.414062 438.179688 695.59375 Z M 438.179688 695.59375 "/>
<path style=" stroke:none;fill-rule:nonzero;fill:rgb(39.607844%,73.725492%,27.450982%);fill-opacity:1;" d="M 504.941406 728.703125 C 505.054688 728.746094 505.175781 728.792969 505.285156 728.835938 C 526.464844 737.007812 568.617188 752.390625 577.773438 749.035156 C 590.117188 744.3125 587.027344 645.675781 573.171875 642.53125 C 562.074219 640.070312 519.585938 670.003906 502.871094 682.199219 C 505.828125 694.683594 509.410156 719.414062 504.941406 728.703125 Z M 504.941406 728.703125 "/>
<path style=" stroke:none;fill-rule:nonzero;fill:rgb(26.274511%,63.529414%,26.666668%);fill-opacity:1;" d="M 453.308594 737.738281 C 439.421875 734.660156 444.0625 720.769531 444.0625 688.394531 C 444.0625 688.285156 444.09375 688.183594 444.097656 688.082031 C 440.46875 690.226562 438.175781 692.746094 438.175781 695.589844 C 438.175781 722.414062 435.015625 736.519531 441.832031 742.332031 C 443.242188 743.535156 445.046875 744.410156 447.429688 744.9375 C 461.269531 748.039062 487.484375 744.9375 496.765625 738.777344 C 498.320312 737.746094 499.386719 735.695312 500.085938 732.988281 C 489.222656 738.191406 466.027344 740.628906 453.308594 737.738281 Z M 453.308594 737.738281 "/>
<path style=" stroke:none;fill-rule:nonzero;fill:rgb(39.607844%,73.725492%,27.450982%);fill-opacity:1;" d="M 446.71875 683.273438 C 445.140625 684.75 444.199219 686.355469 444.097656 688.082031 C 444.09375 688.1875 444.0625 688.289062 444.0625 688.394531 C 444.0625 720.769531 439.421875 734.660156 453.308594 737.738281 C 466.027344 740.632812 489.21875 738.195312 500.085938 732.992188 C 501.027344 732.539062 501.910156 732.078125 502.652344 731.582031 C 503.582031 730.960938 504.335938 729.96875 504.941406 728.703125 C 509.40625 719.414062 505.828125 694.683594 502.871094 682.199219 C 502.21875 679.453125 501.601562 677.289062 501.105469 676.023438 C 499.828125 672.867188 490 672.050781 478.851562 673.144531 C 466.449219 674.359375 452.4375 677.933594 446.71875 683.273438 Z M 446.71875 683.273438 "/>
</g>
</svg>
