<?xml version="1.0" encoding="UTF-8"?>
<svg xmlns="http://www.w3.org/2000/svg" xmlns:xlink="http://www.w3.org/1999/xlink" width="900px" height="px" viewBox="0 0 900 900" version="1.1">
<defs>
<filter id="alpha" filterUnits="objectBoundingBox" x="0%" y="0%" width="100%" height="100%">
  <feColorMatrix type="matrix" in="SourceGraphic" values="0 0 0 0 1 0 0 0 0 1 0 0 0 0 1 0 0 0 1 0"/>
</filter>
<mask id="mask0">
  <g filter="url(#alpha)">
<rect x="0" y="0" width="900" height="900" style="fill:rgb(0%,0%,0%);fill-opacity:0.101961;stroke:none;"/>
  </g>
</mask>
<clipPath id="clip1">
  <rect x="0" y="0" width="900" height="900"/>
</clipPath>
<g id="surface5" clip-path="url(#clip1)">
<path style=" stroke:none;fill-rule:nonzero;fill:rgb(21.176471%,44.313726%,0%);fill-opacity:1;" d="M 114.644531 243.113281 L 268.902344 484.96875 L 327.140625 420.539062 Z M 798.953125 267.335938 L 488.847656 268.664062 L 519.382812 339.433594 Z M 486.164062 548.863281 L 430.144531 843.289062 L 588.132812 572.71875 Z M 486.164062 548.863281 "/>
</g>
</defs>
<g id="surface1">
<path style=" stroke:none;fill-rule:nonzero;fill:rgb(56.862748%,69.01961%,90.980393%);fill-opacity:1;" d="M 798.921875 267.425781 C 247.417969 708.03125 523.171875 487.730469 798.921875 267.425781 Z M 798.921875 267.425781 L 480.144531 267.550781 C 567.925781 281.949219 634.90625 358.144531 634.90625 450 C 634.84375 495.175781 618.242188 538.757812 588.242188 572.535156 L 430.148438 843.253906 C 436.726562 843.578125 443.34375 843.75 450 843.75 C 667.460938 843.75 843.75 667.460938 843.75 450 C 843.75 384.101562 827.535156 322.003906 798.921875 267.429688 Z M 798.921875 267.425781 "/>
<path style=" stroke:none;fill-rule:nonzero;fill:rgb(22.352941%,41.960785%,84.313726%);fill-opacity:1;" d="M 450 56.25 C 308.4375 56.25 184.34375 130.96875 114.949219 243.105469 L 268.605469 485.089844 C 269.316406 496.605469 265.101562 450.828125 265.09375 450 C 265.09375 347.878906 347.882812 265.09375 450 265.09375 C 459.585938 265.167969 479.386719 267.101562 488.847656 268.664062 L 798.921875 267.429688 C 733.101562 141.902344 601.566406 56.25 450 56.25 Z M 114.902344 243.183594 C 19.414062 699.945312 67.160156 471.566406 114.902344 243.183594 Z M 114.902344 243.183594 "/>
<path style=" stroke:none;fill-rule:nonzero;fill:rgb(38.039216%,60.000002%,96.470588%);fill-opacity:1;" d="M 114.949219 243.105469 C 77.746094 303.230469 56.25 374.097656 56.25 450 C 56.25 660.800781 221.910156 832.910156 430.148438 843.253906 L 588.242188 572.535156 C 553.199219 612.136719 502.878906 634.839844 450 634.90625 C 361.464844 634.835938 285.402344 572.015625 268.605469 485.089844 Z M 114.949219 243.105469 "/>
<use xlink:href="#surface5" mask="url(#mask0)"/>
<path style=" stroke:none;fill-rule:nonzero;fill:rgb(100%,100%,100%);fill-opacity:1;" d="M 450 634.90625 C 552.121094 634.90625 634.90625 552.121094 634.90625 450 C 634.90625 347.878906 552.121094 265.089844 450 265.089844 C 347.878906 265.089844 265.089844 347.878906 265.089844 450 C 265.089844 552.121094 347.878906 634.90625 450 634.90625 Z M 450 634.90625 "/>
<path style=" stroke:none;fill-rule:nonzero;fill:rgb(27.450982%,53.333336%,95.686275%);fill-opacity:1;" d="M 450 602.578125 C 534.269531 602.578125 602.578125 534.265625 602.578125 450 C 602.578125 365.730469 534.269531 297.421875 450 297.421875 C 365.734375 297.421875 297.421875 365.730469 297.421875 450 C 297.421875 534.265625 365.734375 602.578125 450 602.578125 Z M 450 602.578125 "/>
</g>
</svg>
