<svg width="512" height="512" viewBox="0 0 512 512" fill="none" xmlns="http://www.w3.org/2000/svg">
<path d="M408.418 47.6551C396.02 62.1841 390.208 94.7289 402.8 127.855C415.392 160.981 434.764 153.813 446.774 187.52C462.659 232.076 455.298 291.935 455.298 291.935C455.298 291.935 474.476 347.339 487.843 288.448C517.482 177.834 408.418 74.9695 408.418 47.6551Z" fill="url(#paint0_radial_102_1462)"/>
<path d="M256.54 506.963C384.201 506.963 487.454 403.13 487.454 274.888C487.454 146.645 384.008 43.0056 256.54 43.0056C129.073 43.0056 25.8208 146.839 25.8208 274.888C25.6271 403.13 129.073 506.963 256.54 506.963Z" fill="url(#paint1_radial_102_1462)"/>
<path d="M429.535 418.046C424.498 421.533 419.268 424.633 413.844 427.539C421.011 416.884 427.791 406.036 433.797 394.8C438.64 389.376 443.289 384.145 446.97 378.334C448.713 375.428 450.844 372.135 452.975 368.067C465.954 344.627 480.289 306.852 480.677 268.108V265.202C480.677 255.516 479.708 245.636 477.771 236.144C477.965 236.919 477.965 237.694 478.158 238.469C477.965 237.887 477.965 237.306 477.771 236.725C477.965 237.694 478.158 238.856 478.352 239.825C481.064 262.296 479.127 284.186 469.635 300.459C469.441 300.652 469.247 300.846 469.247 301.234C474.09 276.631 475.834 249.511 470.41 222.39C470.41 222.39 468.279 209.217 452.006 169.117C442.708 146.065 426.048 127.08 411.519 113.326C398.733 97.441 386.917 86.7864 380.524 80.0062C367.157 65.8647 361.539 55.2102 359.215 48.43C357.277 47.4614 331.513 22.4716 329.576 21.503C318.34 38.9378 283.277 93.1791 299.937 143.74C307.492 166.792 326.67 190.62 346.817 203.987C347.785 204.955 358.827 216.966 364.058 244.086C369.482 272.176 366.576 293.872 355.534 326.223C342.361 354.506 308.654 382.596 277.078 385.502C209.663 391.701 184.867 351.601 184.867 351.601C208.889 361.287 235.622 359.156 251.894 349.276C268.167 339.203 278.046 331.648 286.183 334.553C294.125 337.459 300.324 328.935 294.706 320.024C285.795 306.27 269.523 299.296 253.444 302.008C237.172 304.721 222.061 317.7 200.752 305.108C199.396 304.333 198.04 303.365 196.684 302.396C195.328 301.427 201.333 303.752 199.784 302.783C195.716 300.459 188.161 295.616 186.417 293.872C186.03 293.485 189.71 295.035 189.323 294.647C169.37 278.181 171.888 266.945 172.469 259.971C173.05 254.354 176.537 247.186 182.736 244.28C185.642 245.83 187.579 247.186 187.579 247.186C187.579 247.186 186.223 244.668 185.642 243.312C185.836 243.118 186.03 243.312 186.417 243.118C188.935 244.28 194.166 247.38 197.072 249.123C200.752 251.642 201.915 253.966 201.915 253.966C201.915 253.966 202.883 253.385 202.108 251.254C201.915 250.285 200.752 247.38 197.072 244.474H197.265C199.396 245.636 201.527 247.186 203.464 248.736C204.433 245.055 206.37 241.181 205.983 234.207C205.789 229.364 205.789 228.008 205.014 226.071C204.239 224.521 205.402 223.746 206.758 225.489C206.564 224.133 206.176 222.777 205.595 221.615V221.421C207.339 215.61 241.046 200.306 243.564 198.562C247.632 195.657 250.926 191.976 253.444 187.714C255.381 184.808 256.737 180.547 257.125 174.154C257.318 169.505 255.187 166.405 220.899 162.918C211.601 161.949 205.983 155.169 202.883 148.97C202.302 147.614 201.721 146.452 201.14 145.096C200.559 143.74 200.171 142.19 199.784 140.64C205.402 124.562 214.7 111.001 228.648 100.734C229.423 99.9593 225.548 100.928 226.323 100.153C227.292 99.3782 232.91 97.0535 234.072 96.4724C235.428 95.8912 228.454 92.7917 222.255 93.5666C216.056 94.3415 214.7 95.1163 211.213 96.4724C212.569 95.1163 217.025 93.1791 216.056 93.3729C209.276 94.3415 200.946 98.4096 193.778 102.865C193.778 102.09 193.972 101.315 194.166 100.54C190.873 101.897 182.543 107.708 180.218 112.551C180.412 111.582 180.412 110.614 180.412 109.645C177.893 111.776 175.569 114.101 173.632 116.813L172.469 117.2C153.097 109.452 135.856 108.87 121.521 112.357C118.422 109.258 116.872 111.582 109.511 95.6975C108.929 94.7289 109.898 96.6661 109.511 95.6975C108.348 92.598 110.285 99.7656 109.511 95.6975C97.4999 105.383 81.615 116.232 73.8662 123.787C73.8662 124.174 82.7773 121.268 73.8662 123.787C70.7667 124.755 70.9604 126.499 70.573 143.352C70.3792 144.708 70.573 146.065 70.3792 147.227C64.1802 154.976 60.1121 161.562 58.5624 165.049C50.6199 178.609 41.9025 199.918 33.5726 233.432C37.2532 224.327 41.7088 215.61 46.9392 207.28C39.9653 225.102 33.1851 253.191 31.8291 296.197C33.5726 287.286 35.7035 278.568 38.4156 269.851C36.6721 305.689 42.8711 341.334 56.4314 374.46C61.2744 386.276 69.2169 404.292 82.971 424.052C125.977 469.188 186.417 497.278 253.444 497.278C323.377 497.278 386.335 466.67 429.535 418.046Z" fill="url(#paint2_linear_102_1462)"/>
<path d="M377.617 450.785C462.272 440.905 499.854 353.732 451.618 351.988C408.225 350.632 337.517 455.434 377.617 450.785Z" fill="url(#paint3_radial_102_1462)"/>
<path d="M457.815 334.166C516.125 300.265 500.821 227.039 500.821 227.039C500.821 227.039 478.349 253.191 463.046 294.841C448.129 336.103 422.752 354.7 457.815 334.166Z" fill="url(#paint4_radial_102_1462)"/>
<path d="M272.816 494.178C354.178 520.136 423.917 456.015 380.911 434.706C341.78 415.528 234.265 481.974 272.816 494.178Z" fill="url(#paint5_radial_102_1462)"/>
<path d="M464.015 365.354C465.952 362.642 468.664 353.731 470.989 349.663C485.324 326.417 485.518 308.013 485.518 307.626C494.235 264.427 493.46 246.604 488.036 214.06C483.775 187.714 464.984 149.939 448.711 131.923C432.051 113.132 443.675 119.331 427.596 105.577C413.454 89.8856 399.507 74.1943 392.145 67.9953C337.904 22.665 339.066 12.979 340.229 11.4293C340.035 11.623 339.841 11.8167 339.454 12.2041C338.872 9.68578 338.291 7.55487 338.291 7.55487C338.291 7.55487 308.459 37.0002 302.26 86.3986C298.191 118.556 310.202 152.263 327.831 173.766C336.935 185.002 347.202 195.075 358.438 203.986C371.611 222.971 378.972 246.411 378.972 271.594C378.972 334.747 327.831 385.695 264.678 385.695C256.154 385.695 247.437 384.726 239.107 382.789C209.274 377.171 192.227 362.061 183.51 351.794C178.667 345.982 176.536 341.721 176.536 341.721C203.269 351.213 232.714 349.276 250.73 339.396C268.746 329.323 279.788 321.961 288.699 324.867C297.417 327.773 304.39 319.249 298.191 310.532C291.992 301.814 276.107 289.223 252.474 292.71C234.458 295.422 217.798 308.207 194.164 295.809C192.614 295.034 191.065 294.066 189.709 293.291C188.159 292.322 194.745 294.647 193.196 293.678C188.546 291.354 180.41 286.511 178.279 284.767C177.892 284.38 181.766 285.929 181.572 285.542C159.488 269.27 162.201 258.228 162.782 251.254C163.363 245.636 167.431 238.662 174.211 235.756C177.504 237.306 179.442 238.662 179.442 238.662C179.442 238.662 178.086 236.144 177.311 234.788C177.504 234.594 177.892 234.788 178.086 234.594C180.798 235.756 186.803 238.662 189.902 240.599C193.971 243.117 195.327 245.442 195.327 245.442C195.327 245.442 196.489 244.861 195.52 242.73C195.133 241.761 193.971 238.856 189.902 235.95H190.096C192.421 237.112 194.745 238.662 196.876 240.212C198.039 236.531 199.976 232.657 199.588 225.683C199.395 220.84 199.395 219.484 198.426 217.74C197.651 216.191 198.813 215.416 200.363 217.159C200.17 215.803 199.588 214.641 199.007 213.285V213.091C200.944 207.279 238.332 192.169 241.044 190.426C245.5 187.714 249.18 184.033 252.086 179.771C254.217 176.866 255.767 172.604 256.154 166.211C256.348 163.305 255.38 161.174 245.5 158.85C239.495 157.494 230.39 156.331 216.054 154.975C205.787 154.007 199.588 147.42 196.101 141.221C195.52 139.865 194.745 138.703 194.164 137.54C193.583 136.184 193.002 134.635 192.614 133.279C198.813 117.006 210.049 103.252 224.578 93.7599C225.353 92.9851 221.285 93.9537 222.06 93.1788C223.028 92.4039 229.421 90.0793 230.583 89.4981C232.133 88.917 224.384 86.0112 217.411 86.5923C210.437 87.3672 209.081 87.9484 205.206 89.4981C206.756 88.1421 211.599 86.3986 210.437 86.3986C203.463 87.1735 194.164 91.0479 186.222 95.5034C186.222 94.7285 186.415 93.9537 186.609 93.1788C182.929 94.5348 173.824 100.346 171.112 105.189C171.305 104.221 171.305 103.252 171.305 102.477C168.593 104.608 165.881 106.933 163.75 109.645L163.557 109.839C142.054 102.09 123.069 101.509 107.184 104.996C103.697 101.896 98.0795 97.0532 90.137 81.3619C89.5558 80.3933 89.3621 83.2991 88.9747 82.3305C85.8752 75.1629 83.938 63.346 84.3254 55.2098C84.3254 55.2098 77.9327 58.1156 72.7022 70.3199C71.7336 72.4508 71.1525 73.8069 70.3776 74.9692C69.9902 75.3566 70.9588 70.9011 70.9588 71.2885C69.9902 72.8383 67.6655 74.9692 66.6969 77.875C65.9221 80.0059 64.9535 81.1682 64.3723 83.6865L64.1786 83.8803C64.1786 83.1054 64.3723 80.7808 64.1786 81.1682C61.6602 86.2049 59.5293 91.4353 57.7859 96.6657C54.8801 105.964 51.5868 118.75 51.0057 135.41C50.812 136.572 51.0057 138.122 50.812 139.284C44.0318 147.033 39.3825 153.619 37.639 156.912C28.9217 170.473 19.2357 191.394 9.93719 224.714C14.0053 215.609 19.042 206.892 24.8536 198.756C17.1048 216.384 9.54975 244.28 8 286.898C9.93719 277.987 12.2618 269.27 15.1676 260.746C13.8116 289.223 17.1048 324.673 35.1207 364.579C45.7753 388.02 70.3776 435.674 130.624 472.869C130.624 472.869 151.159 488.172 186.222 499.602C188.74 500.57 191.452 501.539 194.164 502.314C193.389 501.926 192.421 501.539 191.646 501.345C215.086 508.319 239.301 512 263.903 512C354.951 512 381.878 475.387 381.878 475.387L381.684 475.581C383.04 474.418 384.203 473.062 385.365 471.9C371.03 485.46 338.098 486.429 325.893 485.46C346.815 479.261 360.569 474.031 387.302 463.957C390.402 462.795 393.695 461.439 396.988 459.889L397.957 459.308C398.538 458.921 399.313 458.727 399.894 458.34C412.873 452.141 425.271 444.586 436.507 435.481C463.434 413.978 469.246 393.056 472.345 379.302C471.958 380.658 470.602 383.758 469.633 385.695C462.659 400.418 447.355 409.716 430.695 417.465C438.638 407.004 445.999 396.156 452.779 384.92C458.204 379.496 459.753 370.972 464.015 365.354Z" fill="url(#paint6_radial_102_1462)"/>
<path d="M431.276 416.69C442.318 404.68 452.004 390.732 459.559 375.041C478.738 334.747 508.377 267.526 485.13 197.594C466.727 142.19 441.35 111.97 409.192 82.3307C356.888 34.2883 342.359 12.7855 342.359 0C342.359 0 281.919 67.2206 308.071 137.541C334.223 207.861 387.883 205.149 423.334 278.375C465.177 364.58 389.627 458.727 327.055 485.073C330.93 484.298 465.952 453.691 473.12 376.397C472.732 377.753 469.633 399.255 431.276 416.69Z" fill="url(#paint7_radial_102_1462)"/>
<path d="M256.155 166.211C256.348 161.562 254.024 158.656 216.248 154.975C200.751 153.619 194.746 139.284 193.002 133.085C187.578 147.42 185.253 162.53 186.416 180.74C187.191 192.751 195.327 205.536 199.007 212.897C199.007 212.897 199.782 211.735 200.17 211.348C207.337 203.793 237.558 192.363 240.463 190.813C243.757 188.876 255.767 180.159 256.155 166.211Z" fill="url(#paint8_linear_102_1462)"/>
<path d="M90.1363 81.3621C89.5552 80.3935 89.3615 83.2993 88.974 82.3307C85.8745 75.1631 83.9373 63.5399 84.5185 55.21C84.5185 55.21 78.1257 58.1158 72.8953 70.3201C71.9267 72.451 71.3456 73.807 70.5707 74.9694C70.1833 75.3568 71.1518 70.9013 71.1518 71.2887C70.1833 72.8384 67.8586 74.9694 66.89 77.6814C66.1151 79.8123 65.1465 81.1684 64.5654 83.8804C64.3717 84.6553 64.7591 80.5872 64.5654 81.1684C52.1674 104.996 49.8427 141.028 51.1988 139.478C77.5446 111.389 107.571 104.802 107.571 104.802C103.89 102.477 96.9165 95.5036 90.1363 81.3621Z" fill="url(#paint9_linear_102_1462)"/>
<path d="M189.709 374.653C153.483 359.156 112.221 337.265 113.771 287.673C115.902 222.39 174.792 235.175 174.792 235.175C172.661 235.756 166.656 240.018 164.525 244.474C162.394 250.092 158.326 262.877 170.53 276.244C189.902 297.165 130.818 325.836 221.866 380.077C224.191 381.24 200.557 379.302 189.709 374.653Z" fill="url(#paint10_linear_102_1462)"/>
<path d="M176.924 342.108C202.689 351.019 232.522 349.47 250.538 339.59C262.548 332.81 278.046 322.155 287.344 324.867C279.208 321.574 273.009 320.024 265.454 319.831C264.098 319.831 262.742 319.831 261.386 319.637C258.674 319.637 255.962 319.83 253.25 320.024C248.601 320.412 243.564 323.317 238.915 322.93C238.721 322.93 243.37 320.993 242.983 320.993C240.464 321.574 237.752 321.574 235.04 321.961C233.297 322.155 231.747 322.349 229.81 322.543C176.15 326.998 131.013 293.485 131.013 293.485C127.139 306.27 148.254 332.035 176.924 342.108Z" fill="url(#paint11_linear_102_1462)"/>
<path d="M431.083 417.077C485.324 363.805 512.639 299.296 501.016 226.651C501.016 226.651 505.665 263.846 488.036 301.815C496.56 264.62 497.529 218.515 475.057 170.667C445.225 106.933 396.02 73.2258 377.229 59.278C348.752 37.9689 336.935 16.466 336.742 12.0105C328.218 29.4452 302.453 89.1108 334.03 140.446C363.475 188.682 409.968 202.824 442.319 246.992C502.372 328.548 431.083 417.077 431.083 417.077Z" fill="url(#paint12_linear_102_1462)"/>
<path d="M423.333 278.568C404.348 239.437 380.714 222.39 358.437 203.986C360.955 207.667 361.73 208.829 363.086 211.348C382.845 232.269 411.709 283.411 390.788 347.726C351.075 468.607 192.613 411.654 175.953 395.769C182.733 465.701 299.74 499.215 376.065 453.884C419.265 412.428 454.328 342.689 423.333 278.568Z" fill="url(#paint13_linear_102_1462)"/>
<defs>
<radialGradient id="paint0_radial_102_1462" cx="0" cy="0" r="1" gradientTransform="matrix(178.256 7.03616 -11.7269 262.686 494.499 158.095)" gradientUnits="userSpaceOnUse">
<stop offset="0.1" stop-color="#FFEA00"/>
<stop offset="0.17" stop-color="#FFDE00"/>
<stop offset="0.28" stop-color="#FFBF00"/>
<stop offset="0.43" stop-color="#FF8E00"/>
<stop offset="0.77" stop-color="#FF272D"/>
<stop offset="0.87" stop-color="#E0255A"/>
<stop offset="0.95" stop-color="#CC2477"/>
<stop offset="1" stop-color="#C42482"/>
</radialGradient>
<radialGradient id="paint1_radial_102_1462" cx="0" cy="0" r="1" gradientUnits="userSpaceOnUse" gradientTransform="translate(332.495 79.1845) scale(506.262 506.262)">
<stop stop-color="#00CCDA"/>
<stop offset="0.22" stop-color="#0083FF"/>
<stop offset="0.26" stop-color="#007AF9"/>
<stop offset="0.33" stop-color="#005FE7"/>
<stop offset="0.44" stop-color="#2639AD"/>
<stop offset="0.52" stop-color="#401E84"/>
<stop offset="0.57" stop-color="#4A1475"/>
</radialGradient>
<linearGradient id="paint2_linear_102_1462" x1="289.171" y1="379.275" x2="189.587" y2="53.5225" gradientUnits="userSpaceOnUse">
<stop stop-color="#000F43" stop-opacity="0.4"/>
<stop offset="0.48" stop-color="#001962" stop-opacity="0.17"/>
<stop offset="1" stop-color="#002079" stop-opacity="0"/>
</linearGradient>
<radialGradient id="paint3_radial_102_1462" cx="0" cy="0" r="1" gradientUnits="userSpaceOnUse" gradientTransform="translate(510.132 340.591) rotate(5.61742) scale(170.187 170.187)">
<stop stop-color="#FFEA00"/>
<stop offset="0.5" stop-color="#FF272D"/>
<stop offset="1" stop-color="#C42482"/>
</radialGradient>
<radialGradient id="paint4_radial_102_1462" cx="0" cy="0" r="1" gradientUnits="userSpaceOnUse" gradientTransform="translate(510.778 176.681) rotate(5.61742) scale(284.195 284.195)">
<stop stop-color="#FFE900"/>
<stop offset="0.16" stop-color="#FFAF0E"/>
<stop offset="0.32" stop-color="#FF7A1B"/>
<stop offset="0.47" stop-color="#FF4E26"/>
<stop offset="0.62" stop-color="#FF2C2E"/>
<stop offset="0.76" stop-color="#FF1434"/>
<stop offset="0.89" stop-color="#FF0538"/>
<stop offset="1" stop-color="#FF0039"/>
</radialGradient>
<radialGradient id="paint5_radial_102_1462" cx="0" cy="0" r="1" gradientUnits="userSpaceOnUse" gradientTransform="translate(524.999 442.797) rotate(5.61743) scale(260.78 260.78)">
<stop stop-color="#FF272D"/>
<stop offset="0.5" stop-color="#C42482"/>
<stop offset="0.99" stop-color="#620700"/>
</radialGradient>
<radialGradient id="paint6_radial_102_1462" cx="0" cy="0" r="1" gradientUnits="userSpaceOnUse" gradientTransform="translate(379.84 204.968) scale(406.881 406.881)">
<stop offset="0.16" stop-color="#FFEA00"/>
<stop offset="0.23" stop-color="#FFDE00"/>
<stop offset="0.37" stop-color="#FFBF00"/>
<stop offset="0.54" stop-color="#FF8E00"/>
<stop offset="0.76" stop-color="#FF272D"/>
<stop offset="0.8" stop-color="#F92433"/>
<stop offset="0.84" stop-color="#E91C45"/>
<stop offset="0.89" stop-color="#CF0E62"/>
<stop offset="0.94" stop-color="#B5007F"/>
</radialGradient>
<radialGradient id="paint7_radial_102_1462" cx="0" cy="0" r="1" gradientUnits="userSpaceOnUse" gradientTransform="translate(356.509 16.2699) scale(463.722 463.722)">
<stop offset="0.28" stop-color="#FFEA00"/>
<stop offset="0.4" stop-color="#FFDD00"/>
<stop offset="0.63" stop-color="#FFBA00"/>
<stop offset="0.86" stop-color="#FF9100"/>
<stop offset="0.93" stop-color="#FF6711"/>
<stop offset="0.99" stop-color="#FF4A1D"/>
</radialGradient>
<linearGradient id="paint8_linear_102_1462" x1="85.0915" y1="189.929" x2="284.826" y2="159.429" gradientUnits="userSpaceOnUse">
<stop stop-color="#C42482" stop-opacity="0.5"/>
<stop offset="0.47" stop-color="#FF272D" stop-opacity="0.5"/>
<stop offset="0.49" stop-color="#FF2C2C" stop-opacity="0.51"/>
<stop offset="0.68" stop-color="#FF7A1A" stop-opacity="0.72"/>
<stop offset="0.83" stop-color="#FFB20D" stop-opacity="0.87"/>
<stop offset="0.94" stop-color="#FFD605" stop-opacity="0.96"/>
<stop offset="1" stop-color="#FFE302"/>
</linearGradient>
<linearGradient id="paint9_linear_102_1462" x1="83.5874" y1="137.552" x2="62.7599" y2="62.6942" gradientUnits="userSpaceOnUse">
<stop stop-color="#891551" stop-opacity="0.6"/>
<stop offset="1" stop-color="#C42482" stop-opacity="0"/>
</linearGradient>
<linearGradient id="paint10_linear_102_1462" x1="121.608" y1="242.744" x2="164.513" y2="302.68" gradientUnits="userSpaceOnUse">
<stop offset="0.01" stop-color="#891551" stop-opacity="0.5"/>
<stop offset="0.48" stop-color="#FF272D" stop-opacity="0.5"/>
<stop offset="1" stop-color="#FF272D" stop-opacity="0"/>
</linearGradient>
<linearGradient id="paint11_linear_102_1462" x1="205.218" y1="347.089" x2="209.144" y2="308.583" gradientUnits="userSpaceOnUse">
<stop stop-color="#C42482"/>
<stop offset="0.08" stop-color="#C42482" stop-opacity="0.81"/>
<stop offset="0.21" stop-color="#C42482" stop-opacity="0.57"/>
<stop offset="0.33" stop-color="#C42482" stop-opacity="0.36"/>
<stop offset="0.45" stop-color="#C42482" stop-opacity="0.2"/>
<stop offset="0.56" stop-color="#C42482" stop-opacity="0.09"/>
<stop offset="0.67" stop-color="#C42482" stop-opacity="0.02"/>
<stop offset="0.77" stop-color="#C42482" stop-opacity="0"/>
</linearGradient>
<linearGradient id="paint12_linear_102_1462" x1="330.525" y1="18.8172" x2="489.523" y2="374.355" gradientUnits="userSpaceOnUse">
<stop stop-color="#FFF14F"/>
<stop offset="0.27" stop-color="#FFEE4C"/>
<stop offset="0.45" stop-color="#FFE643"/>
<stop offset="0.61" stop-color="#FFD834"/>
<stop offset="0.76" stop-color="#FFC41E"/>
<stop offset="0.89" stop-color="#FFAB02"/>
<stop offset="0.9" stop-color="#FFA900"/>
<stop offset="0.95" stop-color="#FFA000"/>
<stop offset="1" stop-color="#FF9100"/>
</linearGradient>
<linearGradient id="paint13_linear_102_1462" x1="362.094" y1="223.307" x2="286.782" y2="425.527" gradientUnits="userSpaceOnUse">
<stop stop-color="#FF8E00"/>
<stop offset="0.04" stop-color="#FF8E00" stop-opacity="0.86"/>
<stop offset="0.08" stop-color="#FF8E00" stop-opacity="0.73"/>
<stop offset="0.13" stop-color="#FF8E00" stop-opacity="0.63"/>
<stop offset="0.18" stop-color="#FF8E00" stop-opacity="0.56"/>
<stop offset="0.23" stop-color="#FF8E00" stop-opacity="0.51"/>
<stop offset="0.28" stop-color="#FF8E00" stop-opacity="0.5"/>
<stop offset="0.39" stop-color="#FF8E00" stop-opacity="0.48"/>
<stop offset="0.52" stop-color="#FF8E00" stop-opacity="0.42"/>
<stop offset="0.68" stop-color="#FF8E00" stop-opacity="0.31"/>
<stop offset="0.84" stop-color="#FF8E00" stop-opacity="0.17"/>
<stop offset="1" stop-color="#FF8E00" stop-opacity="0"/>
</linearGradient>
</defs>
</svg>
