<svg width="511" height="512" viewBox="0 0 511 512" fill="none" xmlns="http://www.w3.org/2000/svg">
<path d="M279.349 38.2594L265.845 92.2728C284.975 54.0133 315.92 25.3187 351.366 0C325.485 29.8199 301.854 59.6397 287.788 90.0222C311.982 55.7012 344.615 37.1342 381.186 24.1935C332.237 67.5166 293.415 114.778 264.157 161.477L240.527 151.35C244.465 113.653 258.531 75.3936 279.349 38.2594Z" fill="#68B044"/>
<path d="M216.897 141.222L261.345 159.79C261.345 171.042 260.22 205.926 267.534 216.053C341.802 311.702 329.424 504.124 252.343 508.626C135.314 508.626 90.303 429.294 90.303 356.15C90.303 289.196 170.198 245.311 218.022 205.926C230.963 195.236 228.712 171.605 216.897 141.222Z" fill="#F5F8DE"/>
<path d="M261.344 159.227L277.661 167.667C275.973 178.357 278.223 201.987 288.914 207.614C336.175 236.871 380.061 268.379 397.503 300.449C459.393 412.414 354.18 516.503 262.47 506.375C311.982 469.804 326.61 394.41 308.043 311.702C300.729 279.632 288.914 250.374 268.096 217.179C259.094 201.987 262.47 181.732 261.344 159.227Z" fill="#7E4798"/>
<path d="M213.519 130.531L287.225 160.913C277.097 193.547 306.355 216.615 315.92 221.678C337.3 233.494 357.555 245.872 373.871 260.501C404.816 288.632 422.258 328.017 422.258 369.09C422.258 410.162 403.691 450.11 371.621 476.554C341.801 501.31 300.166 512 260.218 512C235.462 512 212.957 510.875 188.763 502.998C133.062 484.431 91.9893 437.169 88.6135 380.343C85.2377 336.457 95.3652 302.698 129.686 267.252C147.128 248.685 183.137 227.305 207.893 210.426C220.271 202.549 233.212 178.918 208.456 134.469L213.519 130.531ZM219.146 142.346C221.959 146.285 228.711 163.164 230.398 168.228C233.774 182.294 232.086 195.797 229.273 201.986C214.082 230.118 187.075 237.995 167.946 253.749C164.17 256.843 160.361 259.863 156.576 262.889L154.514 264.541C124.664 288.518 97.0024 313.844 100.429 380.905C102.679 418.602 131.937 465.301 176.385 486.681C184.849 490.819 193.69 494.077 202.803 496.643C191.927 491.854 182.659 485.902 175.26 477.68C175.26 477.118 172.447 474.867 172.447 474.867C156.693 456.863 137 426.48 130.249 397.786C127.436 386.533 125.185 377.531 128.561 365.715C140.337 323.731 164.693 304.577 190.181 287.054L191.863 285.901C192.143 285.709 192.424 285.517 192.705 285.325L195.234 283.603C196.077 283.029 196.921 282.456 197.765 281.882C203.954 277.944 211.831 274.005 218.02 268.941C228.237 262.279 234.245 244.394 239.367 226.639L239.877 224.864C241.059 220.726 242.199 216.616 243.339 212.678C239.963 230.119 236.025 261.627 220.834 273.442C214.645 277.944 207.893 282.445 201.141 286.946L198.662 288.615C171.965 306.584 146.194 324.288 134.187 367.403C131.374 376.968 133.625 387.095 135.875 396.66C142.627 424.23 161.757 453.487 176.948 470.929C176.948 471.16 177.425 471.678 177.986 472.247L178.478 472.741C179.138 473.401 179.761 474.04 179.761 474.304C190.642 487.164 195.001 492.197 228 500.488C219.916 497.194 212.173 493.28 206.768 489.496C179.761 470.929 166.258 447.861 164.007 413.54C162.319 386.533 178.636 358.964 210.706 342.084C232.649 330.269 239.401 312.827 246.152 291.447C241.089 316.203 235.462 330.832 212.957 344.335C185.95 359.526 166.82 390.471 168.508 411.289C170.759 436.608 188.201 465.865 208.456 483.307C216.625 490.568 229.553 495.633 242.221 498.797C238.907 496.183 235.273 492.443 232.086 487.808C228.148 482.181 225.335 474.304 222.522 466.99C219.708 460.238 216.895 452.362 216.895 445.61C216.895 429.293 218.583 409.038 230.398 395.535C241.089 383.157 244.464 381.469 248.966 366.841C245.59 383.157 243.339 384.282 233.212 398.911C220.271 416.915 219.708 434.92 221.396 446.173C222.521 453.487 225.335 460.238 227.585 465.865C230.398 473.179 233.774 479.931 238.275 486.12C242.214 490.621 244.464 493.434 250.091 496.247C256.28 484.432 260.218 460.801 260.781 447.86C261.344 436.608 261.906 423.667 260.218 410.726C257.968 393.285 252.904 376.405 252.341 362.902C255.155 375.28 261.344 392.722 264.719 409.601C267.533 423.104 268.095 436.045 266.97 446.173C265.845 457.988 265.282 467.553 263.594 477.68C262.046 485.421 258.131 492.689 251.85 500.351C266.088 491.273 274.341 475.161 278.223 456.863C283.286 434.357 283.849 412.977 283.849 401.724C283.849 393.716 281.035 381.839 277.91 369.986L277.356 367.896C276.707 365.459 276.051 363.033 275.41 360.651C272.596 349.399 261.906 338.146 259.093 329.706C254.029 315.64 256.28 305.513 255.717 285.821C257.968 303.825 257.968 319.579 263.031 328.018C266.97 335.333 273.722 345.46 277.66 355.588C285.537 374.155 289.476 394.41 290.038 403.975C290.601 420.291 288.35 445.61 282.724 465.865C280.631 472.665 277.945 478.979 274.931 484.505C281.312 474.67 286.188 463.119 288.35 452.924C288.716 451.208 289.077 449.486 289.434 447.761L289.964 445.171C296.452 413.203 300.953 380.428 296.79 360.651C295.665 355.588 293.977 338.709 287.225 320.704C277.66 294.26 263.594 272.88 261.906 267.816C256.536 253.852 255.266 219.895 254.673 199.71L254.66 199.242C254.831 204.212 255.167 209.642 255.627 215.178L255.776 216.929C255.879 218.098 255.986 219.27 256.099 220.442L256.271 222.2C256.301 222.492 256.33 222.785 256.36 223.078L256.543 224.83C258.345 241.74 261.084 257.732 263.594 262.752C265.282 267.816 280.473 292.01 291.163 317.328C298.478 333.645 300.728 349.399 301.291 353.9C306.917 401.161 302.416 420.854 290.038 463.052C288.543 468.228 286.506 473.169 284.141 477.76C291.258 468.629 296.499 458.836 298.478 450.674C310.293 398.348 314.794 330.832 297.915 279.069C288.913 252.062 267.533 228.431 263.594 212.115C260.218 196.924 260.218 181.17 261.344 160.915L266.97 163.728C264.157 169.917 265.845 201.425 270.346 213.24C275.972 228.994 292.289 246.998 302.416 272.317C304.976 278.225 307.536 287.027 309.807 296.168L310.193 297.737C310.385 298.523 310.574 299.311 310.761 300.098L311.132 301.672C314.684 316.873 317.281 331.597 317.607 334.207C323.234 381.469 320.421 425.918 306.355 463.614C299.706 481.067 285.691 496.986 275.418 504.343C302.758 500.653 340.437 486.681 363.181 468.114C392.438 443.921 408.192 406.787 408.192 369.09C408.192 331.393 393.564 295.384 364.869 270.065C348.553 255.437 322.109 237.432 305.229 227.867C288.35 218.303 267.533 191.859 274.284 166.54L219.146 142.346Z" fill="#010101"/>
</svg>
