<svg width="900" height="900" viewBox="0 0 900 900" fill="none" xmlns="http://www.w3.org/2000/svg">
<path d="M816.68 453.127C690.86 455.597 717.067 535.247 628.395 555.39C538.316 575.854 524.096 335.391 434.04 335.391C343.972 335.391 324.02 568.974 211.245 729.332L208.027 733.871L449.818 873.444L816.68 661.658V453.127Z" fill="#36A2EB"/>
<path d="M816.682 445.877C774.562 391.821 745.993 329.676 684.528 329.676C575.758 329.676 604.378 507.117 484.166 507.117C363.943 507.117 351.303 316.255 215.111 495.67C171.714 552.837 136.783 616.579 109.344 676.896L449.819 873.45L816.682 661.663V445.877Z" fill="#FFCE56"/>
<path opacity="0.8" d="M82.9492 519.379C124.225 405.073 142.04 312.497 220.84 312.497C341.052 312.497 369.667 650.216 472.722 615.859C575.761 581.518 564.309 398.346 724.604 398.346C755.114 398.346 786.265 417.038 816.691 447.272V661.658L449.829 873.444L82.9492 661.658V519.379Z" fill="#FE6184"/>
<path d="M449.533 900L59.7656 675.006V225L449.533 0L839.301 225V675L449.533 900ZM105.559 648.568L449.533 847.136L793.507 648.568V251.437L449.533 52.8694L105.559 251.437V648.568Z" fill="#E7E9ED"/>
</svg>
