<svg width="900" height="900" viewBox="0 0 900 900" fill="none" xmlns="http://www.w3.org/2000/svg">
<path d="M450 179.297C330 179.297 255 239.297 225 359.297C270 299.297 322.5 276.797 382.5 291.797C416.733 300.355 441.202 325.19 468.285 352.682C512.405 397.465 563.468 449.297 675 449.297C795 449.297 870 389.297 900 269.297C855 329.297 802.5 351.797 742.5 336.797C708.267 328.239 683.798 303.404 656.715 275.912C612.595 231.129 561.532 179.297 450 179.297ZM225 449.297C105 449.297 30 509.297 0 629.297C45 569.297 97.5 546.797 157.5 561.797C191.733 570.355 216.202 595.19 243.285 622.682C287.405 667.465 338.468 719.297 450 719.297C570 719.297 645 659.297 675 539.297C630 599.297 577.5 621.797 517.5 606.797C483.267 598.239 458.798 573.404 431.715 545.912C387.595 501.129 336.532 449.297 225 449.297Z" fill="url(#paint0_linear_335_247)"/>
<path d="M450 179.297C330 179.297 255 239.297 225 359.297C270 299.297 322.5 276.797 382.5 291.797C416.733 300.355 441.202 325.19 468.285 352.682C512.405 397.465 563.468 449.297 675 449.297C795 449.297 870 389.297 900 269.297C855 329.297 802.5 351.797 742.5 336.797C708.267 328.239 683.798 303.404 656.715 275.912C612.595 231.129 561.532 179.297 450 179.297ZM225 449.297C105 449.297 30 509.297 0 629.297C45 569.297 97.5 546.797 157.5 561.797C191.733 570.355 216.202 595.19 243.285 622.682C287.405 667.465 338.468 719.297 450 719.297C570 719.297 645 659.297 675 539.297C630 599.297 577.5 621.797 517.5 606.797C483.267 598.239 458.798 573.404 431.715 545.912C387.595 501.129 336.532 449.297 225 449.297Z" fill="url(#paint1_linear_335_247)"/>
<defs>
<linearGradient id="paint0_linear_335_247" x1="-25" y1="352.097" x2="752.297" y2="800.268" gradientUnits="userSpaceOnUse">
<stop stop-color="#2298BD"/>
<stop offset="1" stop-color="#0ED7B5"/>
</linearGradient>
<linearGradient id="paint1_linear_335_247" x1="-25" y1="352.097" x2="752.297" y2="800.268" gradientUnits="userSpaceOnUse">
<stop stop-color="#2298BD"/>
<stop offset="1" stop-color="#0ED7B5"/>
</linearGradient>
</defs>
</svg>
