<?xml version="1.0" encoding="UTF-8"?>
<svg xmlns="http://www.w3.org/2000/svg" xmlns:xlink="http://www.w3.org/1999/xlink" width="900px" height="px" viewBox="0 0 900 900" version="1.1">
<g id="surface1">
<path style=" stroke:none;fill-rule:nonzero;fill:rgb(20%,0%,0%);fill-opacity:1;" d="M 738.597656 0 L 161.40625 0 C 72.261719 0 0 72.261719 0 161.40625 L 0 738.597656 C 0 827.738281 72.261719 900 161.40625 900 L 738.597656 900 C 827.738281 900 900 827.738281 900 738.597656 L 900 161.40625 C 900 72.261719 827.738281 0 738.597656 0 Z M 738.597656 0 "/>
<path style=" stroke:none;fill-rule:nonzero;fill:rgb(100%,60.392159%,0%);fill-opacity:1;" d="M 304.621094 238.898438 L 437.128906 238.898438 L 585.742188 653.769531 L 464.375 653.769531 L 443.941406 590.609375 L 288.519531 590.609375 L 268.085938 653.769531 L 151.671875 653.769531 Z M 411.742188 492.152344 L 366.539062 352.832031 L 321.335938 492.152344 Z M 411.742188 492.152344 "/>
<path style=" stroke:none;fill-rule:nonzero;fill:rgb(100%,60.392159%,0%);fill-opacity:1;" d="M 603.523438 266.140625 C 603.523438 236.421875 626.433594 217.226562 661.109375 217.226562 C 695.167969 217.226562 716.839844 237.039062 716.839844 266.140625 C 716.839844 295.863281 695.167969 316.300781 661.109375 316.300781 C 625.195312 316.300781 603.523438 296.484375 603.523438 266.140625 Z M 606.617188 330.542969 L 714.984375 330.542969 L 714.984375 653.769531 L 606.617188 653.769531 Z M 606.617188 330.542969 "/>
</g>
</svg>
