<?xml version="1.0" encoding="UTF-8"?>
<svg xmlns="http://www.w3.org/2000/svg" xmlns:xlink="http://www.w3.org/1999/xlink" width="900px" height="px" viewBox="0 0 900 900" version="1.1">
<g id="surface1">
<path style=" stroke:none;fill-rule:nonzero;fill:rgb(0%,11.764706%,21.176471%);fill-opacity:1;" d="M 738.597656 0 L 161.40625 0 C 72.261719 0 0 72.261719 0 161.40625 L 0 738.597656 C 0 827.738281 72.261719 900 161.40625 900 L 738.597656 900 C 827.738281 900 900 827.738281 900 738.597656 L 900 161.40625 C 900 72.261719 827.738281 0 738.597656 0 Z M 738.597656 0 "/>
<path style=" stroke:none;fill-rule:nonzero;fill:rgb(19.215687%,65.882355%,100%);fill-opacity:1;" d="M 314.273438 238.898438 C 431.925781 238.898438 498.179688 294.007812 498.179688 386.269531 C 498.179688 494.015625 408.394531 537.355469 324.179688 537.355469 L 267.214844 537.355469 L 267.214844 653.769531 L 152.039062 653.769531 L 152.039062 238.898438 Z M 267.214844 337.351562 L 267.214844 438.902344 L 317.988281 438.902344 C 353.285156 438.902344 378.050781 424.660156 378.050781 388.746094 C 378.050781 355.929688 357 337.351562 320.464844 337.351562 Z M 267.214844 337.351562 "/>
<path style=" stroke:none;fill-rule:nonzero;fill:rgb(19.215687%,65.882355%,100%);fill-opacity:1;" d="M 521.585938 633.335938 L 522.210938 537.355469 C 555.027344 559.03125 600.847656 572.65625 632.429688 572.65625 C 654.101562 572.65625 664.007812 566.460938 664.007812 555.316406 C 664.007812 542.933594 650.386719 537.976562 624.378906 529.925781 C 574.222656 515.066406 519.113281 494.632812 519.113281 428.996094 C 519.113281 362.121094 574.222656 324.96875 654.101562 324.96875 C 691.875 324.96875 722.835938 330.539062 750.078125 342.304688 L 749.460938 433.949219 C 727.785156 420.945312 685.0625 409.179688 657.195312 409.179688 C 636.765625 409.179688 628.714844 415.371094 628.714844 424.660156 C 628.714844 435.804688 638.621094 438.902344 668.34375 448.191406 C 725.933594 465.527344 774.230469 484.105469 774.230469 551.597656 C 774.230469 615.996094 721.597656 659.34375 639.238281 659.34375 C 595.894531 659.34375 555.027344 651.910156 521.585938 633.335938 Z M 521.585938 633.335938 "/>
</g>
</svg>
