<?xml version="1.0" encoding="UTF-8"?>
<svg xmlns="http://www.w3.org/2000/svg" xmlns:xlink="http://www.w3.org/1999/xlink" width="900px" height="px" viewBox="0 0 900 900" version="1.1">
<g id="surface1">
<path style=" stroke:none;fill-rule:nonzero;fill:rgb(0%,11.764706%,21.176471%);fill-opacity:1;" d="M 738.597656 0 L 161.40625 0 C 72.261719 0 0 72.261719 0 161.40625 L 0 738.597656 C 0 827.738281 72.261719 900 161.40625 900 L 738.597656 900 C 827.738281 900 900 827.738281 900 738.597656 L 900 161.40625 C 900 72.261719 827.738281 0 738.597656 0 Z M 738.597656 0 "/>
<path style=" stroke:none;fill-rule:nonzero;fill:rgb(19.215687%,65.882355%,100%);fill-opacity:1;" d="M 199.472656 238.90625 L 314.648438 238.90625 L 314.648438 555.328125 L 505.363281 555.328125 L 505.363281 653.78125 L 199.472656 653.78125 Z M 676.886719 324.980469 C 702.277344 324.980469 722.707031 328.074219 731.996094 331.171875 L 731.996094 415.382812 C 724.566406 413.527344 710.324219 412.285156 698.5625 412.285156 C 675.648438 412.285156 662.648438 414.144531 650.878906 418.480469 L 650.878906 653.78125 L 542.515625 653.78125 L 542.515625 352.222656 C 581.527344 334.886719 620.539062 324.980469 676.886719 324.980469 Z M 676.886719 324.980469 "/>
</g>
</svg>
