<svg width="900" height="900" viewBox="0 0 900 900" fill="none" xmlns="http://www.w3.org/2000/svg">
<g clip-path="url(#clip0_100_306)">
<path d="M0 150C0 67.1573 67.1573 0 150 0H750C832.843 0 900 67.1573 900 150V750C900 832.843 832.843 900 750 900H150C67.1573 900 0 832.843 0 750V150Z" fill="#7D2AE7"/>
<path d="M0 150C0 67.1573 67.1573 0 150 0H750C832.843 0 900 67.1573 900 150V750C900 832.843 832.843 900 750 900H150C67.1573 900 0 832.843 0 750V150Z" fill="url(#paint0_radial_100_306)"/>
<path d="M0 150C0 67.1573 67.1573 0 150 0H750C832.843 0 900 67.1573 900 150V750C900 832.843 832.843 900 750 900H150C67.1573 900 0 832.843 0 750V150Z" fill="url(#paint1_radial_100_306)"/>
<path d="M0 150C0 67.1573 67.1573 0 150 0H750C832.843 0 900 67.1573 900 150V750C900 832.843 832.843 900 750 900H150C67.1573 900 0 832.843 0 750V150Z" fill="url(#paint2_radial_100_306)"/>
<path d="M0 150C0 67.1573 67.1573 0 150 0H750C832.843 0 900 67.1573 900 150V750C900 832.843 832.843 900 750 900H150C67.1573 900 0 832.843 0 750V150Z" fill="url(#paint3_radial_100_306)"/>
<path d="M750.789 470.086C749.768 470.086 748.861 470.771 748.408 472.132C742.243 489.692 733.923 500.172 727.079 500.172C723.146 500.172 721.558 495.785 721.558 488.896C721.558 471.716 731.883 435.234 737.023 418.583C737.631 416.866 737.976 415.067 738.047 413.247C738.047 408.403 735.399 406.018 728.858 406.018C722.314 406.018 714.185 408.819 706.848 421.762C704.276 410.333 696.564 405.337 685.786 405.337C673.346 405.337 661.32 413.361 651.412 426.341C641.507 439.321 629.898 443.635 621.124 441.516C627.437 426.114 629.746 414.572 629.746 406.018C629.746 392.583 623.129 384.485 612.428 384.485C596.126 384.485 586.749 400.039 586.749 416.387C586.749 429.027 592.462 442.046 605.092 448.366C594.538 472.244 579.112 493.855 573.252 493.855C565.688 493.855 563.455 456.843 563.911 430.352C564.136 415.176 565.423 414.382 565.423 409.765C565.423 407.154 563.683 405.337 556.839 405.337C540.844 405.337 535.853 418.923 535.132 434.515C534.857 440.426 533.933 446.29 532.372 451.999C525.644 475.916 511.878 494.043 502.878 494.043C498.681 494.043 497.585 489.844 497.585 484.396C497.585 467.213 507.19 445.678 507.19 427.362C507.19 413.852 501.29 405.337 490.132 405.337C477.051 405.337 459.694 420.966 443.282 450.182C448.69 427.816 450.883 406.132 434.926 406.132C431.453 406.185 428.043 407.068 424.98 408.705C422.786 409.84 421.615 411.884 421.766 414.155C423.278 438.034 402.556 499.076 382.892 499.076C379.3 499.076 377.599 495.216 377.599 488.935C377.599 471.752 387.846 435.348 392.99 418.658C393.615 416.843 393.96 414.94 394.01 413.019C394.01 408.479 391.211 406.132 384.821 406.132C377.788 406.132 370.187 408.819 362.813 421.762C360.241 410.333 352.528 405.337 341.789 405.337C324.129 405.337 304.351 424.033 295.693 448.442C284.084 480.988 260.676 512.4 229.176 512.4C200.589 512.4 185.501 488.595 185.501 451.016C185.501 396.671 225.357 352.317 254.891 352.317C269.034 352.317 275.764 361.324 275.764 375.138C275.764 391.865 266.462 399.622 266.462 405.98C266.462 407.911 268.05 409.84 271.265 409.84C284.121 409.84 299.209 394.742 299.209 374.154C299.209 353.567 282.532 338.467 252.962 338.467C204.144 338.467 154.985 387.664 154.985 450.674C154.985 500.818 179.715 531.056 222.445 531.056C251.601 531.056 277.087 508.388 290.851 481.856C292.403 503.845 302.348 515.274 317.512 515.274C331.01 515.274 341.94 507.251 350.296 493.098C353.51 507.895 362.018 515.162 373.099 515.162C385.804 515.162 396.392 507.099 406.488 492.15C406.338 503.884 409.022 514.933 419.194 514.933C423.996 514.933 429.745 513.838 430.766 509.637C441.429 465.32 467.938 429.141 476.031 429.141C478.412 429.141 479.056 431.412 479.056 434.174C479.056 446.209 470.582 470.884 470.582 486.625C470.582 503.693 477.807 514.933 492.745 514.933C509.306 514.933 526.132 494.648 537.364 464.979C540.882 492.683 548.481 515.046 560.319 515.046C574.912 515.046 600.819 484.355 616.508 451.81C622.637 452.605 631.901 452.416 640.75 446.133C637.006 455.707 634.774 466.191 634.774 476.637C634.774 506.834 649.142 515.274 661.549 515.274C675.045 515.274 685.974 507.251 694.332 493.098C697.091 505.85 704.124 515.121 717.097 515.121C737.363 515.121 754.985 494.384 754.985 477.353C754.985 472.853 753.057 470.086 750.789 470.086ZM329.914 498.584C321.709 498.584 318.494 490.297 318.494 477.997C318.494 456.653 333.09 420.929 348.557 420.929C355.288 420.929 357.86 428.915 357.86 438.64C357.86 460.324 343.981 498.584 329.914 498.584ZM610.423 434.78C605.543 428.952 603.767 421.005 603.767 413.966C603.767 405.261 606.943 397.919 610.763 397.919C614.58 397.919 615.716 401.666 615.716 406.889C615.716 415.593 612.616 428.384 610.423 434.78ZM673.913 498.584C665.745 498.584 662.529 489.087 662.529 477.997C662.529 457.373 677.125 420.929 692.707 420.929C699.436 420.929 701.856 428.801 701.856 438.64C701.856 460.324 688.206 498.584 673.913 498.584Z" fill="white"/>
</g>
<defs>
<radialGradient id="paint0_radial_100_306" cx="0" cy="0" r="1" gradientUnits="userSpaceOnUse" gradientTransform="translate(173.842 797.684) rotate(-49.4156) scale(696.074)">
<stop stop-color="#6420FF"/>
<stop offset="1" stop-color="#6420FF" stop-opacity="0"/>
</radialGradient>
<radialGradient id="paint1_radial_100_306" cx="0" cy="0" r="1" gradientUnits="userSpaceOnUse" gradientTransform="translate(238.264 102.316) rotate(54.7035) scale(784.952)">
<stop stop-color="#00C4CC"/>
<stop offset="1" stop-color="#00C4CC" stop-opacity="0"/>
</radialGradient>
<radialGradient id="paint2_radial_100_306" cx="0" cy="0" r="1" gradientUnits="userSpaceOnUse" gradientTransform="translate(173.842 797.684) rotate(-45.1954) scale(687.648 316.259)">
<stop stop-color="#6420FF"/>
<stop offset="1" stop-color="#6420FF" stop-opacity="0"/>
</radialGradient>
<radialGradient id="paint3_radial_100_306" cx="0" cy="0" r="1" gradientUnits="userSpaceOnUse" gradientTransform="translate(368.052 121.263) rotate(66.5198) scale(708.566 1187.01)">
<stop stop-color="#00C4CC" stop-opacity="0.725916"/>
<stop offset="0.0001" stop-color="#00C4CC"/>
<stop offset="1" stop-color="#00C4CC" stop-opacity="0"/>
</radialGradient>
<clipPath id="clip0_100_306">
<rect width="900" height="900" fill="white"/>
</clipPath>
</defs>
</svg>
