<svg width="900" height="900" viewBox="0 0 900 900" fill="none" xmlns="http://www.w3.org/2000/svg">
<path d="M200.006 699.999C200.006 630.964 255.971 574.999 325.006 574.999H450.006V699.999C450.006 769.034 394.041 824.999 325.006 824.999C255.971 824.999 200.006 769.034 200.006 699.999Z" fill="#24CB71"/>
<path d="M450 75V325H575C644.035 325 700 269.035 700 200C700 130.965 644.035 75 575 75H450Z" fill="#FF7237"/>
<path d="M573.956 575.001C642.992 575.001 698.956 519.036 698.956 450.001C698.956 380.965 642.992 325.001 573.956 325.001C504.921 325.001 448.956 380.965 448.956 450.001C448.956 519.036 504.921 575.001 573.956 575.001Z" fill="#00B6FF"/>
<path d="M200.006 200C200.006 269.035 255.971 325 325.006 325H450.006V75H325.006C255.971 75 200.006 130.965 200.006 200Z" fill="#FF3737"/>
<path d="M200.006 450.001C200.006 519.036 255.971 575.001 325.006 575.001H450.006V325.001H325.006C255.971 325.001 200.006 380.966 200.006 450.001Z" fill="#874FFF"/>
</svg>
