<?xml version="1.0" encoding="utf-8"?>
<svg width="900" height="952.066" viewBox="0 0 900 952.066" fill="none" xmlns="http://www.w3.org/2000/svg">
  <path d="M148.25 178.512C175.373 161.385 193.388 131.144 193.388 96.6942C193.388 43.2916 150.097 0 96.6942 0C43.2916 0 0 43.2916 0 96.6942C0 127.656 14.5524 155.219 37.1901 172.917C37.1901 172.917 37.1901 952.066 37.1901 952.066L156.198 952.066L156.198 833.058C156.198 833.058 850.915 833.058 850.915 833.058C878.025 833.058 900 811.083 900 783.973C900 777.1 898.56 770.311 895.769 764.033C895.769 764.033 780.992 505.785 780.992 505.785C780.992 505.785 895.769 247.536 895.769 247.536C898.56 241.259 900 234.468 900 227.6C900 200.49 878.025 178.512 850.915 178.512C850.915 178.512 148.25 178.512 148.25 178.512Z" fill="#418FDE" />
</svg>