<?xml version="1.0" encoding="utf-8"?>
<svg width="900.002" height="900" viewBox="0 0 900.002 900" fill="none" xmlns="http://www.w3.org/2000/svg">
  <g>
    <path d="M900 775C900 844.052 844.052 900 775 900C775 900 125 900 125 900C55.974 900 0 844.052 0 775C0 775 0 125 0 125C0 55.9479 55.974 0 125 0C125 0 775 0 775 0C844.052 0 900 55.9479 900 125C900 125 900 775 900 775ZM885.938 762.891L885.938 762.891Z" fill="#00C853" />
    <path d="M0 0L325 0L325 700L0 700L0 0ZM0 0L0 0Z" fill="#FFFFFF" transform="translate(125 100)" />
    <path d="M175 0C78.349 0 0 78.349 0 175C0 271.651 78.349 350 175 350C271.651 350 350 271.651 350 175C350 78.349 271.651 0 175 0ZM175 350C78.349 350 0 428.349 0 525C0 621.651 78.349 700 175 700C271.651 700 350 621.651 350 525C350 428.349 271.651 350 175 350ZM174.316 350L174.316 350Z" fill="#FFFFFF" transform="translate(449.999 100)" />
  </g>
</svg>