<?xml version="1.0" encoding="UTF-8"?>
<svg xmlns="http://www.w3.org/2000/svg" xmlns:xlink="http://www.w3.org/1999/xlink" width="900px" height="px" viewBox="0 0 900 900" version="1.1">
<g id="surface1">
<path style=" stroke:none;fill-rule:nonzero;fill:rgb(0%,0%,0%);fill-opacity:1;" d="M 139.175781 0 L 760.824219 0 C 837.699219 0 900 62.300781 900 139.175781 L 900 760.824219 C 900 837.699219 837.699219 900 760.824219 900 L 139.175781 900 C 62.300781 900 0 837.699219 0 760.824219 L 0 139.175781 C 0 62.300781 62.300781 0 139.175781 0 Z M 139.175781 0 "/>
<path style=" stroke:none;fill-rule:nonzero;fill:rgb(100%,100%,100%);fill-opacity:1;" d="M 141.160156 573.511719 C 100.253906 573.511719 64.949219 548.796875 64.949219 498.65625 C 64.949219 498.65625 105.496094 498.65625 105.496094 498.65625 C 105.496094 522.296875 122.289062 534.46875 141.160156 534.46875 C 159.691406 534.46875 176.121094 523.375 176.121094 495.796875 C 176.121094 495.796875 176.121094 315.464844 176.121094 315.464844 L 217.039062 315.464844 C 217.039062 315.464844 217.039062 499.371094 217.039062 499.371094 C 217.03125 552.023438 181.019531 573.503906 141.160156 573.503906 C 141.160156 573.503906 141.160156 573.511719 141.160156 573.511719 Z M 273.125 368.21875 C 259.144531 368.21875 247.257812 356.398438 247.257812 341.722656 C 247.257812 327.394531 259.144531 315.574219 273.125 315.574219 C 287.460938 315.574219 298.640625 327.394531 298.640625 341.722656 C 298.640625 356.398438 287.460938 368.21875 273.125 368.21875 Z M 253.902344 391.910156 L 292.359375 391.910156 L 292.359375 572.355469 L 253.902344 572.355469 Z M 389.589844 573.058594 C 356.019531 573.058594 329.808594 554.074219 329.808594 513.601562 C 329.808594 513.601562 329.808594 342.417969 329.808594 342.417969 L 368.265625 342.417969 L 368.265625 392.195312 L 410.578125 392.195312 L 410.578125 427.296875 L 368.265625 427.296875 C 368.265625 427.296875 368.265625 507.15625 368.265625 507.15625 C 368.265625 529.359375 377.703125 537.234375 397.632812 537.234375 C 404.972656 537.234375 412.664062 536.160156 418.257812 534.015625 C 418.257812 534.015625 418.257812 569.117188 418.257812 569.117188 C 410.558594 571.621094 401.472656 573.058594 389.589844 573.058594 Z M 493.136719 573.058594 C 459.574219 573.058594 433.363281 554.074219 433.363281 513.601562 C 433.363281 513.601562 433.363281 342.417969 433.363281 342.417969 L 471.824219 342.417969 L 471.824219 392.195312 L 521.488281 392.195312 L 521.488281 427.296875 L 471.824219 427.296875 C 471.824219 427.296875 471.824219 507.15625 471.824219 507.15625 C 471.824219 529.359375 481.257812 537.234375 501.1875 537.234375 C 508.527344 537.234375 516.21875 536.160156 521.8125 534.015625 C 521.8125 534.015625 521.8125 569.117188 521.8125 569.117188 C 514.113281 571.621094 505.019531 573.058594 493.144531 573.058594 C 493.144531 573.058594 493.136719 573.058594 493.136719 573.058594 Z M 618.734375 389.042969 C 664.535156 389.042969 702.992188 420.1875 702.992188 477.855469 C 702.992188 481.796875 702.992188 485.015625 702.648438 490.742188 C 702.648438 490.742188 565.238281 490.742188 565.238281 490.742188 C 566.980469 520.105469 590.058594 539.453125 619.078125 539.453125 C 643.546875 539.453125 659.988281 527.984375 669.070312 512.230469 C 669.070312 512.230469 698.445312 533.71875 698.445312 533.71875 C 682.71875 559.140625 655.449219 575.257812 618.734375 575.257812 C 565.597656 575.257812 527.492188 536.578125 527.492188 482.140625 C 527.492188 429.503906 565.597656 389.03125 618.734375 389.03125 C 618.734375 389.03125 618.734375 389.042969 618.734375 389.042969 Z M 566.992188 462.089844 C 566.992188 462.089844 664.179688 462.089844 664.179688 462.089844 C 659.988281 436.304688 639.714844 422.339844 617.324219 422.339844 C 594.945312 422.339844 572.234375 435.589844 566.992188 462.089844 Z M 726.132812 392.882812 L 764.589844 392.882812 C 764.589844 392.882812 764.589844 424.753906 764.589844 424.753906 C 771.234375 404.339844 790.8125 391.089844 810.742188 391.089844 C 815.632812 391.089844 820.53125 391.445312 825.773438 392.519531 C 825.773438 392.519531 825.773438 432.992188 825.773438 432.992188 C 819.128906 430.859375 813.535156 429.773438 806.539062 429.773438 C 784.511719 429.773438 764.589844 448.757812 764.589844 484.570312 C 764.589844 484.570312 764.589844 571.953125 764.589844 571.953125 L 726.132812 571.953125 Z M 726.132812 392.882812 "/>
</g>
</svg>
