<?xml version="1.0" encoding="utf-8"?>
<svg width="900" height="900" viewBox="0 0 900 900" fill="none" xmlns="http://www.w3.org/2000/svg">
  <g>
    <path d="M0 187.614C0 83.9989 83.9994 0 187.615 0C187.615 0 712.385 0 712.385 0C816.001 0 900 83.9989 900 187.614C900 187.614 900 712.381 900 712.381C900 815.996 816.001 899.995 712.385 899.995C712.385 899.995 187.615 899.995 187.615 899.995C83.9994 899.995 0 815.996 0 712.381C0 712.381 0 187.614 0 187.614ZM0 187.5L0 187.5Z" fill="#2196F3" fill-rule="evenodd" />
    <path d="M0 0L249.877 0L249.877 499.751L0 499.751L0 0ZM249.877 499.777L499.755 249.902L499.755 499.777L249.877 499.777ZM499.755 93.734C456.353 77.6201 422.16 43.4274 406.046 0.026062C389.937 43.4014 355.718 77.6201 312.343 93.734C355.718 109.869 389.911 144.061 406.046 187.437C422.16 144.061 456.379 109.843 499.755 93.734ZM503.35 93.6771L503.35 93.6771Z" fill="#FFFFFF" fill-rule="evenodd" transform="translate(206.377 200.123)" />
  </g>
</svg>