<svg width="900" height="900" viewBox="0 0 900 900" fill="none" xmlns="http://www.w3.org/2000/svg">
<path d="M0 150C0 67.1573 67.1573 0 150 0H750C832.843 0 900 67.1573 900 150V750C900 832.843 832.843 900 750 900H150C67.1573 900 0 832.843 0 750V150Z" fill="#E60023"/>
<path d="M449.999 150C284.315 150 150 284.315 150 450C150 577.095 229.075 685.744 340.672 729.456C338.05 705.72 335.679 669.216 341.712 643.304C347.164 619.89 376.89 494.184 376.89 494.184C376.89 494.184 367.917 476.212 367.917 449.643C367.917 407.928 392.095 376.785 422.2 376.785C447.795 376.785 460.158 396.001 460.158 419.044C460.158 444.784 443.77 483.268 435.313 518.931C428.245 548.79 450.286 573.141 479.737 573.141C533.057 573.141 574.044 516.919 574.044 435.764C574.044 363.934 522.431 313.712 448.732 313.712C363.372 313.712 313.269 377.737 313.269 443.904C313.269 469.688 323.202 497.337 335.596 512.367C338.048 515.338 338.407 517.94 337.676 520.972C335.399 530.447 330.338 550.824 329.345 554.995C328.036 560.486 324.997 561.652 319.311 559.005C281.843 541.565 258.417 486.784 258.417 442.785C258.417 348.151 327.176 261.241 456.639 261.241C560.708 261.241 641.583 335.4 641.583 434.507C641.583 537.898 576.393 621.107 485.91 621.107C455.51 621.107 426.932 605.314 417.149 586.659C417.149 586.659 402.106 643.938 398.46 657.975C391.687 684.033 373.403 716.695 361.174 736.622C389.243 745.313 419.072 750 449.999 750C615.685 750 750 615.685 750 450C750 284.315 615.685 150 449.999 150Z" fill="white"/>
</svg>
