<svg width="75" height="75" viewBox="0 0 75 75" fill="none" xmlns="http://www.w3.org/2000/svg">
<path d="M0 18.75C0 8.39466 8.3947 0 18.75 0H56.25C66.605 0 75 8.39466 75 18.75V56.25C75 66.6053 66.605 75 56.25 75H18.75C8.3947 75 0 66.6053 0 56.25V18.75Z" fill="#1868DB"/>
<mask id="mask0_4114_4840" style="mask-type:luminance" maskUnits="userSpaceOnUse" x="18" y="19" width="39" height="38">
<path d="M56.7512 19.043H18.0664V56.0274H56.7512V19.043Z" fill="white"/>
</mask>
<g mask="url(#mask0_4114_4840)">
<path d="M54.281 44.5783C42.708 38.9824 39.327 38.1462 34.451 38.1462C28.729 38.1462 23.8529 40.5261 19.4968 47.2154L18.7816 48.3089C18.1964 49.2094 18.0664 49.531 18.0664 49.9169C18.0664 50.3028 18.2615 50.6244 18.9766 51.0747L26.3235 55.6414C26.7136 55.8987 27.0387 56.0273 27.364 56.0273C27.754 56.0273 28.014 55.8344 28.404 55.2555L29.574 53.4545C31.395 50.6887 33.02 49.7882 35.101 49.7882C36.921 49.7882 39.067 50.3028 41.732 51.5892L49.404 55.1912C50.185 55.5771 51.03 55.3841 51.42 54.4836L55.061 46.5079C55.451 45.6074 55.191 45.0285 54.281 44.5783ZM20.537 30.492C32.11 36.0879 35.491 36.9241 40.367 36.9241C46.089 36.9241 50.965 34.5442 55.321 27.8549L56.036 26.7614C56.621 25.861 56.751 25.5394 56.751 25.1534C56.751 24.7675 56.556 24.4459 55.841 23.9957L48.494 19.4289C48.104 19.1716 47.779 19.043 47.454 19.043C47.064 19.043 46.804 19.2359 46.414 19.8148L45.243 21.6158C43.423 24.3816 41.797 25.2821 39.717 25.2821C37.896 25.2821 35.751 24.7675 33.085 23.4811L25.4133 19.8791C24.6331 19.4932 23.7879 19.6862 23.3978 20.5867L19.7568 28.5624C19.3667 29.4629 19.6268 30.0418 20.537 30.492Z" fill="white"/>
</g>
</svg>
