<svg width="900" height="900" viewBox="0 0 900 900" fill="none" xmlns="http://www.w3.org/2000/svg">
<g clip-path="url(#clip0_25_99)">
<path d="M0 150C0 67.1573 67.1573 0 150 0H750C832.843 0 900 67.1573 900 150V750C900 832.843 832.843 900 750 900H150C67.1573 900 0 832.843 0 750V150Z" fill="#5865F2"/>
<path d="M657.925 259.245C619.026 241.389 577.974 228.656 535.797 221.365C535.414 221.293 535.018 221.344 534.666 221.511C534.314 221.677 534.023 221.951 533.835 222.292C528.56 231.675 522.717 243.912 518.627 253.53C472.51 246.625 426.627 246.625 381.457 253.53C377.367 243.697 371.312 231.675 366.015 222.292C365.819 221.959 365.527 221.692 365.176 221.527C364.826 221.362 364.435 221.306 364.052 221.367C321.872 228.641 280.817 241.373 241.922 259.242C241.59 259.384 241.309 259.626 241.12 259.935C163.335 376.145 142.025 489.497 152.48 601.445C152.51 601.719 152.594 601.984 152.728 602.225C152.862 602.466 153.043 602.677 153.26 602.847C204.58 640.537 254.292 663.417 303.082 678.582C303.462 678.695 303.867 678.69 304.243 678.567C304.619 678.443 304.949 678.208 305.187 677.892C316.727 662.132 327.015 645.512 335.837 628.037C335.959 627.798 336.028 627.536 336.041 627.268C336.053 627 336.009 626.732 335.911 626.482C335.812 626.233 335.662 626.007 335.471 625.819C335.279 625.632 335.049 625.487 334.797 625.395C318.477 619.205 302.94 611.657 287.992 603.087C287.72 602.927 287.491 602.702 287.326 602.433C287.161 602.163 287.064 601.857 287.046 601.542C287.027 601.226 287.086 600.911 287.218 600.624C287.35 600.336 287.551 600.086 287.802 599.895C290.947 597.537 294.095 595.087 297.097 592.61C297.364 592.39 297.687 592.248 298.03 592.202C298.373 592.156 298.722 592.206 299.037 592.347C397.232 637.18 503.537 637.18 600.572 592.347C600.888 592.197 601.241 592.139 601.588 592.181C601.936 592.223 602.264 592.363 602.535 592.585C605.54 595.06 608.685 597.537 611.855 599.895C612.107 600.084 612.309 600.333 612.443 600.618C612.577 600.904 612.638 601.219 612.622 601.534C612.605 601.849 612.512 602.155 612.349 602.425C612.187 602.696 611.96 602.922 611.69 603.085C596.737 611.818 581.073 619.273 564.865 625.37C564.613 625.466 564.385 625.614 564.194 625.805C564.004 625.995 563.856 626.224 563.76 626.476C563.664 626.728 563.622 626.997 563.637 627.266C563.652 627.535 563.724 627.798 563.847 628.037C572.857 645.487 583.145 662.107 594.472 677.867C594.704 678.192 595.032 678.436 595.409 678.565C595.787 678.693 596.196 678.699 596.577 678.582C645.602 663.415 695.315 640.535 746.635 602.847C746.856 602.686 747.04 602.48 747.175 602.242C747.31 602.004 747.393 601.74 747.417 601.467C759.927 472.042 726.462 359.62 658.705 259.957C658.539 259.633 658.262 259.382 657.925 259.245ZM350.5 533.28C320.937 533.28 296.577 506.137 296.577 472.805C296.577 439.475 320.465 412.332 350.502 412.332C380.772 412.332 404.895 439.712 404.422 472.807C404.422 506.137 380.535 533.28 350.5 533.28ZM549.87 533.28C520.307 533.28 495.947 506.137 495.947 472.805C495.947 439.475 519.832 412.332 549.87 412.332C580.14 412.332 604.262 439.712 603.79 472.807C603.79 506.137 580.14 533.28 549.87 533.28Z" fill="white"/>
</g>
<defs>
<clipPath id="clip0_25_99">
<rect width="900" height="900" fill="white"/>
</clipPath>
</defs>
</svg>
