<svg width="75" height="75" viewBox="0 0 75 75" fill="none" xmlns="http://www.w3.org/2000/svg">
<path d="M0 18.75C0 8.39466 8.3947 0 18.75 0H56.25C66.6053 0 75 8.39466 75 18.75V56.25C75 66.6053 66.6053 75 56.25 75H18.75C8.3947 75 0 66.6053 0 56.25V18.75Z" fill="#1868DB"/>
<mask id="mask0_4114_4881" style="mask-type:luminance" maskUnits="userSpaceOnUse" x="12" y="16" width="49" height="48">
<path d="M60.0493 16.2346H12.8711V63.7785H60.0493V16.2346Z" fill="white"/>
</mask>
<g mask="url(#mask0_4114_4881)">
<path d="M28.0429 48.5108H23.817C17.4434 48.5108 12.8711 44.6069 12.8711 38.8905H35.5942C36.772 38.8905 37.534 39.727 37.534 40.9122V63.7779C31.8532 63.7779 28.0429 59.1768 28.0429 52.7633V48.5108ZM39.266 37.1477H35.04C28.6664 37.1477 24.0941 33.3135 24.0941 27.5971H46.8172C47.995 27.5971 48.8263 28.3639 48.8263 29.549V52.4147C43.1455 52.4147 39.266 47.8137 39.266 41.4002V37.1477ZM50.5582 25.8543H46.3323C39.9587 25.8543 35.3864 21.9504 35.3864 16.2339H58.1095C59.2873 16.2339 60.0493 17.0705 60.0493 18.1859V41.0516C54.3685 41.0516 50.5582 36.4506 50.5582 30.037V25.8543Z" fill="white"/>
</g>
</svg>
