<svg width="900" height="900" viewBox="0 0 900 900" fill="none" xmlns="http://www.w3.org/2000/svg">
<g clip-path="url(#clip0_49_515)">
<path d="M0 150C0 67.1573 67.1573 0 150 0H750C832.843 0 900 67.1573 900 150V750C900 832.843 832.843 900 750 900H150C67.1573 900 0 832.843 0 750V150Z" fill="#FFDD00"/>
<path fill-rule="evenodd" clip-rule="evenodd" d="M598.267 171.694H516.646L584.763 291.301L434.991 171.694H353.37L428.256 317.783L271.75 171.694H190.129L271.75 357.804L190.129 729.99H271.75L428.256 331.323L353.37 729.99H434.991L584.763 304.63L516.646 729.99H598.267L748.039 264.82L598.267 171.87V171.694Z" fill="#020504"/>
</g>
<defs>
<clipPath id="clip0_49_515">
<rect width="900" height="900" fill="white"/>
</clipPath>
</defs>
</svg>
