<svg width="1000" height="1000" viewBox="0 0 1000 1000" fill="none" xmlns="http://www.w3.org/2000/svg">
<g clip-path="url(#clip0_4_45)">
<path d="M500 364.4L1000 250V39.6C1000 17.6 982.4 0 960.4 0H250L0 250L500 364.4Z" fill="#FEE200"/>
<path d="M250 250H0V620.4L309.6 492.4L250 250Z" fill="url(#paint0_linear_4_45)"/>
<path d="M590.8 566.8L250 506V250H1000V502.8L590.8 566.8Z" fill="url(#paint1_linear_4_45)"/>
<path d="M690.4 797.6L195.2 751.6V500H1000V750L690.4 797.6Z" fill="url(#paint2_linear_4_45)"/>
<path d="M250 500H0V833.2L250 750V500Z" fill="url(#paint3_linear_4_45)"/>
<path d="M1000 750L750 1000H250L211.6 869.2L250 750H1000Z" fill="url(#paint4_linear_4_45)"/>
<path d="M0 750V944.8C0 975.2 24.8 999.6 55.2 999.6H250V749.6H0V750Z" fill="url(#paint5_linear_4_45)"/>
</g>
<defs>
<linearGradient id="paint0_linear_4_45" x1="154.8" y1="250" x2="154.8" y2="491.614" gradientUnits="userSpaceOnUse">
<stop stop-color="#DE4A01"/>
<stop offset="1" stop-color="#E15900"/>
</linearGradient>
<linearGradient id="paint1_linear_4_45" x1="625" y1="474.609" x2="625" y2="272.728" gradientUnits="userSpaceOnUse">
<stop stop-color="#F08B09"/>
<stop offset="1" stop-color="#EB770A"/>
</linearGradient>
<linearGradient id="paint2_linear_4_45" x1="597.6" y1="797.6" x2="597.6" y2="500" gradientUnits="userSpaceOnUse">
<stop stop-color="#D73A00"/>
<stop offset="1" stop-color="#CD2901"/>
</linearGradient>
<linearGradient id="paint3_linear_4_45" x1="125" y1="733.61" x2="125" y2="514.363" gradientUnits="userSpaceOnUse">
<stop stop-color="#BE3106"/>
<stop offset="1" stop-color="#AD3007"/>
</linearGradient>
<linearGradient id="paint4_linear_4_45" x1="605.8" y1="1000" x2="605.8" y2="750" gradientUnits="userSpaceOnUse">
<stop stop-color="#844980"/>
<stop offset="1" stop-color="#703F6C"/>
</linearGradient>
<linearGradient id="paint5_linear_4_45" x1="125" y1="999.6" x2="125" y2="749.6" gradientUnits="userSpaceOnUse">
<stop stop-color="#6F3C6D"/>
<stop offset="1" stop-color="#663764"/>
</linearGradient>
<clipPath id="clip0_4_45">
<rect width="1000" height="1000" fill="white"/>
</clipPath>
</defs>
</svg>
