<svg width="853" height="900" viewBox="0 0 853 900" fill="none" xmlns="http://www.w3.org/2000/svg">
<g clip-path="url(#clip0_1_53)">
<path d="M426.316 378.947H710.526C789.009 378.947 852.632 442.57 852.632 521.053V757.895C852.632 836.377 789.009 900 710.526 900C632.044 900 568.421 836.377 568.421 757.895V521.053C568.421 442.57 504.798 378.947 426.316 378.947Z" fill="url(#paint0_radial_1_53)"/>
<path d="M94.7368 473.684C94.7368 395.202 158.36 331.579 236.843 331.579H426.316C504.799 331.579 568.422 395.202 568.422 473.684V757.895C568.422 836.377 632.044 900 710.527 900L331.577 899.998C200.774 899.998 94.7368 793.961 94.7368 663.156V473.684Z" fill="url(#paint1_radial_1_53)"/>
<path d="M94.7368 473.684C94.7368 395.202 158.36 331.579 236.843 331.579H426.316C504.799 331.579 568.422 395.202 568.422 473.684V757.895C568.422 836.377 632.044 900 710.527 900L331.577 899.998C200.774 899.998 94.7368 793.961 94.7368 663.156V473.684Z" fill="url(#paint2_linear_1_53)" fill-opacity="0.7"/>
<path d="M94.7368 473.684C94.7368 395.202 158.36 331.579 236.843 331.579H426.316C504.799 331.579 568.422 395.202 568.422 473.684V757.895C568.422 836.377 632.044 900 710.527 900L331.577 899.998C200.774 899.998 94.7368 793.961 94.7368 663.156V473.684Z" fill="url(#paint3_radial_1_53)" fill-opacity="0.7"/>
<path d="M686.842 331.579C752.244 331.579 805.263 278.559 805.263 213.158C805.263 147.756 752.244 94.7368 686.842 94.7368C621.441 94.7368 568.421 147.756 568.421 213.158C568.421 278.559 621.441 331.579 686.842 331.579Z" fill="url(#paint4_radial_1_53)"/>
<path d="M686.842 331.579C752.244 331.579 805.263 278.559 805.263 213.158C805.263 147.756 752.244 94.7368 686.842 94.7368C621.441 94.7368 568.421 147.756 568.421 213.158C568.421 278.559 621.441 331.579 686.842 331.579Z" fill="url(#paint5_radial_1_53)" fill-opacity="0.46"/>
<path d="M686.842 331.579C752.244 331.579 805.263 278.559 805.263 213.158C805.263 147.756 752.244 94.7368 686.842 94.7368C621.441 94.7368 568.421 147.756 568.421 213.158C568.421 278.559 621.441 331.579 686.842 331.579Z" fill="url(#paint6_radial_1_53)" fill-opacity="0.4"/>
<path d="M331.579 284.211C410.061 284.211 473.684 220.588 473.684 142.105C473.684 63.6227 410.061 0 331.579 0C253.097 0 189.474 63.6227 189.474 142.105C189.474 220.588 253.097 284.211 331.579 284.211Z" fill="url(#paint7_radial_1_53)"/>
<path d="M331.579 284.211C410.061 284.211 473.684 220.588 473.684 142.105C473.684 63.6227 410.061 0 331.579 0C253.097 0 189.474 63.6227 189.474 142.105C189.474 220.588 253.097 284.211 331.579 284.211Z" fill="url(#paint8_radial_1_53)" fill-opacity="0.6"/>
<path d="M331.579 284.211C410.061 284.211 473.684 220.588 473.684 142.105C473.684 63.6227 410.061 0 331.579 0C253.097 0 189.474 63.6227 189.474 142.105C189.474 220.588 253.097 284.211 331.579 284.211Z" fill="url(#paint9_radial_1_53)" fill-opacity="0.5"/>
<path d="M301.974 450H76.9737C34.4623 450 0 484.462 0 526.974V751.974C0 794.485 34.4623 828.947 76.9737 828.947H301.974C344.485 828.947 378.947 794.485 378.947 751.974V526.974C378.947 484.462 344.485 450 301.974 450Z" fill="url(#paint10_radial_1_53)"/>
<path d="M301.974 450H76.9737C34.4623 450 0 484.462 0 526.974V751.974C0 794.485 34.4623 828.947 76.9737 828.947H301.974C344.485 828.947 378.947 794.485 378.947 751.974V526.974C378.947 484.462 344.485 450 301.974 450Z" fill="url(#paint11_radial_1_53)" fill-opacity="0.7"/>
<path d="M271.873 570.917H213.915V747.743H165.012V570.917H107.053V531.203H271.873V570.917Z" fill="white"/>
</g>
<defs>
<radialGradient id="paint0_radial_1_53" cx="0" cy="0" r="1" gradientUnits="userSpaceOnUse" gradientTransform="translate(847.819 430.434) scale(319.225 787.959)">
<stop stop-color="#A98AFF"/>
<stop offset="0.14" stop-color="#8C75FF"/>
<stop offset="0.565" stop-color="#5F50E2"/>
<stop offset="0.9" stop-color="#3C2CB8"/>
</radialGradient>
<radialGradient id="paint1_radial_1_53" cx="0" cy="0" r="1" gradientUnits="userSpaceOnUse" gradientTransform="translate(113.98 293.684) rotate(68.1539) scale(775.705 784.495)">
<stop stop-color="#85C2FF"/>
<stop offset="0.69" stop-color="#7588FF"/>
<stop offset="1" stop-color="#6459FE"/>
</radialGradient>
<linearGradient id="paint2_linear_1_53" x1="393.009" y1="331.579" x2="393.009" y2="900" gradientUnits="userSpaceOnUse">
<stop offset="0.801159" stop-color="#6864F6" stop-opacity="0"/>
<stop offset="1" stop-color="#5149DE"/>
</linearGradient>
<radialGradient id="paint3_radial_1_53" cx="0" cy="0" r="1" gradientUnits="userSpaceOnUse" gradientTransform="translate(556.579 312.632) rotate(113.326) scale(455.177 365.383)">
<stop stop-color="#BD96FF"/>
<stop offset="0.686685" stop-color="#BD96FF" stop-opacity="0"/>
</radialGradient>
<radialGradient id="paint4_radial_1_53" cx="0" cy="0" r="1" gradientUnits="userSpaceOnUse" gradientTransform="translate(686.842 179.323) rotate(-90) scale(236.842 298.933)">
<stop offset="0.268201" stop-color="#6868F7"/>
<stop offset="1" stop-color="#3923B1"/>
</radialGradient>
<radialGradient id="paint5_radial_1_53" cx="0" cy="0" r="1" gradientUnits="userSpaceOnUse" gradientTransform="translate(588.97 154.989) rotate(40.0516) scale(169.254 244.807)">
<stop offset="0.270711" stop-color="#A1D3FF"/>
<stop offset="0.813393" stop-color="#A1D3FF" stop-opacity="0"/>
</radialGradient>
<radialGradient id="paint6_radial_1_53" cx="0" cy="0" r="1" gradientUnits="userSpaceOnUse" gradientTransform="translate(781.158 150.835) rotate(-41.6581) scale(201.618 494.583)">
<stop stop-color="#E3ACFD"/>
<stop offset="0.816041" stop-color="#9FA2FF" stop-opacity="0"/>
</radialGradient>
<radialGradient id="paint7_radial_1_53" cx="0" cy="0" r="1" gradientUnits="userSpaceOnUse" gradientTransform="translate(331.579 101.504) rotate(-90) scale(284.211 358.721)">
<stop offset="0.268201" stop-color="#8282FF"/>
<stop offset="1" stop-color="#3923B1"/>
</radialGradient>
<radialGradient id="paint8_radial_1_53" cx="0" cy="0" r="1" gradientUnits="userSpaceOnUse" gradientTransform="translate(214.134 72.3041) rotate(40.0516) scale(203.105 293.767)">
<stop offset="0.270711" stop-color="#A1D3FF"/>
<stop offset="0.813393" stop-color="#A1D3FF" stop-opacity="0"/>
</radialGradient>
<radialGradient id="paint9_radial_1_53" cx="0" cy="0" r="1" gradientUnits="userSpaceOnUse" gradientTransform="translate(444.759 67.3176) rotate(-41.6581) scale(241.941 593.5)">
<stop stop-color="#E3ACFD"/>
<stop offset="0.816041" stop-color="#9FA2FF" stop-opacity="0"/>
</radialGradient>
<radialGradient id="paint10_radial_1_53" cx="0" cy="0" r="1" gradientUnits="userSpaceOnUse" gradientTransform="translate(0 450) rotate(45) scale(535.912)">
<stop offset="0.046875" stop-color="#688EFF"/>
<stop offset="0.946875" stop-color="#230F94"/>
</radialGradient>
<radialGradient id="paint11_radial_1_53" cx="0" cy="0" r="1" gradientUnits="userSpaceOnUse" gradientTransform="translate(189.474 677.368) rotate(90) scale(265.263 309.557)">
<stop offset="0.570647" stop-color="#6965F6" stop-opacity="0"/>
<stop offset="1" stop-color="#8F8FFF"/>
</radialGradient>
<clipPath id="clip0_1_53">
<rect width="852.632" height="900" fill="white"/>
</clipPath>
</defs>
</svg>
