<svg width="900" height="900" viewBox="0 0 900 900" fill="none" xmlns="http://www.w3.org/2000/svg">
<path d="M341.967 13.1371L352.067 54.0491C312.259 63.8874 274.159 79.6618 239.047 100.842L217.441 64.6606C256.089 41.2557 298.08 23.8815 341.967 13.1371V13.1371ZM558.033 13.1371L547.933 54.0491C587.741 63.8874 625.841 79.6618 660.953 100.842L682.815 64.6606C644.065 41.2763 601.993 23.9042 558.033 13.1371V13.1371ZM64.6601 217.314C41.277 256.018 23.9046 298.048 13.1365 341.967L54.0485 352.067C63.8869 312.26 79.6613 274.16 100.842 239.048L64.6601 217.314ZM42.1585 450.001C42.1554 429.543 43.6939 409.114 46.7611 388.888L5.08197 382.496C-1.69399 427.201 -1.69399 472.672 5.08197 517.378L46.7611 511.113C43.6987 490.886 42.1602 470.458 42.1585 450.001V450.001ZM682.559 835.213L660.953 799.159C625.896 820.359 587.835 836.135 548.061 845.952L558.161 886.864C601.994 876.016 643.934 858.602 682.559 835.213ZM857.842 450.001C857.84 470.458 856.301 490.886 853.239 511.113L894.918 517.378C901.694 472.672 901.694 427.201 894.918 382.496L853.239 388.888C856.306 409.114 857.845 429.543 857.842 450.001V450.001ZM886.864 557.906L845.952 547.806C836.136 587.661 820.361 625.807 799.158 660.953L835.34 682.688C858.746 643.948 876.119 601.873 886.864 557.906V557.906ZM511.112 853.239C470.602 859.377 429.398 859.377 388.888 853.239L382.623 894.919C427.285 901.695 472.715 901.695 517.377 894.919L511.112 853.239ZM778.319 691.893C754.018 724.846 724.881 753.94 691.892 778.191L716.951 812.2C753.287 785.451 785.432 753.435 812.327 717.207L778.319 691.893ZM691.892 121.682C724.884 145.98 754.021 175.117 778.319 208.108L812.327 182.794C785.527 146.533 753.467 114.474 717.207 87.6736L691.892 121.682ZM121.681 208.108C145.979 175.117 175.116 145.98 208.108 121.682L182.793 87.6736C146.533 114.474 114.473 146.533 87.6731 182.794L121.681 208.108ZM835.34 217.314L799.158 239.048C820.358 274.104 836.134 312.165 845.952 351.94L886.864 341.839C876.094 297.961 858.722 255.973 835.34 217.314V217.314ZM388.888 46.7616C429.398 40.6241 470.602 40.6241 511.112 46.7616L517.377 5.08251C472.715 -1.69417 427.285 -1.69417 382.623 5.08251L388.888 46.7616ZM143.288 823.45L56.222 843.651L76.5501 756.585L35.5103 746.996L15.1821 834.062C13.9102 839.46 13.715 845.056 14.6077 850.529C15.5004 856.003 17.4634 861.247 20.3846 865.961C23.3057 870.675 27.1276 874.767 31.6316 878.003C36.1356 881.238 41.2333 883.555 46.6332 884.818C52.9484 886.225 59.4956 886.225 65.8107 884.818L152.877 864.746L143.288 823.45ZM44.2041 709.408L85.3718 718.869L99.4353 658.524C78.8979 624.074 63.6014 586.759 54.0485 547.806L13.1365 557.906C22.3389 595.192 36.259 631.152 54.5599 664.916L44.2041 709.408ZM241.093 800.693L180.748 814.757L190.337 855.924L234.701 845.568C268.439 863.924 304.407 877.847 341.711 886.992L351.811 846.08C312.98 836.402 275.797 821.021 241.477 800.437L241.093 800.693ZM450 84.3495C247.997 84.4774 84.4768 248.253 84.4768 450.128C84.5881 518.888 104.037 586.23 140.603 644.46L105.444 794.556L255.412 759.398C426.348 866.919 652.131 815.652 759.653 644.844C867.175 474.036 816.035 248.253 645.227 140.604C586.752 103.831 519.076 84.3308 450 84.3495" fill="#3A76F0"/>
</svg>
