<svg width="900" height="900" viewBox="0 0 900 900" fill="none" xmlns="http://www.w3.org/2000/svg">
<g clip-path="url(#clip0_25_51)">
<path d="M0 150C0 67.1573 67.1573 0 150 0H750C832.843 0 900 67.1573 900 150V750C900 832.843 832.843 900 750 900H150C67.1573 900 0 832.843 0 750V150Z" fill="url(#paint0_linear_25_51)"/>
<path d="M683.809 224.607C688.419 224.517 698.587 225.7 705.212 231.086C709.613 234.914 712.422 240.27 713.08 246.068C713.816 250.362 714.715 260.162 713.979 267.799C705.69 355.245 669.715 567.35 651.391 665.247C643.656 706.71 628.401 720.554 613.622 721.89C581.585 724.881 557.237 700.723 526.169 680.364C477.549 648.437 450.029 628.59 402.836 597.446C348.287 561.517 383.631 541.683 414.706 509.444C422.855 500.967 564.233 372.27 566.995 360.614C567.316 359.124 567.637 353.702 564.432 350.851C561.214 347.999 556.419 348.989 552.967 349.772C548.086 350.877 470.389 402.28 319.924 503.865C297.829 519.064 277.895 526.414 259.988 525.956C240.282 525.587 202.333 514.878 174.109 505.71C139.488 494.423 112.008 488.473 114.398 469.357C115.641 459.408 129.352 449.218 155.494 438.808C316.532 368.605 423.916 322.314 477.699 299.967C631.111 236.113 663.044 224.976 683.809 224.607Z" fill="white"/>
</g>
<defs>
<linearGradient id="paint0_linear_25_51" x1="450" y1="0" x2="450" y2="893.325" gradientUnits="userSpaceOnUse">
<stop stop-color="#2AABEE"/>
<stop offset="1" stop-color="#229ED9"/>
</linearGradient>
<clipPath id="clip0_25_51">
<rect width="900" height="900" fill="white"/>
</clipPath>
</defs>
</svg>
