<svg width="75" height="75" viewBox="0 0 75 75" fill="none" xmlns="http://www.w3.org/2000/svg">
<path d="M0 18.75C0 8.39466 8.3947 0 18.75 0H56.25C66.6053 0 75 8.39466 75 18.75V56.25C75 66.6053 66.6053 75 56.25 75H18.75C8.3947 75 0 66.6053 0 56.25V18.75Z" fill="#1558BC"/>
<path d="M30.2274 56.25C31.6856 56.25 32.869 55.0984 32.869 53.6748V21.3252C32.869 19.9036 31.6877 18.75 30.2274 18.75H19.0478C17.5896 18.75 16.4062 19.9016 16.4062 21.3252V53.6748C16.4062 55.0964 17.5876 56.25 19.0478 56.25H30.2274Z" fill="white"/>
<path d="M55.9522 41.3988C57.4104 41.3988 58.5938 40.2471 58.5938 38.8236V21.3252C58.5938 19.9036 57.4124 18.75 55.9522 18.75H44.7726C43.3144 18.75 42.131 19.9016 42.131 21.3252V38.8236C42.131 40.2451 43.3123 41.3988 44.7726 41.3988H55.9522Z" fill="white"/>
</svg>
