<svg width="900" height="900" viewBox="0 0 900 900" fill="none" xmlns="http://www.w3.org/2000/svg">
<g clip-path="url(#clip0_18_201)">
<path d="M0 150C0 67.1573 67.1573 0 150 0H750C832.843 0 900 67.1573 900 150V750C900 832.843 832.843 900 750 900H150C67.1573 900 0 832.843 0 750V150Z" fill="#25D366"/>
<path d="M586.8 509.551C579.375 505.826 542.85 487.876 536.05 485.376C529.225 482.901 524.275 481.676 519.3 489.126C514.375 496.551 500.125 513.276 495.8 518.226C491.475 523.201 487.125 523.801 479.7 520.101C472.275 516.351 448.325 508.526 419.95 483.226C397.875 463.526 382.95 439.201 378.625 431.751C374.3 424.326 378.175 420.301 381.875 416.601C385.225 413.276 389.325 407.926 393.025 403.601C396.75 399.251 397.975 396.151 400.475 391.176C402.95 386.226 401.725 381.901 399.85 378.176C397.975 374.451 383.125 337.876 376.95 323.001C370.9 308.526 364.775 310.501 360.225 310.251C355.9 310.051 350.95 310.001 345.975 310.001C341.025 310.001 332.975 311.851 326.175 319.301C319.375 326.726 300.175 344.701 300.175 381.276C300.175 417.826 326.8 453.151 330.5 458.126C334.225 463.076 382.9 538.126 457.425 570.301C475.15 577.951 488.975 582.526 499.775 585.926C517.575 591.601 533.775 590.801 546.55 588.876C560.825 586.751 590.5 570.901 596.7 553.551C602.9 536.201 602.9 521.326 601.025 518.226C599.175 515.126 594.25 513.276 586.8 509.551ZM451.25 694.626H451.15C406.894 694.63 363.452 682.731 325.375 660.176L316.35 654.826L222.825 679.376L247.775 588.176L241.9 578.826C217.161 539.433 204.074 493.843 204.15 447.326C204.175 311.076 315.05 200.226 451.35 200.226C517.35 200.226 579.4 225.976 626.05 272.676C649.067 295.591 667.311 322.844 679.725 352.857C692.14 382.87 698.479 415.047 698.375 447.526C698.3 583.776 587.45 694.626 451.25 694.626ZM661.575 237.201C634.03 209.474 601.256 187.489 565.152 172.521C529.049 157.553 490.333 149.898 451.25 150.001C287.375 150.001 154 283.376 153.925 447.301C153.925 499.701 167.6 550.851 193.625 595.926L151.425 750.001L309.05 708.651C352.64 732.399 401.486 744.845 451.125 744.851H451.25C615.1 744.851 748.5 611.476 748.575 447.526C748.696 408.458 741.069 369.754 726.136 333.652C711.203 297.55 689.259 264.768 661.575 237.201Z" fill="white"/>
</g>
<defs>
<clipPath id="clip0_18_201">
<rect width="900" height="900" fill="white"/>
</clipPath>
</defs>
</svg>
