<?xml version="1.0" encoding="UTF-8"?>
<svg xmlns="http://www.w3.org/2000/svg" xmlns:xlink="http://www.w3.org/1999/xlink" width="900px" height="px" viewBox="0 0 900 1242" version="1.1">
<g id="surface1">
<path style=" stroke:none;fill-rule:evenodd;fill:rgb(82.745099%,21.960784%,20%);fill-opacity:1;" d="M 884.65625 598.789062 C 884.65625 844.742188 689.648438 1044.132812 449.09375 1044.132812 C 208.542969 1044.132812 13.535156 844.742188 13.535156 598.789062 C 13.535156 352.824219 208.542969 153.433594 449.09375 153.433594 C 689.648438 153.433594 884.65625 352.824219 884.65625 598.789062 "/>
<path style=" stroke:none;fill-rule:nonzero;fill:rgb(93.725491%,23.921569%,22.745098%);fill-opacity:1;" d="M 31.28125 709.085938 C 31.28125 709.085938 -0.25 244.664062 427.851562 231.390625 L 397.984375 181.632812 L 165.6875 259.589844 L 99.3125 335.886719 L 41.238281 447.019531 L 8.050781 576.394531 L 18.007812 662.644531 "/>
<path style=" stroke:none;fill-rule:nonzero;fill:rgb(13.725491%,12.156863%,12.54902%);fill-opacity:1;" d="M 150.769531 294.980469 C 74.351562 373.140625 27.0625 481.0625 27.0625 600.449219 C 27.0625 719.8125 74.351562 827.746094 150.769531 905.894531 C 227.230469 984.042969 332.597656 1032.261719 449.089844 1032.261719 C 565.582031 1032.261719 670.957031 984.042969 747.40625 905.894531 C 823.824219 827.746094 871.125 719.8125 871.125 600.449219 C 871.125 481.0625 823.824219 373.140625 747.40625 294.980469 C 670.957031 216.847656 565.582031 168.625 449.089844 168.617188 C 332.597656 168.625 227.230469 216.847656 150.769531 294.980469 Z M 131.425781 924.796875 C 50.210938 841.769531 0 727.023438 0 600.449219 C 0 473.855469 50.210938 359.121094 131.425781 276.085938 C 212.625 193.039062 325.023438 141.5625 449.089844 141.574219 C 573.152344 141.5625 685.5625 193.039062 766.746094 276.085938 C 847.972656 359.121094 898.1875 473.867188 898.179688 600.449219 C 898.1875 727.023438 847.972656 841.769531 766.746094 924.796875 C 685.5625 1007.84375 573.152344 1059.3125 449.089844 1059.3125 C 325.023438 1059.3125 212.625 1007.84375 131.425781 924.796875 "/>
<path style=" stroke:none;fill-rule:evenodd;fill:rgb(94.117647%,83.92157%,71.764708%);fill-opacity:1;" d="M 632.445312 601.253906 L 566.070312 611.207031 L 476.464844 621.160156 L 418.386719 622.816406 L 361.976562 621.160156 L 318.832031 607.886719 L 280.667969 566.421875 L 250.800781 481.832031 L 244.164062 463.585938 L 204.339844 450.320312 L 181.109375 412.167969 L 164.515625 357.433594 L 182.773438 309.332031 L 225.910156 294.402344 L 260.753906 310.992188 L 277.351562 347.480469 L 297.261719 344.164062 L 303.898438 335.871094 L 297.261719 297.722656 L 295.601562 249.617188 L 305.554688 183.273438 L 305.167969 145.378906 L 335.421875 97.027344 L 388.519531 58.875 L 481.445312 19.066406 L 584.316406 33.996094 L 673.917969 98.683594 L 715.40625 165.027344 L 741.953125 213.128906 L 748.589844 332.554688 L 728.675781 435.390625 L 692.171875 526.617188 L 657.328125 574.71875 "/>
<path style=" stroke:none;fill-rule:evenodd;fill:rgb(20%,31.37255%,38.039216%);fill-opacity:1;" d="M 576.023438 888.199219 L 338.742188 898.152344 L 338.742188 937.957031 L 358.652344 1077.285156 L 348.699219 1088.898438 L 182.773438 1032.503906 L 171.152344 1012.597656 L 154.5625 825.171875 L 116.402344 712.382812 L 108.105469 685.847656 L 240.84375 594.621094 L 282.328125 578.03125 L 318.832031 622.816406 L 350.355469 651.015625 L 386.863281 662.625 L 403.453125 667.601562 L 423.367188 753.847656 L 438.300781 772.09375 L 476.464844 758.824219 L 449.914062 810.246094 L 594.273438 878.246094 L 576.023438 888.199219 "/>
<path style=" stroke:none;fill-rule:evenodd;fill:rgb(42.745098%,41.960785%,42.745098%);fill-opacity:1;" d="M 182.773438 309.332031 L 225.910156 294.402344 L 260.753906 310.992188 L 277.351562 347.480469 L 297.261719 344.164062 L 302.242188 324.257812 L 292.285156 286.113281 L 302.242188 194.882812 L 293.941406 145.125 L 323.808594 110.292969 L 388.519531 58.875 L 370.269531 33.996094 L 279.007812 78.78125 L 240.84375 108.636719 L 219.273438 155.074219 L 186.085938 199.859375 L 176.132812 252.9375 L 182.773438 309.332031 "/>
<path style=" stroke:none;fill-rule:evenodd;fill:rgb(86.274511%,85.09804%,84.705883%);fill-opacity:1;" d="M 250.800781 153.417969 C 250.800781 153.417969 275.6875 92.050781 375.246094 62.195312 C 474.804688 32.339844 380.222656 40.628906 380.222656 40.628906 L 272.375 82.097656 L 230.886719 123.5625 L 212.640625 156.738281 L 250.800781 153.417969 "/>
<path style=" stroke:none;fill-rule:evenodd;fill:rgb(86.274511%,85.09804%,84.705883%);fill-opacity:1;" d="M 201.019531 297.722656 C 201.019531 297.722656 166.175781 181.613281 298.917969 165.027344 L 293.941406 145.125 L 202.683594 166.691406 L 176.132812 252.9375 L 182.773438 309.332031 L 201.019531 297.722656 "/>
<path style=" stroke:none;fill-rule:evenodd;fill:rgb(96.862745%,89.411765%,80.392158%);fill-opacity:1;" d="M 254.117188 451.976562 L 275.84375 430.933594 C 275.84375 430.933594 285.652344 432.074219 287.308594 443.679688 C 288.964844 455.296875 293.941406 559.789062 365.289062 616.1875 C 371.796875 621.332031 312.195312 607.886719 312.195312 607.886719 L 259.097656 524.957031 "/>
<path style=" stroke:none;fill-rule:evenodd;fill:rgb(96.862745%,89.411765%,80.392158%);fill-opacity:1;" d="M 559.4375 420.464844 C 559.4375 420.464844 563.304688 370.1875 576.851562 374.054688 C 590.394531 377.917969 590.394531 391.457031 590.394531 391.457031 C 590.394531 391.457031 557.503906 412.730469 559.4375 420.464844 "/>
<path style=" stroke:none;fill-rule:nonzero;fill:rgb(96.862745%,89.411765%,80.392158%);fill-opacity:1;" d="M 697.152344 236.351562 C 697.152344 236.351562 669.804688 242.125 667.285156 266.207031 C 664.765625 290.296875 697.152344 271.183594 702.128906 269.527344 "/>
<path style=" stroke:none;fill-rule:nonzero;fill:rgb(96.862745%,89.411765%,80.392158%);fill-opacity:1;" d="M 496.378906 238.015625 C 496.378906 238.015625 459.871094 242.992188 459.871094 266.207031 C 459.871094 289.433594 501.355469 287.773438 512.96875 277.824219 "/>
<path style=" stroke:none;fill-rule:evenodd;fill:rgb(96.862745%,89.411765%,80.392158%);fill-opacity:1;" d="M 270.710938 345.824219 C 270.710938 345.824219 207.65625 307.671875 201.019531 344.167969 C 194.382812 380.65625 179.445312 407.199219 210.976562 445.34375 L 189.40625 438.710938 L 169.496094 387.292969 L 162.859375 337.535156 L 201.019531 297.722656 L 244.164062 301.039062 L 269.050781 320.945312 L 270.710938 345.824219 "/>
<path style=" stroke:none;fill-rule:evenodd;fill:rgb(96.862745%,89.411765%,80.392158%);fill-opacity:1;" d="M 300.578125 241.328125 C 300.578125 241.328125 328.785156 95.371094 471.488281 67.171875 C 588.972656 43.957031 650.6875 72.144531 673.917969 98.683594 C 673.917969 98.683594 569.382812 -25.710938 469.824219 12.433594 C 370.269531 50.585938 297.261719 120.25 298.917969 165.027344 C 301.746094 241.300781 300.578125 241.328125 300.578125 241.328125 "/>
<path style=" stroke:none;fill-rule:evenodd;fill:rgb(96.862745%,89.411765%,80.392158%);fill-opacity:1;" d="M 685.539062 115.269531 C 685.539062 115.269531 637.421875 113.609375 635.757812 156.738281 C 635.757812 156.738281 635.753906 163.371094 639.074219 170.003906 C 639.074219 170.003906 677.246094 126.878906 700.472656 150.101562 "/>
<path style=" stroke:none;fill-rule:evenodd;fill:rgb(96.862745%,89.411765%,80.392158%);fill-opacity:1;" d="M 474.832031 174.496094 C 474.832031 174.496094 466.550781 108.300781 410.089844 146.785156 C 373.585938 171.664062 376.910156 206.496094 383.542969 213.128906 C 390.179688 219.769531 388.375 233.128906 393.425781 223.957031 C 398.476562 214.789062 396.8125 184.929688 415.070312 176.640625 C 433.320312 168.347656 463.242188 159.082031 474.832031 174.496094 "/>
<path style=" stroke:none;fill-rule:evenodd;fill:rgb(28.627452%,44.705883%,54.509807%);fill-opacity:1;" d="M 318.832031 622.816406 L 162.859375 692.480469 C 162.859375 692.480469 227.574219 949.574219 194.382812 1029.1875 L 171.152344 1020.898438 L 169.496094 923.035156 L 126.359375 737.269531 L 108.105469 685.847656 L 270.710938 576.378906 L 318.832031 622.816406 "/>
<path style=" stroke:none;fill-rule:evenodd;fill:rgb(28.627452%,44.705883%,54.509807%);fill-opacity:1;" d="M 334.871094 765.015625 L 356.996094 792.003906 L 356.996094 891.523438 L 330.445312 891.523438 C 330.445312 891.523438 327.128906 821.859375 327.128906 813.5625 C 327.128906 805.269531 330.445312 775.414062 330.445312 775.414062 "/>
<path style=" stroke:none;fill-rule:evenodd;fill:rgb(28.627452%,44.705883%,54.509807%);fill-opacity:1;" d="M 335.421875 906.449219 L 260.753906 909.765625 L 282.328125 924.691406 L 335.421875 932.988281 "/>
<path style=" stroke:none;fill-rule:evenodd;fill:rgb(20%,31.37255%,38.039216%);fill-opacity:1;" d="M 590.957031 889.859375 L 652.351562 888.203125 L 667.285156 1040.800781 L 604.230469 1049.09375 L 590.957031 889.859375 "/>
<path style=" stroke:none;fill-rule:evenodd;fill:rgb(20%,31.37255%,38.039216%);fill-opacity:1;" d="M 607.550781 889.859375 L 700.472656 884.886719 C 700.472656 884.886719 738.632812 788.683594 738.632812 783.707031 C 738.632812 778.730469 771.820312 644.382812 771.820312 644.382812 L 697.152344 566.429688 L 682.21875 553.15625 L 642.394531 592.964844 L 642.394531 747.21875 L 607.550781 889.859375 "/>
<path style=" stroke:none;fill-rule:evenodd;fill:rgb(28.627452%,44.705883%,54.509807%);fill-opacity:1;" d="M 649.03125 878.25 L 590.957031 889.859375 L 599.25 936.308594 C 620.820312 946.257812 657.328125 919.71875 657.328125 919.71875 "/>
<path style=" stroke:none;fill-rule:evenodd;fill:rgb(28.627452%,44.705883%,54.509807%);fill-opacity:1;" d="M 650.691406 587.988281 L 766.84375 674.238281 L 770.160156 634.429688 L 682.21875 553.15625 L 650.691406 587.988281 "/>
<path style=" stroke:none;fill-rule:evenodd;fill:rgb(100%,100%,100%);fill-opacity:1;" d="M 393.007812 1216.632812 L 358.652344 1077.285156 L 341.566406 974.46875 L 338.742188 898.152344 L 494.226562 889.878906 L 590.957031 889.859375 L 582.164062 1064.035156 L 597.097656 1198.386719 L 595.4375 1223.265625 L 469.335938 1233.21875 L 393.007812 1216.632812 "/>
<path style=" stroke:none;fill-rule:evenodd;fill:rgb(86.274511%,85.09804%,84.705883%);fill-opacity:1;" d="M 569.382812 888.203125 C 569.382812 888.203125 561.089844 1060.707031 585.980469 1183.441406 C 585.980469 1183.441406 536.203125 1214.960938 463.1875 1223.25 L 602.570312 1218.273438 L 619.164062 1208.324219 L 599.25 936.308594 L 594.273438 878.246094 "/>
<path style=" stroke:none;fill-rule:evenodd;fill:rgb(100%,100%,100%);fill-opacity:1;" d="M 670.113281 1027.546875 L 734.824219 1009.300781 L 857.609375 1002.667969 L 875.863281 946.273438 L 842.675781 848.410156 L 804.515625 843.433594 L 751.414062 860.019531 L 700.472656 884.886719 L 673.425781 879.925781 L 652.351562 888.203125 "/>
<path style=" stroke:none;fill-rule:evenodd;fill:rgb(86.274511%,85.09804%,84.705883%);fill-opacity:1;" d="M 668.941406 994.355469 C 668.941406 994.355469 712.082031 974.457031 718.71875 976.113281 L 700.472656 884.886719 L 722.039062 876.59375 C 722.039062 876.59375 736.972656 962.84375 736.972656 972.792969 C 736.972656 972.792969 829.890625 977.769531 838.191406 977.769531 C 838.191406 977.769531 858.101562 939.621094 853.125 899.8125 L 871.378906 952.890625 L 873.035156 982.746094 L 846.488281 1022.554688 L 816.621094 1029.1875 L 766.84375 1027.53125 L 750.25 1005.96875 L 692.171875 1014.261719 L 673.917969 1020.898438 "/>
<path style=" stroke:none;fill-rule:nonzero;fill:rgb(100%,100%,100%);fill-opacity:1;" d="M 603.738281 876.609375 L 567.234375 783.722656 L 529.070312 728.988281 C 529.070312 728.988281 537.363281 705.765625 548.980469 705.765625 C 560.597656 705.765625 587.144531 705.765625 587.144531 705.765625 L 623.648438 719.035156 L 620.332031 780.40625 L 603.738281 876.609375 "/>
<path style=" stroke:none;fill-rule:evenodd;fill:rgb(86.274511%,85.09804%,84.705883%);fill-opacity:1;" d="M 610.871094 845.078125 C 610.871094 845.078125 564.40625 755.515625 564.40625 742.246094 C 564.40625 742.246094 572.699219 722.339844 584.316406 727.316406 C 595.9375 732.292969 620.824219 745.558594 620.824219 745.558594 L 620.824219 714.046875 L 564.40625 702.429688 L 526.246094 707.40625 L 590.957031 860.003906 L 604.230469 861.667969 "/>
<path style=" stroke:none;fill-rule:nonzero;fill:rgb(100%,100%,100%);fill-opacity:1;" d="M 407.941406 626.15625 L 361.976562 621.160156 L 318.832031 607.886719 L 318.832031 622.816406 L 339.910156 646.054688 L 406.28125 675.910156 "/>
<path style=" stroke:none;fill-rule:evenodd;fill:rgb(86.274511%,85.09804%,84.705883%);fill-opacity:1;" d="M 333.769531 631.125 C 333.769531 631.125 385.210938 652.691406 401.804688 647.714844 L 403.453125 667.601562 L 357.003906 657.667969 L 328.792969 637.765625 L 333.769531 631.125 "/>
<path style=" stroke:none;fill-rule:evenodd;fill:rgb(82.745099%,21.960784%,20%);fill-opacity:1;" d="M 669.933594 711.414062 C 641.777344 710.585938 616.339844 707.242188 594.070312 700.964844 C 595.582031 691.835938 592.75 682.882812 595.027344 676.308594 C 601.234375 671.839844 611.636719 671.910156 621.019531 670.859375 C 612.90625 666.875 601.507812 665.296875 592.144531 667.601562 C 591.925781 661.265625 589.082031 657.339844 587.359375 652.382812 C 603.1875 646.734375 640.558594 609.710938 661.578125 621.96875 C 671.59375 627.800781 675.851562 661.109375 676.628906 677.308594 C 677.273438 690.742188 675.40625 704.296875 669.933594 711.414062 "/>
<path style="fill:none;stroke-width:2;stroke-linecap:butt;stroke-linejoin:miter;stroke:rgb(82.745099%,21.960784%,20%);stroke-opacity:1;stroke-miterlimit:4;" d="M 134.582215 106.629831 C 128.925937 106.796256 123.815826 107.468237 119.342125 108.729771 C 119.645812 110.564372 119.076889 112.363647 119.534382 113.684843 C 120.781306 114.582911 122.871021 114.56878 124.755924 114.779952 C 123.126056 115.580676 120.836236 115.897826 118.955257 115.434662 C 118.911312 116.707971 118.340035 117.49692 117.993972 118.493116 C 121.173667 119.628261 128.681104 127.06872 132.903694 124.605314 C 134.915722 123.433273 135.771069 116.739372 135.927229 113.483877 C 136.056708 110.784179 135.681611 108.060145 134.582215 106.629831 Z M 134.582215 106.629831 " transform="matrix(4.977876,0,0,-4.975962,0,1242)"/>
<path style=" stroke:none;fill-rule:evenodd;fill:rgb(82.745099%,21.960784%,20%);fill-opacity:1;" d="M 535.296875 665.40625 C 535.222656 667.535156 535.132812 669.679688 535.046875 671.828125 C 526.257812 677.601562 512.0625 677.53125 502.417969 682.382812 C 516.640625 683.003906 527.835938 686.429688 537.519531 691.253906 C 537.308594 696.621094 537.101562 701.980469 536.894531 707.34375 C 520.78125 718.371094 506.0625 734.789062 487.089844 745.128906 C 478.117188 750.019531 446.636719 762.605469 437.09375 760.382812 C 431.695312 759.128906 431.207031 752.429688 429.050781 746.117188 C 424.453125 732.597656 413.863281 711.074219 412.941406 690.722656 C 411.765625 665.015625 409.167969 621.933594 436.878906 627.230469 C 459.238281 631.496094 485.242188 641.789062 502.550781 651.242188 C 513.128906 657.027344 519.246094 664.171875 535.296875 665.40625 "/>
<path style="fill:none;stroke-width:2;stroke-linecap:butt;stroke-linejoin:miter;stroke:rgb(82.745099%,21.960784%,20%);stroke-opacity:1;stroke-miterlimit:4;" d="M 107.535194 115.875845 C 107.520285 115.448007 107.502236 115.017029 107.484972 114.585266 C 105.719347 113.425 102.867667 113.43913 100.930187 112.46413 C 103.787361 112.339312 106.036375 111.650845 107.981701 110.681341 C 107.939326 109.602717 107.897736 108.525664 107.856146 107.447826 C 104.619167 105.231703 101.662333 101.932246 97.850937 99.854287 C 96.048431 98.871437 89.724354 96.342089 87.807278 96.788768 C 86.722792 97.040761 86.624701 98.387077 86.191535 99.655676 C 85.267917 102.372645 83.140535 106.698128 82.95534 110.788104 C 82.719139 115.954348 82.197299 124.612379 87.764118 123.547886 C 92.255868 122.69064 97.479764 120.622101 100.956868 118.722343 C 103.081896 117.559722 104.310771 116.123913 107.535194 115.875845 Z M 107.535194 115.875845 " transform="matrix(4.977876,0,0,-4.975962,0,1242)"/>
<path style=" stroke:none;fill-rule:evenodd;fill:rgb(82.745099%,21.960784%,20%);fill-opacity:1;" d="M 551.300781 696.078125 C 548.839844 682.074219 546 678.078125 547.097656 665.863281 C 584.457031 640.964844 591.472656 708.632812 551.300781 696.078125 "/>
<path style="fill:none;stroke-width:2;stroke-linecap:butt;stroke-linejoin:miter;stroke:rgb(82.745099%,21.960784%,20%);stroke-opacity:1;stroke-miterlimit:4;" d="M 110.750201 109.711836 C 110.255826 112.526147 109.685333 113.329227 109.90584 115.783998 C 117.410924 120.787742 118.820285 107.188768 110.750201 109.711836 Z M 110.750201 109.711836 " transform="matrix(4.977876,0,0,-4.975962,0,1242)"/>
<path style=" stroke:none;fill-rule:evenodd;fill:rgb(93.725491%,23.921569%,22.745098%);fill-opacity:1;" d="M 605.394531 707.425781 C 605.394531 707.425781 593.777344 690.835938 602.074219 685.863281 C 610.371094 680.886719 618.671875 685.867188 623.648438 677.570312 C 628.625 669.277344 623.648438 664.300781 625.304688 654.347656 C 626.964844 644.398438 635.265625 642.734375 643.558594 641.078125 C 651.851562 639.421875 675.089844 636.101562 678.40625 644.398438 L 668.449219 614.542969 L 648.539062 607.910156 L 585.484375 644.398438 L 582.164062 662.644531 L 582.164062 699.132812 "/>
<path style=" stroke:none;fill-rule:evenodd;fill:rgb(93.725491%,23.921569%,22.745098%);fill-opacity:1;" d="M 431.167969 762.164062 C 429.175781 736.277344 427.066406 710.429688 424.71875 684.566406 C 421.207031 645.953125 434 652.691406 467.484375 652.691406 C 472.597656 652.691406 498.972656 658.789062 500.859375 662.644531 C 509.910156 681.121094 485.726562 677.015625 511.28125 690.945312 C 532.855469 702.707031 570.96875 683.804688 562.25 657.667969 C 557.371094 651.855469 536.835938 655.855469 529.472656 652.039062 C 516.507812 645.324219 503.546875 638.605469 490.582031 631.886719 C 474.089844 623.332031 435.972656 610.863281 418.386719 622.816406 C 373.835938 653.105469 421.199219 728.785156 437.09375 760.382812 "/>
<path style=" stroke:none;fill-rule:evenodd;fill:rgb(13.725491%,12.156863%,12.54902%);fill-opacity:1;" d="M 474.832031 174.496094 C 429.609375 163.96875 407.136719 193.414062 393.425781 223.957031 C 381.1875 220.992188 386.058594 204.351562 389.148438 195.875 C 397.246094 173.621094 429.867188 144 456.523438 148.015625 C 467.992188 149.742188 483.515625 160.226562 474.832031 174.496094 "/>
<path style=" stroke:none;fill-rule:evenodd;fill:rgb(13.725491%,12.156863%,12.54902%);fill-opacity:1;" d="M 695.183594 225.976562 C 695.898438 226.007812 696.617188 226.03125 697.332031 226.0625 C 707.550781 247.285156 716.394531 269.765625 729.289062 288.5 C 720.652344 308.609375 663.890625 326.402344 664.765625 290.296875 C 677.039062 284.933594 698.230469 289.203125 709.113281 282.351562 C 702.820312 265.089844 693.742188 250.394531 695.183594 225.976562 "/>
<path style=" stroke:none;fill-rule:evenodd;fill:rgb(13.725491%,12.156863%,12.54902%);fill-opacity:1;" d="M 497.988281 226.53125 C 507.683594 244.300781 510.839844 262.96875 524.625 276.398438 C 530.832031 282.445312 542.902344 289.816406 536.917969 306.628906 C 535.519531 310.59375 525.300781 319.4375 519.402344 321.171875 C 497.851562 327.53125 447.640625 322.488281 464.644531 295.632812 C 482.464844 296.460938 506.417969 307.199219 519.738281 294.269531 C 509.511719 277.921875 491.273438 245.582031 497.988281 226.53125 "/>
<path style=" stroke:none;fill-rule:evenodd;fill:rgb(13.725491%,12.156863%,12.54902%);fill-opacity:1;" d="M 687.097656 407.128906 C 654.652344 427.960938 618.472656 450.617188 565.308594 445.363281 C 553.949219 435.492188 549.617188 413.523438 560.652344 399.011719 C 566.398438 408.882812 562.789062 427.042969 578.796875 429.773438 C 608.964844 434.933594 644.074219 411.328125 665.769531 403.078125 C 679.226562 380.402344 664.609375 372.0625 652.488281 357.46875 C 627.675781 327.566406 594.386719 290.507812 595.597656 245.742188 C 605.628906 238.472656 606.496094 256.839844 607.933594 260.183594 C 620.890625 290.496094 653.5 329.265625 677.300781 355.210938 C 683.144531 361.597656 692.765625 367.730469 693.835938 371.953125 C 696.921875 384.238281 685.808594 398.957031 687.097656 407.128906 "/>
<path style=" stroke:none;fill-rule:evenodd;fill:rgb(13.725491%,12.156863%,12.54902%);fill-opacity:1;" d="M 259.355469 385.195312 C 249.183594 379.390625 246.765625 353.835938 234.824219 353.109375 C 217.761719 352.074219 220.875 386.265625 220.941406 406.257812 C 209.195312 395.597656 207.132812 362.78125 215.761719 345.929688 C 205.925781 341.101562 201.535156 351.253906 196.082031 354.832031 C 203.089844 303.925781 270.574219 331.21875 259.355469 385.195312 "/>
<path style=" stroke:none;fill-rule:evenodd;fill:rgb(13.725491%,12.156863%,12.54902%);fill-opacity:1;" d="M 707.753906 428.324219 C 692.652344 457.0625 671.285156 488.710938 626.96875 489.628906 C 626.066406 480.347656 625.375 466.226562 627.019531 460.640625 C 660.898438 457.386719 681.816406 440.148438 707.753906 428.324219 "/>
<path style=" stroke:none;fill-rule:evenodd;fill:rgb(13.725491%,12.156863%,12.54902%);fill-opacity:1;" d="M 495.429688 446.957031 C 523.699219 461.8125 575.648438 463.410156 614.066406 462.285156 C 616.125 470.699219 616.078125 481.097656 616.15625 491.355469 C 566.769531 493.820312 508.378906 481.601562 495.429688 446.957031 "/>
<path style=" stroke:none;fill-rule:evenodd;fill:rgb(13.725491%,12.156863%,12.54902%);fill-opacity:1;" d="M 490.058594 474.660156 C 509.605469 523.71875 576.785156 518.070312 633.441406 516.71875 C 630.945312 523.089844 625.539062 530.613281 618.820312 533.332031 C 600.664062 540.71875 550.59375 546.320312 525.390625 532.941406 C 509.40625 524.445312 499.136719 505.253906 490.378906 494.003906 C 486.148438 488.570312 465.089844 474.691406 490.058594 474.660156 "/>
<path style=" stroke:none;fill-rule:evenodd;fill:rgb(50.588238%,69.01961%,76.862746%);fill-opacity:1;" d="M 684.738281 745.269531 C 661.796875 784.539062 639.851562 824.875 612.636719 859.515625 C 624.046875 825.980469 628.929688 769.855469 630.652344 727.066406 C 654.519531 715.902344 674.960938 729.582031 684.738281 745.269531 "/>
<path style=" stroke:none;fill-rule:evenodd;fill:rgb(13.725491%,12.156863%,12.54902%);fill-opacity:1;" d="M 808.167969 886.414062 C 782.488281 891.550781 764.441406 916.503906 739.390625 914.902344 C 753.15625 895.496094 777.285156 887.320312 808.167969 886.414062 "/>
<path style=" stroke:none;fill-rule:evenodd;fill:rgb(13.725491%,12.156863%,12.54902%);fill-opacity:1;" d="M 819.496094 926.589844 C 798.566406 928.796875 773.980469 932.1875 752.75 930.441406 C 762.800781 915.09375 801.523438 920.390625 819.496094 926.589844 "/>
<path style=" stroke:none;fill-rule:evenodd;fill:rgb(13.725491%,12.156863%,12.54902%);fill-opacity:1;" d="M 826.75 961.226562 C 803.226562 961.734375 773.984375 961.265625 751.625 959.390625 C 764.851562 945.191406 811.492188 954.121094 826.75 961.226562 "/>
<path style=" stroke:none;fill-rule:evenodd;fill:rgb(86.274511%,85.09804%,84.705883%);fill-opacity:1;" d="M 640.472656 1056.011719 C 643.847656 1085.546875 655.5625 1115.472656 654.09375 1147.816406 C 641.085938 1152.199219 633.613281 1156.035156 616.1875 1156.011719 C 614.957031 1128.523438 611.277344 1086.5 612.378906 1060.296875 C 620.949219 1060.863281 633.589844 1054.175781 640.472656 1056.011719 "/>
<path style=" stroke:none;fill-rule:evenodd;fill:rgb(94.117647%,83.92157%,71.764708%);fill-opacity:1;" d="M 602.546875 620.757812 C 590.734375 628.464844 580.675781 638.085938 569.328125 646.316406 C 544.171875 647.5625 530.441406 644.574219 511.960938 630.136719 C 512.261719 628.976562 514.121094 629.492188 514.191406 628.070312 C 541.121094 640.066406 575.351562 623.183594 602.546875 620.757812 "/>
<path style=" stroke:none;fill-rule:evenodd;fill:rgb(50.588238%,69.01961%,76.862746%);fill-opacity:1;" d="M 461.171875 804.257812 C 468.570312 772.210938 497.5625 755.609375 523.890625 737.960938 C 551.066406 772.433594 567.59375 816.769531 585.792969 859.550781 C 542.792969 846.59375 498.859375 825.570312 461.171875 804.257812 "/>
<path style=" stroke:none;fill-rule:evenodd;fill:rgb(13.725491%,12.156863%,12.54902%);fill-opacity:1;" d="M 612.378906 1060.296875 C 611.277344 1086.5 614.957031 1128.523438 616.1875 1156.011719 C 633.613281 1156.035156 641.085938 1152.199219 654.09375 1147.816406 C 655.5625 1115.472656 643.847656 1085.546875 640.472656 1056.011719 C 633.589844 1054.175781 620.949219 1060.863281 612.378906 1060.296875 Z M 341.015625 911.273438 C 352.503906 1016.878906 369.148438 1105.652344 399.679688 1199.167969 C 467.433594 1219.734375 549.113281 1221.523438 609.003906 1202.96875 C 598.007812 1150.1875 602.8125 1085.929688 596.382812 1029.605469 C 591.539062 987.273438 594.011719 944.675781 587.371094 901.484375 C 514.800781 886.394531 412.230469 897.957031 341.015625 911.273438 Z M 604.527344 902.148438 C 603.914062 947.503906 606.558594 992.242188 610.023438 1037.652344 C 627.445312 1035.039062 639.269531 1033.292969 655.457031 1029.746094 C 650.199219 986.027344 650.847656 936.832031 640.140625 898.160156 C 627.765625 898.28125 616.867188 898.015625 604.527344 902.148438 Z M 692.910156 894.835938 C 684.640625 892.941406 675.015625 894.761719 667.113281 894.917969 C 670.828125 931.886719 679.839844 972.6875 683.007812 1011.496094 C 695.4375 1011.882812 702.078125 1006.019531 712.304688 1004.050781 C 712.851562 969.984375 709.328125 923.050781 692.910156 894.835938 Z M 826.734375 1017.0625 C 852.644531 1010.773438 868.9375 979.050781 861.691406 946.472656 C 856.828125 924.578125 848.164062 883.351562 838.898438 869.34375 C 832.046875 858.984375 813.472656 845.421875 798.644531 854.914062 C 774.523438 870.355469 732.027344 874.839844 714.433594 893.527344 C 723.253906 922.886719 725.992188 963.210938 729.632812 1000.410156 C 759.769531 1002.289062 796.847656 992.121094 821.910156 1002.910156 C 804.414062 1008.578125 781.710938 1008.621094 766.59375 1016.878906 C 778.949219 1022.84375 807.875 1021.636719 826.734375 1017.0625 Z M 585.792969 859.550781 C 567.59375 816.769531 551.066406 772.433594 523.890625 737.960938 C 497.5625 755.609375 468.570312 772.210938 461.171875 804.257812 C 498.859375 825.570312 542.792969 846.59375 585.792969 859.550781 Z M 630.652344 727.066406 C 628.929688 769.855469 624.046875 825.980469 612.636719 859.515625 C 639.851562 824.875 661.796875 784.539062 684.738281 745.269531 C 674.960938 729.582031 654.519531 715.902344 630.652344 727.066406 Z M 579.796875 709.003906 C 569.488281 707.894531 560.738281 720.851562 547.332031 715.25 C 544.261719 718.644531 541.46875 722.320312 538.335938 725.632812 C 567.945312 761.300781 581.402344 811.90625 604.269531 853.824219 C 616.539062 813.558594 615.125 769.445312 617.828125 725.5 C 600.96875 726.570312 591.617188 710.257812 579.796875 709.003906 Z M 547.097656 665.863281 C 546 678.078125 548.839844 682.074219 551.300781 696.078125 C 591.472656 708.632812 584.457031 640.964844 547.097656 665.863281 Z M 502.550781 651.242188 C 485.242188 641.789062 459.238281 631.496094 436.878906 627.230469 C 409.167969 621.929688 411.765625 665.015625 412.941406 690.722656 C 413.863281 711.074219 424.453125 732.597656 429.050781 746.117188 C 431.207031 752.429688 431.695312 759.128906 437.09375 760.382812 C 446.636719 762.605469 478.117188 750.019531 487.089844 745.128906 C 506.0625 734.789062 520.78125 718.371094 536.894531 707.34375 C 537.101562 701.980469 537.308594 696.621094 537.519531 691.253906 C 527.835938 686.429688 516.640625 683.003906 502.417969 682.382812 C 512.0625 677.53125 526.257812 677.601562 535.046875 671.828125 C 535.132812 669.679688 535.222656 667.535156 535.296875 665.40625 C 519.246094 664.171875 513.128906 657.027344 502.550781 651.242188 Z M 337.21875 621.222656 C 322.851562 635.804688 377.511719 655.675781 394.914062 656.746094 C 394.816406 647.523438 400.175781 638.824219 399.09375 632.207031 C 378.425781 628.578125 351.261719 630.972656 337.21875 621.222656 Z M 514.191406 628.070312 C 514.121094 629.492188 512.261719 628.976562 511.960938 630.136719 C 530.441406 644.574219 544.171875 647.5625 569.328125 646.316406 C 580.675781 638.085938 590.734375 628.464844 602.546875 620.757812 C 575.351562 623.183594 541.121094 640.066406 514.191406 628.070312 Z M 676.628906 677.308594 C 675.851562 661.109375 671.59375 627.800781 661.578125 621.96875 C 640.558594 609.703125 603.1875 646.734375 587.359375 652.382812 C 589.082031 657.339844 591.925781 661.265625 592.144531 667.601562 C 601.507812 665.296875 612.90625 666.875 621.019531 670.859375 C 611.636719 671.910156 601.234375 671.839844 595.027344 676.308594 C 592.75 682.882812 595.582031 691.835938 594.070312 700.964844 C 616.339844 707.242188 641.777344 710.585938 669.933594 711.414062 C 675.40625 704.296875 677.273438 690.742188 676.628906 677.308594 Z M 313.03125 635.324219 C 308.519531 632.109375 278.003906 592.417969 273.820312 594.066406 C 218.597656 615.835938 166.964844 653.476562 120.820312 689.082031 C 164.816406 783.445312 182.574219 899.058594 185.710938 1010.488281 C 236.109375 1034.050781 280.375 1068.015625 348.761719 1071.5625 C 340.847656 1015.59375 333.625 965.660156 329.132812 912.964844 C 311.949219 905.722656 287.296875 913.292969 271.214844 910.71875 C 271.082031 891.347656 295.777344 902.238281 297.832031 889.210938 C 299.382812 879.355469 284.246094 878.609375 289.171875 863.097656 C 301.746094 867.664062 308.347656 877.753906 321.753906 881.542969 C 334.003906 854.75 321.582031 807.351562 323.347656 784.957031 C 323.683594 780.753906 325.449219 761.664062 334.871094 765.015625 C 343.207031 767.980469 334.394531 815.78125 335.308594 836.972656 C 336.140625 856.496094 332.949219 875.390625 340.859375 887.648438 C 406.941406 878.65625 474.09375 872.84375 545.59375 870.882812 C 529.863281 864.136719 511.179688 857.75 490.691406 846.207031 C 479.582031 839.949219 444.574219 826.925781 441.367188 816.378906 C 436.253906 799.578125 454.785156 790.625 457.953125 776.21875 C 424.597656 794.40625 418.089844 758.789062 410.199219 733.554688 C 403.046875 710.703125 398.980469 693.628906 397.222656 680.449219 C 368.488281 666.753906 337.765625 652.886719 313.03125 635.324219 Z M 647.441406 598.867188 C 693.453125 576.566406 701.746094 682.21875 683.710938 716.253906 C 686.5 726.40625 696.085938 730.292969 700 739.417969 C 674.324219 785.394531 645.804688 828.3125 619.605469 873.75 C 639.09375 861.621094 666.929688 871.582031 689.863281 862.503906 C 698.246094 859.1875 704.316406 840.007812 710.660156 824.660156 C 728.117188 782.441406 746.449219 729.210938 754.601562 688.921875 C 756.441406 679.742188 761.460938 659.738281 760.335938 651.566406 C 758.328125 636.9375 738.472656 626.089844 728.371094 617.042969 C 709.765625 600.335938 698.046875 585.632812 678.640625 570.007812 C 670.769531 581.621094 653.878906 589.421875 647.441406 598.867188 Z M 207.808594 190.996094 C 185.882812 215.109375 190.472656 260.292969 193.125 292.4375 C 232.753906 267.519531 285.351562 294.40625 284.855469 336.792969 C 303.777344 336.289062 291.925781 313.171875 288.503906 298.277344 C 277.320312 249.632812 307.34375 196.785156 289.863281 152.300781 C 255.921875 154.871094 228.039062 168.730469 207.808594 190.996094 Z M 364.679688 51.042969 C 315.046875 65.105469 251.433594 101.15625 231.039062 145.726562 C 246.832031 143.433594 257.796875 135.46875 273.375 134.484375 C 279.261719 134.101562 286.976562 136.953125 293.742188 135.273438 C 307.230469 131.925781 318.609375 101.703125 328.78125 90.457031 C 338.699219 79.476562 350.621094 74.785156 358.777344 64.773438 C 364.015625 62.246094 371.765625 62.417969 372.0625 54.550781 C 369.792969 52.125 367.398438 50.273438 364.679688 51.042969 Z M 623.046875 64.269531 C 571.53125 35.214844 484.332031 13.359375 429.53125 40.667969 C 385.316406 62.707031 325.546875 99.171875 305.167969 145.378906 C 324.203125 189.96875 299.527344 230.824219 297.953125 276.097656 C 297.117188 300.183594 309.300781 321.214844 310.234375 347.4375 C 303.71875 358.179688 283.816406 359.503906 270.039062 358.765625 C 265.402344 335.570312 257.285156 309.496094 233.386719 306.878906 C 199.570312 303.179688 174.847656 331.15625 173.3125 360.390625 C 171.492188 394.769531 199.726562 451.746094 239.746094 447.792969 C 255.203125 446.265625 259 430.773438 275.84375 430.933594 C 284.972656 449.140625 261.761719 454.859375 259.375 467.878906 C 258.753906 471.242188 261.300781 484.390625 262.78125 490.554688 C 270.050781 520.574219 286.253906 559.425781 302.203125 582.28125 C 322.445312 611.273438 362.210938 615.640625 404.996094 618.480469 C 412.636719 602.027344 440.789062 603.378906 459.132812 607.683594 C 437.148438 598.980469 416.710938 577.882812 399.777344 559.207031 C 380.320312 537.78125 360.613281 514.796875 359.617188 486.792969 C 396.382812 537.777344 426.753906 582.300781 493.605469 604.730469 C 544.191406 621.6875 603.269531 596.957031 642.136719 569.671875 C 658.265625 558.332031 667.890625 540.339844 679.355469 523.871094 C 722.25 462.191406 742.265625 374.15625 737.867188 288.828125 C 736.054688 253.640625 736.132812 218.570312 724.320312 194.894531 C 711.976562 170.136719 670.222656 147.988281 645.78125 170.382812 C 641.25 146.308594 666.105469 131.421875 695.300781 140.082031 C 674.480469 113.226562 652.632812 80.957031 623.046875 64.269531 Z M 719.023438 858.269531 C 759.28125 838.265625 834.496094 804.425781 859.734375 858.34375 C 869.046875 878.21875 879.972656 911.816406 884.796875 932.332031 C 891.613281 961.277344 877.410156 1022.113281 847.648438 1031.824219 C 821.359375 1040.402344 790.6875 1039.882812 759.023438 1033.523438 C 755.292969 1030.421875 751.140625 1025.019531 748.238281 1019.386719 C 725.628906 1018.507812 704.460938 1020.597656 686.597656 1029.890625 C 688.289062 1046.605469 676.980469 1049.285156 666.378906 1052.730469 C 658.519531 1083.882812 682.101562 1124.566406 676.457031 1152.976562 C 672.429688 1173.214844 647.523438 1176.34375 629.214844 1180.128906 C 628.617188 1191.375 630.015625 1200.761719 631.265625 1210.277344 C 627.078125 1225.699219 608.300781 1234.476562 590.511719 1236.625 C 531.976562 1243.660156 443.097656 1246.824219 386.796875 1226.585938 C 371.085938 1188.0625 358.707031 1141.207031 345.621094 1097.21875 C 290.710938 1103.082031 246.296875 1073.535156 204.429688 1054.175781 C 189.933594 1047.460938 169.878906 1043.757812 164.464844 1032.222656 C 159.214844 1021.058594 161.363281 999.65625 160.058594 979.4375 C 156.746094 927.804688 153.90625 878 140.265625 825.128906 C 134.140625 801.402344 123.464844 780.46875 116.015625 757.609375 C 109.132812 736.421875 97.105469 710.238281 93.972656 689.109375 C 89.320312 657.796875 118.816406 656.054688 137.679688 642.484375 C 166.835938 621.503906 189.722656 609.898438 221.300781 590.960938 C 230.65625 585.351562 258.859375 571.15625 262.066406 564.617188 C 268.445312 551.65625 251.121094 533.378906 246.488281 523.21875 C 239.160156 507.148438 235.339844 493.5 234.289062 477.648438 C 207.800781 473.460938 187.71875 457.703125 175.589844 439.933594 C 155.527344 410.527344 141.609375 356.121094 158.972656 314.734375 C 160.332031 311.476562 167.121094 305.066406 168.125 300.058594 C 170.097656 290.203125 164.40625 277.097656 164.050781 266.613281 C 162.226562 212.820312 173.15625 166.476562 209.382812 150.253906 C 224.089844 91.691406 276.722656 72.222656 326.3125 43.117188 C 344.851562 32.238281 365.285156 25.289062 386.386719 17.523438 C 462.09375 -10.324219 578.246094 -5.082031 641.074219 42.421875 C 667.71875 62.5625 710.304688 105.09375 725.535156 135.882812 C 765.765625 217.175781 762.910156 353.035156 734.769531 451.921875 C 730.984375 465.199219 725.5 484.714844 717.839844 500.660156 C 712.5 511.796875 695.898438 534.078125 697.914062 543.914062 C 699.988281 554.078125 735.765625 581.230469 743.4375 588.625 C 757.25 601.945312 783.492188 619.625 785.617188 636.433594 C 787.902344 654.324219 777.734375 678.796875 772.582031 696.058594 C 755.359375 753.664062 738.550781 806.914062 719.023438 858.269531 "/>
<path style=" stroke:none;fill-rule:evenodd;fill:rgb(96.862745%,89.411765%,80.392158%);fill-opacity:1;" d="M 450.453125 459.503906 C 452.636719 456.597656 464.644531 452.183594 481.445312 460.269531 C 481.445312 460.269531 461.53125 463.589844 463.1875 496.773438 L 454.890625 495.113281 C 454.890625 495.113281 446.316406 465.023438 450.453125 459.503906 "/>
<path style=" stroke:none;fill-rule:evenodd;fill:rgb(11.372549%,9.803922%,9.803922%);fill-opacity:1;" d="M 595.9375 744.730469 C 595.9375 749.769531 591.847656 753.851562 586.808594 753.851562 C 581.769531 753.851562 577.683594 749.769531 577.683594 744.730469 C 577.683594 739.695312 581.769531 735.605469 586.808594 735.605469 C 591.847656 735.605469 595.9375 739.695312 595.9375 744.730469 "/>
<path style=" stroke:none;fill-rule:evenodd;fill:rgb(11.372549%,9.803922%,9.803922%);fill-opacity:1;" d="M 605.0625 787.027344 C 605.0625 792.0625 600.972656 796.148438 595.929688 796.148438 C 590.894531 796.148438 586.808594 792.0625 586.808594 787.027344 C 586.808594 781.992188 590.894531 777.902344 595.929688 777.902344 C 600.972656 777.902344 605.0625 781.992188 605.0625 787.027344 "/>
</g>
</svg>
