<?xml version="1.0" encoding="UTF-8"?>
<svg xmlns="http://www.w3.org/2000/svg" xmlns:xlink="http://www.w3.org/1999/xlink" width="900px" height="900px" viewBox="0 0 900 900" version="1.1">
<g id="surface1">
<path style=" stroke:none;fill-rule:nonzero;fill:rgb(49.803922%,78.431374%,100%);fill-opacity:1;" d="M 900 180 L 900 720 C 900 819.410156 819.410156 900 720 900 L 180 900 C 80.589844 900 0 819.410156 0 720 L 0 180 C 0 80.589844 80.589844 0 180 0 L 720 0 C 819.410156 0 900 80.589844 900 180 Z M 900 180 "/>
<path style=" stroke:none;fill-rule:nonzero;fill:rgb(1.176471%,2.745098%,6.27451%);fill-opacity:1;" d="M 289.335938 610.730469 L 407.019531 610.730469 C 406.996094 675.703125 354.3125 728.371094 289.335938 728.371094 C 224.34375 728.371094 171.652344 675.679688 171.652344 610.6875 C 171.652344 545.691406 224.339844 493 289.335938 493 Z M 610.75 493 C 675.746094 493.003906 728.4375 545.691406 728.4375 610.6875 C 728.433594 675.675781 675.746094 728.371094 610.75 728.371094 C 545.773438 728.371094 493.09375 675.703125 493.066406 610.730469 L 610.730469 610.730469 L 610.730469 493 Z M 289.335938 171.671875 C 354.320312 171.675781 407.007812 224.351562 407.019531 289.335938 L 289.335938 289.335938 L 289.335938 407.042969 C 224.34375 407.042969 171.652344 354.351562 171.652344 289.359375 C 171.652344 224.363281 224.339844 171.671875 289.335938 171.671875 Z M 610.75 171.671875 C 675.746094 171.675781 728.4375 224.363281 728.4375 289.359375 C 728.433594 354.351562 675.746094 407.042969 610.75 407.042969 L 610.730469 407.019531 L 610.730469 289.335938 L 493.066406 289.335938 C 493.078125 224.351562 545.765625 171.671875 610.75 171.671875 Z M 610.75 171.671875 "/>
</g>
</svg>
