<?xml version="1.0" encoding="UTF-8"?>
<svg xmlns="http://www.w3.org/2000/svg" xmlns:xlink="http://www.w3.org/1999/xlink" width="900px" height="px" viewBox="0 0 900 900" version="1.1">
<defs>
<clipPath id="clip1">
  <path d="M 56.25 75 L 843.75 75 L 843.75 862.5 L 56.25 862.5 Z M 56.25 75 "/>
</clipPath>
</defs>
<g id="surface1">
<g clip-path="url(#clip1)" clip-rule="nonzero">
<path style=" stroke:none;fill-rule:nonzero;fill:rgb(0%,54.901963%,67.843139%);fill-opacity:1;" d="M 704.296875 75 L 195.703125 75 C 118.683594 75 56.25 139.035156 56.25 218.027344 L 56.25 719.472656 C 56.25 798.464844 118.683594 862.5 195.703125 862.5 L 704.296875 862.5 C 781.3125 862.5 843.75 798.464844 843.75 719.472656 L 843.75 218.027344 C 843.75 139.035156 781.3125 75 704.296875 75 Z M 704.296875 75 "/>
</g>
<path style=" stroke:none;fill-rule:nonzero;fill:rgb(100%,100%,100%);fill-opacity:1;" d="M 689.457031 530.921875 C 673.8125 513.695312 643.886719 504.949219 600.515625 504.949219 C 576.445312 505.1875 552.429688 507.328125 528.679688 511.34375 C 513.46875 496.132812 499.617188 479.558594 487.292969 461.8125 C 477.9375 448.546875 469.296875 434.773438 461.398438 420.546875 C 476.675781 371.234375 484.417969 331.203125 484.417969 301.527344 C 484.417969 265.09375 470.34375 226.144531 430.84375 226.144531 C 424.132812 226.34375 417.582031 228.28125 411.796875 231.785156 C 406.015625 235.28125 401.195312 240.230469 397.78125 246.15625 C 380.929688 275.832031 387.679688 336.898438 414.570312 399.035156 C 405.207031 427.585938 395.007812 455.378906 382.5 486.179688 C 371.804688 512.582031 359.699219 538.359375 346.242188 563.398438 C 305.953125 580.019531 220.3125 620.375 212.152344 664.953125 C 210.925781 671.40625 211.359375 678.078125 213.417969 684.308594 C 215.472656 690.539062 219.074219 696.113281 223.871094 700.476562 C 233.53125 709.066406 245.984375 713.621094 258.765625 713.246094 C 310.355469 713.246094 361.796875 639.996094 396.417969 576.945312 C 416.105469 570.074219 436.179688 563.855469 456.164062 558.4375 C 478.085938 552.484375 499.277344 547.601562 519.265625 543.96875 C 573.882812 592.851562 622.4375 600.257812 646.761719 600.257812 C 680.195312 600.257812 692.699219 585.390625 697.253906 572.894531 C 699.738281 565.824219 700.328125 558.195312 698.957031 550.8125 C 697.585938 543.429688 694.304688 536.558594 689.457031 530.921875 Z M 653.878906 556.625 C 652.050781 566.335938 642.265625 572.617188 628.871094 572.617188 C 625.0625 572.601562 621.265625 572.113281 617.570312 571.167969 C 592.980469 565.15625 569.4375 552.976562 545.949219 533.976562 C 563.484375 531.230469 581.203125 529.832031 598.945312 529.792969 C 610.777344 529.597656 622.597656 530.53125 634.261719 532.585938 C 644.878906 534.835938 656.863281 540.847656 653.878906 556.625 Z M 418.964844 258.8125 C 420.050781 256.636719 421.679688 254.789062 423.679688 253.460938 C 425.683594 252.132812 427.992188 251.367188 430.371094 251.242188 C 442.875 251.242188 445.59375 266.695312 445.59375 279.628906 C 445.699219 300.234375 439.636719 333.074219 429.222656 369.40625 C 408.242188 312.414062 411.171875 272.492188 418.964844 258.8125 Z M 492.265625 518.257812 C 478.085938 521.316406 463.4375 524.859375 448.578125 528.882812 C 437.90625 531.78125 427.078125 534.941406 416.246094 538.324219 C 422 526.253906 427.285156 514.289062 431.890625 502.914062 C 437.960938 487.882812 443.660156 472.859375 448.894531 458.152344 C 453.488281 465.558594 458.230469 472.730469 463.125 479.671875 C 472.5 493.027344 482.621094 505.816406 493.425781 517.976562 Z M 333.582031 596.226562 C 300.566406 650.746094 268.078125 685.195312 249.089844 685.195312 C 245.976562 685.335938 242.933594 684.21875 240.613281 682.082031 C 238.84375 680.617188 237.503906 678.679688 236.738281 676.480469 C 235.96875 674.285156 235.808594 671.914062 236.269531 669.628906 C 239.878906 650.101562 277.5 621.929688 333.582031 596.226562 Z M 333.582031 596.226562 "/>
</g>
</svg>
