<?xml version="1.0" encoding="UTF-8"?>
<svg xmlns="http://www.w3.org/2000/svg" xmlns:xlink="http://www.w3.org/1999/xlink" width="900px" height="900px" viewBox="0 0 900 900" version="1.1">
<defs>
<clipPath id="clip1">
  <path d="M 56.25 56.25 L 843.75 56.25 L 843.75 843.75 L 56.25 843.75 Z M 56.25 56.25 "/>
</clipPath>
</defs>
<g id="surface1">
<g clip-path="url(#clip1)" clip-rule="nonzero">
<path style=" stroke:none;fill-rule:nonzero;fill:rgb(34.509805%,29.803923%,80.000001%);fill-opacity:1;" d="M 704.296875 56.25 L 195.703125 56.25 C 118.683594 56.25 56.25 120.285156 56.25 199.277344 L 56.25 700.722656 C 56.25 779.714844 118.683594 843.75 195.703125 843.75 L 704.296875 843.75 C 781.3125 843.75 843.75 779.714844 843.75 700.722656 L 843.75 199.277344 C 843.75 120.285156 781.3125 56.25 704.296875 56.25 Z M 704.296875 56.25 "/>
</g>
<path style=" stroke:none;fill-rule:nonzero;fill:rgb(100%,100%,100%);fill-opacity:1;" d="M 689.457031 512.171875 C 673.8125 494.945312 643.886719 486.199219 600.515625 486.199219 C 576.445312 486.4375 552.429688 488.578125 528.679688 492.59375 C 513.46875 477.382812 499.617188 460.808594 487.292969 443.0625 C 477.9375 429.796875 469.296875 416.023438 461.398438 401.796875 C 476.675781 352.484375 484.417969 312.453125 484.417969 282.777344 C 484.417969 246.34375 470.34375 207.394531 430.84375 207.394531 C 424.132812 207.59375 417.582031 209.53125 411.796875 213.035156 C 406.015625 216.53125 401.195312 221.480469 397.78125 227.40625 C 380.929688 257.082031 387.679688 318.148438 414.570312 380.285156 C 405.207031 408.835938 395.007812 436.628906 382.5 467.429688 C 371.804688 493.832031 359.699219 519.609375 346.242188 544.648438 C 305.953125 561.269531 220.3125 601.625 212.152344 646.203125 C 210.925781 652.65625 211.359375 659.328125 213.417969 665.558594 C 215.472656 671.789062 219.074219 677.363281 223.871094 681.726562 C 233.53125 690.316406 245.984375 694.871094 258.765625 694.496094 C 310.355469 694.496094 361.796875 621.246094 396.417969 558.195312 C 416.105469 551.324219 436.179688 545.105469 456.164062 539.6875 C 478.085938 533.734375 499.277344 528.851562 519.265625 525.21875 C 573.882812 574.101562 622.4375 581.507812 646.761719 581.507812 C 680.195312 581.507812 692.699219 566.640625 697.253906 554.144531 C 699.738281 547.074219 700.328125 539.445312 698.957031 532.0625 C 697.585938 524.679688 694.304688 517.808594 689.457031 512.171875 Z M 653.878906 537.875 C 652.050781 547.585938 642.265625 553.867188 628.871094 553.867188 C 625.0625 553.851562 621.265625 553.363281 617.570312 552.417969 C 592.980469 546.40625 569.4375 534.226562 545.949219 515.226562 C 563.484375 512.480469 581.203125 511.082031 598.945312 511.042969 C 610.777344 510.847656 622.597656 511.78125 634.261719 513.835938 C 644.878906 516.085938 656.863281 522.097656 653.878906 537.875 Z M 418.964844 240.0625 C 420.050781 237.886719 421.679688 236.039062 423.679688 234.710938 C 425.683594 233.382812 427.992188 232.617188 430.371094 232.492188 C 442.875 232.492188 445.59375 247.945312 445.59375 260.878906 C 445.699219 281.484375 439.636719 314.324219 429.222656 350.65625 C 408.242188 293.664062 411.171875 253.742188 418.964844 240.0625 Z M 492.265625 499.507812 C 478.085938 502.566406 463.4375 506.109375 448.578125 510.132812 C 437.90625 513.03125 427.078125 516.191406 416.246094 519.574219 C 422 507.503906 427.285156 495.539062 431.890625 484.164062 C 437.960938 469.132812 443.660156 454.109375 448.894531 439.402344 C 453.488281 446.808594 458.230469 453.980469 463.125 460.921875 C 472.5 474.277344 482.621094 487.066406 493.425781 499.226562 Z M 333.582031 577.476562 C 300.566406 631.996094 268.078125 666.445312 249.089844 666.445312 C 245.976562 666.585938 242.933594 665.46875 240.613281 663.332031 C 238.84375 661.867188 237.503906 659.929688 236.738281 657.730469 C 235.96875 655.535156 235.808594 653.164062 236.269531 650.878906 C 239.878906 631.351562 277.5 603.179688 333.582031 577.476562 Z M 333.582031 577.476562 "/>
</g>
</svg>
