<?xml version="1.0" encoding="UTF-8"?>
<svg xmlns="http://www.w3.org/2000/svg" xmlns:xlink="http://www.w3.org/1999/xlink" width="900px" height="px" viewBox="0 0 900 900" version="1.1">
<g id="surface1">
<path style=" stroke:none;fill-rule:nonzero;fill:rgb(70.19608%,4.313726%,0%);fill-opacity:1;" d="M 56.25 341.25 C 56.25 241.492188 56.25 191.613281 75.664062 153.507812 C 92.742188 119.992188 119.992188 92.742188 153.507812 75.664062 C 191.613281 56.25 241.492188 56.25 341.25 56.25 L 558.75 56.25 C 658.507812 56.25 708.386719 56.25 746.492188 75.664062 C 780.007812 92.742188 807.257812 119.992188 824.335938 153.507812 C 843.75 191.613281 843.75 241.492188 843.75 341.25 L 843.75 558.75 C 843.75 658.507812 843.75 708.386719 824.335938 746.492188 C 807.257812 780.007812 780.007812 807.257812 746.492188 824.335938 C 708.386719 843.75 658.507812 843.75 558.75 843.75 L 341.25 843.75 C 241.492188 843.75 191.613281 843.75 153.507812 824.335938 C 119.992188 807.257812 92.742188 780.007812 75.664062 746.492188 C 56.25 708.386719 56.25 658.507812 56.25 558.75 Z M 56.25 341.25 "/>
<path style=" stroke:none;fill-rule:nonzero;fill:rgb(100%,100%,100%);fill-opacity:1;" d="M 676.128906 503.371094 C 639.359375 463.050781 539.15625 480.691406 514.953125 483.210938 C 480.632812 447.929688 456.425781 407.925781 446.621094 392.804688 C 458.875 355.003906 468.683594 312.480469 468.683594 272.160156 C 468.683594 234.359375 453.972656 196.875 415.058594 196.875 C 400.351562 196.875 388.09375 204.433594 380.738281 217.035156 C 363.578125 247.273438 370.933594 307.441406 397.898438 370.125 C 383.191406 415.484375 358.675781 483.210938 329.566406 535.816406 C 290.34375 550.933594 204.851562 590.941406 197.5 636.300781 C 195.046875 648.898438 199.953125 664.019531 209.757812 671.578125 C 219.5625 681.660156 231.820312 684.179688 244.078125 684.179688 C 295.246094 684.179688 346.726562 611.414062 383.496094 545.894531 C 412.914062 535.816406 459.183594 520.695312 505.757812 513.136719 C 559.382812 563.535156 608.410156 570.78125 632.921875 570.78125 C 667.242188 570.78125 679.5 555.660156 684.09375 543.058594 C 690.53125 531.089844 685.933594 513.449219 676.128906 503.371094 Z M 641.808594 528.570312 C 639.359375 538.648438 627.101562 548.730469 605.039062 543.691406 C 578.074219 536.128906 553.867188 523.53125 534.253906 505.890625 C 551.414062 503.371094 592.78125 498.328125 622.199219 503.371094 C 632.003906 505.890625 644.261719 513.449219 641.808594 528.570312 Z M 404.640625 227.113281 C 407.089844 222.074219 411.992188 219.554688 416.898438 219.554688 C 429.152344 219.554688 431.605469 234.675781 431.605469 247.273438 C 429.152344 277.515625 424.25 309.960938 414.445312 337.679688 C 394.832031 282.554688 397.285156 242.234375 404.640625 227.113281 Z M 402.1875 510.929688 C 414.445312 488.25 429.152344 445.726562 434.058594 430.605469 C 446.3125 453.285156 468.375 478.484375 478.179688 490.769531 C 480.632812 488.566406 436.507812 498.328125 402.1875 510.929688 Z M 319.148438 568.890625 C 285.136719 624.015625 253.265625 659.296875 233.65625 659.296875 C 231.207031 659.296875 226.304688 659.296875 223.851562 656.773438 C 221.398438 651.734375 218.949219 646.695312 221.398438 641.65625 C 223.851562 621.496094 263.074219 593.773438 319.148438 568.890625 Z M 319.148438 568.890625 "/>
</g>
</svg>
