<?xml version="1.0" encoding="UTF-8"?>
<svg xmlns="http://www.w3.org/2000/svg" xmlns:xlink="http://www.w3.org/1999/xlink" width="900px" height="px" viewBox="0 0 900 900" version="1.1">
<defs>
<linearGradient id="linear0" gradientUnits="userSpaceOnUse" x1="15.2651" y1="11.2054" x2="21.578699" y2="18.5942" gradientTransform="matrix(37.5,0,0,37.5,0,0)">
<stop offset="0" style="stop-color:rgb(99.607843%,79.215686%,2.352941%);stop-opacity:1;"/>
<stop offset="1" style="stop-color:rgb(100%,89.019608%,12.156863%);stop-opacity:1;"/>
</linearGradient>
<linearGradient id="linear1" gradientUnits="userSpaceOnUse" x1="8" y1="18.849199" x2="11.6122" y2="21.1175" gradientTransform="matrix(37.5,0,0,37.5,0,0)">
<stop offset="0" style="stop-color:rgb(19.215686%,52.156863%,100%);stop-opacity:1;"/>
<stop offset="1" style="stop-color:rgb(65.882353%,65.882353%,99.607843%);stop-opacity:1;"/>
</linearGradient>
<linearGradient id="linear2" gradientUnits="userSpaceOnUse" x1="10.1707" y1="8.85" x2="5.8286" y2="10.6011" gradientTransform="matrix(37.5,0,0,37.5,0,0)">
<stop offset="0" style="stop-color:rgb(8.627451%,73.72549%,40%);stop-opacity:1;"/>
<stop offset="1" style="stop-color:rgb(47.058824%,78.823529%,100%);stop-opacity:1;"/>
</linearGradient>
</defs>
<g id="surface1">
<path style=" stroke:none;fill-rule:nonzero;fill:url(#linear0);" d="M 450 637.5 L 570.3125 431.25 L 655.191406 285.738281 L 742.5 431.25 L 802.910156 531.929688 C 870.394531 644.402344 789.375 787.5 658.203125 787.5 L 537.5 787.5 Z M 450 637.5 "/>
<path style=" stroke:none;fill-rule:nonzero;fill:url(#linear1);" d="M 329.6875 431.25 L 537.5 787.5 L 241.792969 787.5 C 110.625 787.5 29.605469 644.402344 97.09375 531.929688 L 157.5 431.25 Z M 329.6875 431.25 "/>
<path style=" stroke:none;fill-rule:nonzero;fill:url(#linear2);" d="M 570.3125 431.25 L 157.5 431.25 L 244.804688 285.738281 L 313.335938 171.523438 C 375.238281 68.351562 524.761719 68.351562 586.660156 171.523438 L 655.191406 285.738281 Z M 570.3125 431.25 "/>
</g>
</svg>
