<?xml version="1.0" encoding="UTF-8"?>
<svg xmlns="http://www.w3.org/2000/svg" xmlns:xlink="http://www.w3.org/1999/xlink" width="900px" height="px" viewBox="0 0 900 900" version="1.1">
<defs>
<linearGradient id="linear0" gradientUnits="userSpaceOnUse" x1="21" y1="6" x2="9" y2="6" gradientTransform="matrix(37.5,0,0,37.5,0,0)">
<stop offset="0.611788" style="stop-color:rgb(45.490196%,45.490196%,99.215686%);stop-opacity:1;"/>
<stop offset="1" style="stop-color:rgb(40.392157%,68.235294%,100%);stop-opacity:1;"/>
</linearGradient>
</defs>
<g id="surface1">
<path style=" stroke:none;fill-rule:nonzero;fill:rgb(34.117648%,27.450982%,89.411765%);fill-opacity:1;" d="M 337.5 450 C 337.5 387.867188 287.132812 337.5 225 337.5 C 162.867188 337.5 112.5 387.867188 112.5 450 C 112.5 512.132812 162.867188 562.5 225 562.5 C 287.132812 562.5 337.5 512.132812 337.5 450 Z M 337.5 450 "/>
<path style=" stroke:none;fill-rule:nonzero;fill:rgb(72.156864%,75.294119%,100%);fill-opacity:1;" d="M 337.5 675 C 337.5 612.867188 287.132812 562.5 225 562.5 C 162.867188 562.5 112.5 612.867188 112.5 675 C 112.5 737.132812 162.867188 787.5 225 787.5 C 287.132812 787.5 337.5 737.132812 337.5 675 Z M 337.5 675 "/>
<path style=" stroke:none;fill-rule:nonzero;fill:rgb(34.117648%,27.450982%,89.411765%);fill-opacity:1;" d="M 450 337.5 L 675 337.5 C 737.132812 337.5 787.5 387.867188 787.5 450 C 787.5 512.132812 737.132812 562.5 675 562.5 L 450 562.5 C 387.867188 562.5 337.5 512.132812 337.5 450 C 337.5 387.867188 387.867188 337.5 450 337.5 Z M 450 337.5 "/>
<path style=" stroke:none;fill-rule:nonzero;fill:rgb(59.215689%,61.56863%,100%);fill-opacity:1;" d="M 450 562.5 L 675 562.5 C 737.132812 562.5 787.5 612.867188 787.5 675 C 787.5 737.132812 737.132812 787.5 675 787.5 L 450 787.5 C 387.867188 787.5 337.5 737.132812 337.5 675 C 337.5 612.867188 387.867188 562.5 450 562.5 Z M 450 562.5 "/>
<path style=" stroke:none;fill-rule:evenodd;fill:url(#linear0);" d="M 675 112.5 C 737.132812 112.5 787.5 162.867188 787.5 225 C 787.5 287.132812 737.132812 337.5 675 337.5 L 450 337.5 C 387.867188 337.5 337.5 287.132812 337.5 225 C 337.5 162.867188 387.867188 112.5 450 112.5 Z M 675 112.5 "/>
<path style=" stroke:none;fill-rule:nonzero;fill:rgb(100%,100%,100%);fill-opacity:1;" d="M 420.007812 225 C 420.007812 208.429688 433.433594 195.007812 450 195.007812 L 675 195.007812 C 691.566406 195.007812 704.992188 208.429688 704.992188 225 C 704.992188 241.570312 691.566406 254.992188 675 254.992188 L 450 254.992188 C 433.433594 254.992188 420.007812 241.570312 420.007812 225 Z M 420.007812 225 "/>
<path style=" stroke:none;fill-rule:evenodd;fill:rgb(44.705883%,44.313726%,100%);fill-opacity:1;" d="M 225 112.5 C 287.132812 112.5 337.5 162.867188 337.5 225 C 337.5 287.132812 287.132812 337.5 225 337.5 C 162.867188 337.5 112.5 287.132812 112.5 225 C 112.5 162.867188 162.867188 112.5 225 112.5 Z M 225 112.5 "/>
<path style=" stroke:none;fill-rule:nonzero;fill:rgb(100%,100%,100%);fill-opacity:1;" d="M 172.484375 225 C 172.484375 196.003906 196.003906 172.484375 225 172.484375 C 253.988281 172.492188 277.476562 196.011719 277.476562 225 C 277.46875 253.984375 253.984375 277.46875 225 277.476562 C 196.011719 277.476562 172.492188 253.988281 172.484375 225 Z M 172.484375 225 "/>
</g>
</svg>
