<?xml version="1.0" encoding="UTF-8"?>
<svg xmlns="http://www.w3.org/2000/svg" xmlns:xlink="http://www.w3.org/1999/xlink" width="900px" height="px" viewBox="0 0 900 900" version="1.1">
<defs>
<linearGradient id="linear0" gradientUnits="userSpaceOnUse" x1="3" y1="12" x2="23.25" y2="12" gradientTransform="matrix(37.5,0,0,37.5,0,0)">
<stop offset="0" style="stop-color:rgb(48.235294%,78.431373%,99.607843%);stop-opacity:1;"/>
<stop offset="0.676754" style="stop-color:rgb(6.666667%,73.72549%,36.078431%);stop-opacity:1;"/>
</linearGradient>
<linearGradient id="linear1" gradientUnits="userSpaceOnUse" x1="13.1968" y1="20" x2="13.1968" y2="4" gradientTransform="matrix(37.5,0,0,37.5,0,0)">
<stop offset="0" style="stop-color:rgb(7.843137%,72.941176%,38.039216%);stop-opacity:1;"/>
<stop offset="0.19" style="stop-color:rgb(7.843137%,72.941176%,38.039216%);stop-opacity:0;"/>
<stop offset="0.81" style="stop-color:rgb(7.843137%,72.941176%,38.039216%);stop-opacity:0;"/>
<stop offset="1" style="stop-color:rgb(7.843137%,72.941176%,38.039216%);stop-opacity:1;"/>
</linearGradient>
</defs>
<g id="surface1">
<path style=" stroke:none;fill-rule:nonzero;fill:rgb(0.784314%,59.607846%,32.549021%);fill-opacity:1;" d="M 131.25 206.25 L 431.25 206.25 C 483.027344 206.25 525 248.222656 525 300 L 525 600 C 525 651.777344 483.027344 693.75 431.25 693.75 L 131.25 693.75 C 79.472656 693.75 37.5 651.777344 37.5 600 L 37.5 300 C 37.5 248.222656 79.472656 206.25 131.25 206.25 Z M 131.25 206.25 "/>
<path style=" stroke:none;fill-rule:nonzero;fill:url(#linear0);" d="M 112.5 243.75 C 112.5 191.972656 154.472656 150 206.25 150 L 778.125 150 C 829.902344 150 871.875 191.972656 871.875 243.75 L 871.875 656.25 C 871.875 708.027344 829.902344 750 778.125 750 L 206.25 750 C 154.472656 750 112.5 708.027344 112.5 656.25 Z M 112.5 243.75 "/>
<path style=" stroke:none;fill-rule:nonzero;fill:url(#linear1);" d="M 112.5 243.75 C 112.5 191.972656 154.472656 150 206.25 150 L 778.125 150 C 829.902344 150 871.875 191.972656 871.875 243.75 L 871.875 656.25 C 871.875 708.027344 829.902344 750 778.125 750 L 206.25 750 C 154.472656 750 112.5 708.027344 112.5 656.25 Z M 112.5 243.75 "/>
<path style="fill:none;stroke-width:1.5;stroke-linecap:round;stroke-linejoin:miter;stroke:rgb(100%,100%,100%);stroke-opacity:1;stroke-miterlimit:4;" d="M 18.125 9.5 L 18.125 17.5 M 20.75 15.125 L 10 15.125 " transform="matrix(37.5,0,0,37.5,0,0)"/>
</g>
</svg>
