<svg width="1354" height="900" viewBox="0 0 1354 900" fill="none" xmlns="http://www.w3.org/2000/svg">
<g clip-path="url(#clip0_3_2)">
<path d="M374.117 137.637C167.178 137.645 12.4857 307.041 0.841797 495.752C8.05501 536.412 31.7427 616.703 68.8532 612.583C115.233 607.426 232.048 612.583 331.687 432.204C404.472 300.44 554.195 137.629 374.117 137.637Z" fill="url(#paint0_radial_3_2)"/>
<path d="M326.269 208.08C256.707 318.212 163.066 476.03 131.463 525.69C93.8954 584.725 -5.58812 559.642 2.65322 475.034C1.8454 481.896 1.2171 488.824 0.784635 495.792C-12.8177 715.934 161.719 898.753 378.915 898.753C618.289 898.753 1189.19 600.498 1131.41 301.656C1070.51 126.001 899.36 0.00654984 705.386 0.00654984C511.421 0.00654984 387.108 111.754 326.269 208.08Z" fill="url(#paint1_radial_3_2)"/>
<path d="M326.269 208.08C256.707 318.212 163.066 476.03 131.463 525.69C93.8954 584.725 -5.58812 559.642 2.65322 475.034C1.8454 481.896 1.2171 488.824 0.784635 495.792C-12.8177 715.934 161.719 898.753 378.915 898.753C618.289 898.753 1189.19 600.498 1131.41 301.656C1070.51 126.001 899.36 0.00654984 705.386 0.00654984C511.421 0.00654984 387.108 111.754 326.269 208.08Z" fill="url(#paint2_radial_3_2)"/>
<path d="M326.269 208.08C256.707 318.212 163.066 476.03 131.463 525.69C93.8954 584.725 -5.58812 559.642 2.65322 475.034C1.8454 481.896 1.2171 488.824 0.784635 495.792C-12.8177 715.934 161.719 898.753 378.915 898.753C618.289 898.753 1189.19 600.498 1131.41 301.656C1070.51 126.001 899.36 0.00654984 705.386 0.00654984C511.421 0.00654984 387.108 111.754 326.269 208.08Z" fill="url(#paint3_radial_3_2)"/>
<path d="M326.269 208.08C256.707 318.212 163.066 476.03 131.463 525.69C93.8954 584.725 -5.58812 559.642 2.65322 475.034C1.8454 481.896 1.2171 488.824 0.784635 495.792C-12.8177 715.934 161.719 898.753 378.915 898.753C618.289 898.753 1189.19 600.498 1131.41 301.656C1070.51 126.001 899.36 0.00654984 705.386 0.00654984C511.421 0.00654984 387.108 111.754 326.269 208.08Z" fill="url(#paint4_radial_3_2)"/>
<path d="M326.269 208.08C256.707 318.212 163.066 476.03 131.463 525.69C93.8954 584.725 -5.58812 559.642 2.65322 475.034C1.8454 481.896 1.2171 488.824 0.784635 495.792C-12.8177 715.934 161.719 898.753 378.915 898.753C618.289 898.753 1189.19 600.498 1131.41 301.656C1070.51 126.001 899.36 0.00654984 705.386 0.00654984C511.421 0.00654984 387.108 111.754 326.269 208.08Z" fill="url(#paint5_radial_3_2)"/>
<path d="M375.415 898.843C375.415 898.843 946.981 899.969 1043.93 899.969C1219.88 899.969 1353.65 756.333 1353.65 588.716C1353.65 421.098 1217.18 278.335 1043.93 278.335C870.679 278.335 770.901 407.945 695.962 549.435C608.155 715.224 496.13 896.86 375.415 898.843Z" fill="url(#paint6_linear_3_2)"/>
<path d="M375.415 898.843C375.415 898.843 946.981 899.969 1043.93 899.969C1219.88 899.969 1353.65 756.333 1353.65 588.716C1353.65 421.098 1217.18 278.335 1043.93 278.335C870.679 278.335 770.901 407.945 695.962 549.435C608.155 715.224 496.13 896.86 375.415 898.843Z" fill="url(#paint7_radial_3_2)"/>
<path d="M375.415 898.843C375.415 898.843 946.981 899.969 1043.93 899.969C1219.88 899.969 1353.65 756.333 1353.65 588.716C1353.65 421.098 1217.18 278.335 1043.93 278.335C870.679 278.335 770.901 407.945 695.962 549.435C608.155 715.224 496.13 896.86 375.415 898.843Z" fill="url(#paint8_radial_3_2)"/>
</g>
<defs>
<radialGradient id="paint0_radial_3_2" cx="0" cy="0" r="1" gradientUnits="userSpaceOnUse" gradientTransform="translate(26.5076 187.095) rotate(50.1526) scale(426.633 707.649)">
<stop stop-color="#4894FE"/>
<stop offset="0.695072" stop-color="#0934B3"/>
</radialGradient>
<radialGradient id="paint1_radial_3_2" cx="0" cy="0" r="1" gradientUnits="userSpaceOnUse" gradientTransform="translate(1171.82 -304.102) rotate(130.923) scale(1834.56 1359.43)">
<stop offset="0.165327" stop-color="#23C0FE"/>
<stop offset="0.534" stop-color="#1C91FF"/>
</radialGradient>
<radialGradient id="paint2_radial_3_2" cx="0" cy="0" r="1" gradientUnits="userSpaceOnUse" gradientTransform="translate(303.343 211.388) rotate(-139.986) scale(372.983 853.839)">
<stop stop-color="white" stop-opacity="0.4"/>
<stop offset="0.660528" stop-color="#ADC0FF" stop-opacity="0"/>
</radialGradient>
<radialGradient id="paint3_radial_3_2" cx="0" cy="0" r="1" gradientUnits="userSpaceOnUse" gradientTransform="translate(708.917 652.227) rotate(-139.764) scale(420.407 638.478)">
<stop stop-color="#033ACC"/>
<stop offset="1" stop-color="#368EFF" stop-opacity="0"/>
</radialGradient>
<radialGradient id="paint4_radial_3_2" cx="0" cy="0" r="1" gradientUnits="userSpaceOnUse" gradientTransform="translate(278.656 -28.4313) rotate(66.5713) scale(922.468 995.857)">
<stop offset="0.592618" stop-color="#3464E3" stop-opacity="0"/>
<stop offset="1" stop-color="#033ACC" stop-opacity="0.6"/>
</radialGradient>
<radialGradient id="paint5_radial_3_2" cx="0" cy="0" r="1" gradientUnits="userSpaceOnUse" gradientTransform="translate(1157.03 -208.295) rotate(135) scale(1356.92 2125.84)">
<stop stop-color="#4BFDE8" stop-opacity="0.898039"/>
<stop offset="0.543937" stop-color="#4BFDE8" stop-opacity="0"/>
</radialGradient>
<linearGradient id="paint6_linear_3_2" x1="864.835" y1="899.341" x2="864.835" y2="285.704" gradientUnits="userSpaceOnUse">
<stop stop-color="#0086FF"/>
<stop offset="0.49" stop-color="#00BBFF"/>
</linearGradient>
<radialGradient id="paint7_radial_3_2" cx="0" cy="0" r="1" gradientUnits="userSpaceOnUse" gradientTransform="translate(544.175 351.439) rotate(21.6324) scale(614.874 1164.37)">
<stop stop-color="white" stop-opacity="0.4"/>
<stop offset="0.785262" stop-color="white" stop-opacity="0"/>
</radialGradient>
<radialGradient id="paint8_radial_3_2" cx="0" cy="0" r="1" gradientUnits="userSpaceOnUse" gradientTransform="translate(1334.52 230.15) rotate(139.243) scale(842.975 845.833)">
<stop stop-color="#4BFDE8" stop-opacity="0.898039"/>
<stop offset="0.584724" stop-color="#4BFDE8" stop-opacity="0"/>
</radialGradient>
<clipPath id="clip0_3_2">
<rect width="1353.67" height="900" fill="white"/>
</clipPath>
</defs>
</svg>
