<svg width="951" height="900" viewBox="0 0 951 900" fill="none" xmlns="http://www.w3.org/2000/svg">
<g clip-path="url(#clip0_1_67)">
<path d="M673.719 82.9582L99.455 446.963L50.0693 369.051V301.914C50.0693 277.472 62.4467 254.691 82.954 241.388L416.771 24.7781C467.629 -8.2238 533.138 -8.23031 584.002 24.7651L673.719 82.9582Z" fill="url(#paint0_linear_1_67)"/>
<path d="M578.856 21.5796C580.582 22.6023 582.296 23.6707 583.996 24.7716L844.513 193.762L198.559 603.211L99.4355 446.833L573.508 145.757C618.412 117.237 620.379 53.0832 578.856 21.5796Z" fill="url(#paint1_linear_1_67)"/>
<path d="M578.856 21.5796C580.582 22.6023 582.296 23.6707 583.996 24.7716L844.513 193.762L198.559 603.211L99.4355 446.833L573.508 145.757C618.412 117.237 620.379 53.0832 578.856 21.5796Z" fill="url(#paint2_linear_1_67)"/>
<path d="M456.282 681.397L198.565 603.218L746.505 255.883C792.653 226.633 792.535 159.261 746.283 130.175L743.814 128.624L750.921 133.041L917.683 241.219C938.197 254.521 950.575 277.309 950.575 301.757V366.732L456.282 681.397Z" fill="url(#paint3_linear_1_67)"/>
<path d="M456.282 681.397L198.565 603.218L746.505 255.883C792.653 226.633 792.535 159.261 746.283 130.175L743.814 128.624L750.921 133.041L917.683 241.219C938.197 254.521 950.575 277.309 950.575 301.757V366.732L456.282 681.397Z" fill="url(#paint4_linear_1_67)"/>
<path d="M584.002 24.7651C533.138 -8.23031 467.629 -8.2238 416.765 24.7781L82.954 241.388C62.4467 254.691 50.0693 277.472 50.0693 301.914V305.197C50.8771 329.737 63.7887 352.348 84.6478 365.501L499.713 627.178L915.826 365.898C937.441 352.329 950.555 328.603 950.555 303.086V366.738L950.568 301.757C950.568 277.309 938.184 254.528 917.676 241.219L584.002 24.7651Z" fill="url(#paint5_radial_1_67)"/>
<path d="M426.543 899.968H794.183C880.531 899.968 950.529 829.971 950.529 743.622V303.086C950.529 328.603 937.415 352.329 915.807 365.898L368.962 709.259C339.465 727.786 321.563 760.169 321.563 795.001C321.57 852.973 368.565 899.968 426.543 899.968Z" fill="url(#paint6_linear_1_67)"/>
<path d="M426.543 899.968H794.183C880.531 899.968 950.529 829.971 950.529 743.622V303.086C950.529 328.603 937.415 352.329 915.807 365.898L368.962 709.259C339.465 727.786 321.563 760.169 321.563 795.001C321.57 852.973 368.565 899.968 426.543 899.968Z" fill="url(#paint7_radial_1_67)"/>
<path d="M426.543 899.968H794.183C880.531 899.968 950.529 829.971 950.529 743.622V303.086C950.529 328.603 937.415 352.329 915.807 365.898L368.962 709.259C339.465 727.786 321.563 760.169 321.563 795.001C321.57 852.973 368.565 899.968 426.543 899.968Z" fill="url(#paint8_radial_1_67)"/>
<path d="M576.022 899.942H206.356C120.008 899.942 50.0107 829.945 50.0107 743.596V302.76C50.0107 328.232 63.0786 351.918 84.6217 365.501L630.926 709.91C660.833 728.763 678.969 761.654 678.969 797.008C678.963 853.859 632.873 899.942 576.022 899.942Z" fill="url(#paint9_radial_1_67)"/>
<path d="M576.022 899.942H206.356C120.008 899.942 50.0107 829.945 50.0107 743.596V302.76C50.0107 328.232 63.0786 351.918 84.6217 365.501L630.926 709.91C660.833 728.763 678.969 761.654 678.969 797.008C678.963 853.859 632.873 899.942 576.022 899.942Z" fill="url(#paint10_linear_1_67)"/>
<path d="M81.2997 424.593H318.945C363.849 424.593 400.245 460.989 400.245 505.892V743.538C400.245 788.441 363.849 824.837 318.945 824.837H81.2997C36.3959 824.837 0 788.441 0 743.538V505.892C0 460.989 36.3959 424.593 81.2997 424.593Z" fill="url(#paint11_radial_1_67)"/>
<path d="M81.2997 424.593H318.945C363.849 424.593 400.245 460.989 400.245 505.892V743.538C400.245 788.441 363.849 824.837 318.945 824.837H81.2997C36.3959 824.837 0 788.441 0 743.538V505.892C0 460.989 36.3959 424.593 81.2997 424.593Z" fill="url(#paint12_radial_1_67)"/>
<path d="M199.099 739.785C166 739.785 138.835 729.428 117.591 708.725C96.3476 688.022 85.7227 661 85.7227 627.666C85.7227 592.462 96.504 563.994 118.067 542.249C139.636 520.511 167.869 509.645 202.78 509.645C235.769 509.645 262.615 520.048 283.324 540.855C304.144 561.662 314.554 589.101 314.554 623.158C314.554 658.154 303.766 686.361 282.203 707.793C260.745 729.121 233.046 739.785 199.099 739.785ZM200.057 695.839C218.095 695.839 232.616 689.677 243.612 677.358C254.608 665.039 260.107 647.9 260.107 625.953C260.107 603.074 254.765 585.27 244.094 572.535C233.417 559.799 219.164 553.435 201.34 553.435C182.976 553.435 168.188 560.008 156.984 573.154C145.772 586.202 140.17 603.491 140.17 625.021C140.17 646.871 145.772 664.16 156.984 676.889C168.188 689.52 182.546 695.839 200.057 695.839Z" fill="white"/>
<path d="M199.008 742.867C166.039 742.867 138.971 732.235 117.806 710.966C96.6474 689.696 86.0615 661.938 86.0615 627.699C86.0615 591.537 96.8038 562.294 118.288 539.963C139.773 517.625 167.902 506.459 202.676 506.459C235.534 506.459 262.283 517.149 282.914 538.523C303.655 559.903 314.02 588.085 314.02 623.073C314.02 659.013 303.278 687.996 281.8 710.008C260.419 731.916 232.824 742.867 199.008 742.867ZM199.959 697.728C217.932 697.728 232.401 691.396 243.352 678.746C254.309 666.088 259.781 648.486 259.781 625.94C259.781 602.436 254.465 584.15 243.834 571.069C233.196 557.988 219.001 551.448 201.243 551.448C182.944 551.448 168.215 558.197 157.049 571.707C145.883 585.101 140.3 602.866 140.3 624.982C140.3 647.424 145.883 665.183 157.049 678.263C168.215 691.24 182.52 697.728 199.959 697.728Z" fill="white"/>
</g>
<defs>
<linearGradient id="paint0_linear_1_67" x1="149.818" y1="408.706" x2="673.716" y2="83.7582" gradientUnits="userSpaceOnUse">
<stop stop-color="#20A7FA"/>
<stop offset="0.4" stop-color="#3BD5FF"/>
<stop offset="1" stop-color="#C4B0FF"/>
</linearGradient>
<linearGradient id="paint1_linear_1_67" x1="330.132" y1="519.513" x2="621.785" y2="52.5092" gradientUnits="userSpaceOnUse">
<stop stop-color="#165AD9"/>
<stop offset="0.5008" stop-color="#1880E5"/>
<stop offset="1" stop-color="#8587FF"/>
</linearGradient>
<linearGradient id="paint2_linear_1_67" x1="542.844" y1="525.865" x2="219.041" y2="262.026" gradientUnits="userSpaceOnUse">
<stop offset="0.236946" stop-color="#448AFF" stop-opacity="0"/>
<stop offset="0.792113" stop-color="#0032B1" stop-opacity="0.2"/>
</linearGradient>
<linearGradient id="paint3_linear_1_67" x1="501.642" y1="627.464" x2="1013.37" y2="299.959" gradientUnits="userSpaceOnUse">
<stop stop-color="#1A43A6"/>
<stop offset="0.492267" stop-color="#2052CB"/>
<stop offset="1" stop-color="#5F20CB"/>
</linearGradient>
<linearGradient id="paint4_linear_1_67" x1="646.097" y1="607.887" x2="335.142" y2="338.81" gradientUnits="userSpaceOnUse">
<stop stop-color="#0045B9" stop-opacity="0"/>
<stop offset="0.669859" stop-color="#0D1F69" stop-opacity="0.2"/>
</linearGradient>
<radialGradient id="paint5_radial_1_67" cx="0" cy="0" r="1" gradientUnits="userSpaceOnUse" gradientTransform="translate(500.35 19.7924) rotate(-90) scale(675.48 731.102)">
<stop offset="0.568182" stop-color="#275FF0" stop-opacity="0"/>
<stop offset="0.992424" stop-color="#002177"/>
</radialGradient>
<linearGradient id="paint6_linear_1_67" x1="950.531" y1="598.276" x2="496.596" y2="598.276" gradientUnits="userSpaceOnUse">
<stop stop-color="#4DC4FF"/>
<stop offset="0.196145" stop-color="#0FAFFF"/>
</linearGradient>
<radialGradient id="paint7_radial_1_67" cx="0" cy="0" r="1" gradientUnits="userSpaceOnUse" gradientTransform="translate(602.688 797.613) rotate(-45) scale(289.477)">
<stop offset="0.259477" stop-color="#0060D1" stop-opacity="0.4"/>
<stop offset="0.908166" stop-color="#0383F1" stop-opacity="0"/>
</radialGradient>
<radialGradient id="paint8_radial_1_67" cx="0" cy="0" r="1" gradientUnits="userSpaceOnUse" gradientTransform="translate(165.886 1011.75) rotate(-52.6577) scale(982.635 888.553)">
<stop offset="0.732317" stop-color="#F4A7F7" stop-opacity="0"/>
<stop offset="1" stop-color="#F4A7F7" stop-opacity="0.501961"/>
</radialGradient>
<radialGradient id="paint9_radial_1_67" cx="0" cy="0" r="1" gradientUnits="userSpaceOnUse" gradientTransform="translate(364.493 537.96) rotate(123.339) scale(518.462 1345.47)">
<stop stop-color="#49DEFF"/>
<stop offset="0.724349" stop-color="#29C3FF"/>
</radialGradient>
<linearGradient id="paint10_linear_1_67" x1="-13.5696" y1="796.628" x2="423.486" y2="796.312" gradientUnits="userSpaceOnUse">
<stop offset="0.205882" stop-color="#6CE0FF"/>
<stop offset="0.535" stop-color="#50D5FF" stop-opacity="0"/>
</linearGradient>
<radialGradient id="paint11_radial_1_67" cx="0" cy="0" r="1" gradientUnits="userSpaceOnUse" gradientTransform="translate(-1.42812 439.987) rotate(46.9242) scale(526.867)">
<stop offset="0.038877" stop-color="#0091FF"/>
<stop offset="0.919119" stop-color="#183DAD"/>
</radialGradient>
<radialGradient id="paint12_radial_1_67" cx="0" cy="0" r="1" gradientUnits="userSpaceOnUse" gradientTransform="translate(200.122 668.339) rotate(90) scale(280.171 323.167)">
<stop offset="0.557796" stop-color="#0FA5F7" stop-opacity="0"/>
<stop offset="1" stop-color="#74C6FF" stop-opacity="0.501961"/>
</radialGradient>
<clipPath id="clip0_1_67">
<rect width="950.614" height="900" fill="white"/>
</clipPath>
</defs>
</svg>
