<svg width="875" height="900" viewBox="0 0 875 900" fill="none" xmlns="http://www.w3.org/2000/svg">
<g clip-path="url(#clip0_1_21)">
<path d="M125 677.25L475 250L875 527.75V812.5C875 860.75 835.75 900 787.5 900H275C192.25 900 125 832.75 125 750V677.25Z" fill="url(#paint0_radial_1_21)"/>
<path d="M125 376C125 313.75 175.25 263.5 237.5 263.5H747.25L875 200V512.5C875 560.75 835.75 600 787.5 600H275C192.25 600 125 667.25 125 750V376Z" fill="url(#paint1_linear_1_21)"/>
<path d="M125 376C125 313.75 175.25 263.5 237.5 263.5H747.25L875 200V512.5C875 560.75 835.75 600 787.5 600H275C192.25 600 125 667.25 125 750V376Z" fill="url(#paint2_radial_1_21)" fill-opacity="0.6"/>
<path d="M125 376C125 313.75 175.25 263.5 237.5 263.5H747.25L875 200V512.5C875 560.75 835.75 600 787.5 600H275C192.25 600 125 667.25 125 750V376Z" fill="url(#paint3_radial_1_21)" fill-opacity="0.1"/>
<path d="M125 150C125 67.25 192.25 3.05176e-05 275 3.05176e-05H787.5C835.75 3.05176e-05 875 39.25 875 87.5V212.5C875 260.75 835.75 300 787.5 300H275C192.25 300 125 367.25 125 450V150Z" fill="url(#paint4_linear_1_21)"/>
<path d="M125 150C125 67.25 192.25 3.05176e-05 275 3.05176e-05H787.5C835.75 3.05176e-05 875 39.25 875 87.5V212.5C875 260.75 835.75 300 787.5 300H275C192.25 300 125 367.25 125 450V150Z" fill="url(#paint5_radial_1_21)" fill-opacity="0.8"/>
<path d="M318.75 425H81.25C36.3769 425 0 461.377 0 506.25V743.75C0 788.623 36.3769 825 81.25 825H318.75C363.623 825 400 788.623 400 743.75V506.25C400 461.377 363.623 425 318.75 425Z" fill="url(#paint6_radial_1_21)"/>
<path d="M318.75 425H81.25C36.3769 425 0 461.377 0 506.25V743.75C0 788.623 36.3769 825 81.25 825H318.75C363.623 825 400 788.623 400 743.75V506.25C400 461.377 363.623 425 318.75 425Z" fill="url(#paint7_radial_1_21)" fill-opacity="0.65"/>
<path d="M337.251 510.75L288.001 739.25H229.251L200.251 602.25L169.751 739.5H110.251L63.001 511H111.501L140.751 661.75L169.751 511H229.251L259.501 661.75L288.001 511H337.251V510.75Z" fill="white"/>
</g>
<defs>
<radialGradient id="paint0_radial_1_21" cx="0" cy="0" r="1" gradientUnits="userSpaceOnUse" gradientTransform="translate(902.868 894.1) scale(1189.25 503.75)">
<stop offset="0.18" stop-color="#1657F4"/>
<stop offset="0.57" stop-color="#0036C4"/>
</radialGradient>
<linearGradient id="paint1_linear_1_21" x1="125" y1="475" x2="699.25" y2="475" gradientUnits="userSpaceOnUse">
<stop stop-color="#66C0FF"/>
<stop offset="0.26" stop-color="#0094F0"/>
</linearGradient>
<radialGradient id="paint2_radial_1_21" cx="0" cy="0" r="1" gradientUnits="userSpaceOnUse" gradientTransform="translate(812.615 351.903) rotate(133.55) scale(734 1808)">
<stop offset="0.14" stop-color="#D471FF"/>
<stop offset="0.83" stop-color="#509DF5" stop-opacity="0"/>
</radialGradient>
<radialGradient id="paint3_radial_1_21" cx="0" cy="0" r="1" gradientUnits="userSpaceOnUse" gradientTransform="translate(795.675 512.47) rotate(90) scale(465.5 2541.25)">
<stop offset="0.28" stop-color="#4F006F" stop-opacity="0"/>
<stop offset="1" stop-color="#4F006F"/>
</radialGradient>
<linearGradient id="paint4_linear_1_21" x1="125" y1="219.5" x2="875" y2="232" gradientUnits="userSpaceOnUse">
<stop stop-color="#9DEAFF"/>
<stop offset="0.2" stop-color="#3BD5FF"/>
</linearGradient>
<radialGradient id="paint5_radial_1_21" cx="0" cy="0" r="1" gradientUnits="userSpaceOnUse" gradientTransform="translate(850.23 -76.321) rotate(166.85) scale(737.25 1766)">
<stop offset="0.06" stop-color="#E4A7FE"/>
<stop offset="0.54" stop-color="#E4A7FE" stop-opacity="0"/>
</radialGradient>
<radialGradient id="paint6_radial_1_21" cx="0" cy="0" r="1" gradientUnits="userSpaceOnUse" gradientTransform="translate(-4.39127 371.775) rotate(45) scale(565.75)">
<stop offset="0.08" stop-color="#367AF2"/>
<stop offset="0.87" stop-color="#001A8F"/>
</radialGradient>
<radialGradient id="paint7_radial_1_21" cx="0" cy="0" r="1" gradientUnits="userSpaceOnUse" gradientTransform="translate(270.87 663.8) rotate(90) scale(280 319.25)">
<stop offset="0.59" stop-color="#2763E5" stop-opacity="0"/>
<stop offset="0.97" stop-color="#58AAFE"/>
</radialGradient>
<clipPath id="clip0_1_21">
<rect width="875" height="900" fill="white"/>
</clipPath>
</defs>
</svg>
