<?xml version="1.0" encoding="UTF-8"?>
<svg xmlns="http://www.w3.org/2000/svg" xmlns:xlink="http://www.w3.org/1999/xlink" width="900px" height="px" viewBox="0 0 900 900" version="1.1">
<defs>
<linearGradient id="linear0" gradientUnits="userSpaceOnUse" x1="12" y1="3.5" x2="12" y2="12.5" gradientTransform="matrix(37.5,0,0,37.5,0,0)">
<stop offset="0" style="stop-color:rgb(64.705882%,65.490196%,99.607843%);stop-opacity:1;"/>
<stop offset="0.504808" style="stop-color:rgb(24.705882%,57.254902%,100%);stop-opacity:1;"/>
<stop offset="1" style="stop-color:rgb(23.137255%,56.470588%,98.431373%);stop-opacity:1;"/>
</linearGradient>
<linearGradient id="linear1" gradientUnits="userSpaceOnUse" x1="21.940001" y1="7.93284" x2="2.05997" y2="7.93284" gradientTransform="matrix(37.5,0,0,37.5,0,0)">
<stop offset="0" style="stop-color:rgb(25.098039%,56.862745%,99.607843%);stop-opacity:1;"/>
<stop offset="0.194152" style="stop-color:rgb(25.098039%,56.862745%,99.607843%);stop-opacity:0;"/>
<stop offset="0.81" style="stop-color:rgb(25.098039%,56.862745%,99.607843%);stop-opacity:0;"/>
<stop offset="1" style="stop-color:rgb(25.098039%,56.862745%,99.607843%);stop-opacity:1;"/>
</linearGradient>
<linearGradient id="linear2" gradientUnits="userSpaceOnUse" x1="12" y1="12.5" x2="12" y2="21" gradientTransform="matrix(37.5,0,0,37.5,0,0)">
<stop offset="0" style="stop-color:rgb(28.235294%,61.176471%,99.215686%);stop-opacity:1;"/>
<stop offset="1" style="stop-color:rgb(18.823529%,54.509804%,99.607843%);stop-opacity:1;"/>
</linearGradient>
</defs>
<g id="surface1">
<path style=" stroke:none;fill-rule:nonzero;fill:rgb(73.333335%,88.627452%,99.607843%);fill-opacity:1;" d="M 281.25 75 L 618.75 75 C 670.527344 75 712.5 116.972656 712.5 168.75 L 712.5 206.25 C 712.5 258.027344 670.527344 300 618.75 300 L 281.25 300 C 229.472656 300 187.5 258.027344 187.5 206.25 L 187.5 168.75 C 187.5 116.972656 229.472656 75 281.25 75 Z M 281.25 75 "/>
<path style=" stroke:none;fill-rule:nonzero;fill:url(#linear0);" d="M 677.042969 131.25 L 222.953125 131.25 C 154.667969 131.25 102.128906 191.589844 111.523438 259.226562 L 140.625 468.75 L 759.375 468.75 L 788.476562 259.226562 C 797.867188 191.589844 745.332031 131.25 677.042969 131.25 Z M 677.042969 131.25 "/>
<path style=" stroke:none;fill-rule:nonzero;fill:url(#linear1);" d="M 677.042969 131.25 L 222.953125 131.25 C 154.667969 131.25 102.128906 191.589844 111.523438 259.226562 L 140.625 468.75 L 759.375 468.75 L 788.476562 259.226562 C 797.867188 191.589844 745.332031 131.25 677.042969 131.25 Z M 677.042969 131.25 "/>
<path style=" stroke:none;fill-rule:nonzero;fill:url(#linear2);" d="M 787.296875 658.632812 L 759.375 468.75 L 140.625 468.75 L 112.699219 658.632812 C 102.714844 726.550781 155.355469 787.5 224.003906 787.5 L 675.996094 787.5 C 744.644531 787.5 797.289062 726.550781 787.296875 658.632812 Z M 787.296875 658.632812 "/>
<path style=" stroke:none;fill-rule:nonzero;fill:rgb(100%,100%,100%);fill-opacity:1;" d="M 360.277344 626.398438 C 340.777344 626.398438 324.277344 623.550781 310.777344 617.851562 C 297.425781 612 285.949219 603.75 276.351562 593.101562 C 266.75 582.300781 259.625 570.824219 254.976562 558.675781 C 250.476562 546.523438 248.226562 540.449219 248.226562 540.449219 L 288.050781 526.5 C 288.050781 526.5 289.777344 530.925781 293.226562 539.773438 C 296.675781 548.625 301.476562 556.648438 307.625 563.851562 C 313.925781 570.898438 321.277344 576.300781 329.675781 580.050781 C 338.074219 583.800781 348.425781 585.675781 360.726562 585.675781 C 380.078125 585.675781 395.976562 580.125 408.425781 569.023438 C 420.878906 557.925781 427.101562 544.050781 427.101562 527.398438 C 427.101562 509.101562 421.175781 495.074219 409.328125 485.324219 C 397.476562 475.574219 380.828125 470.699219 359.375 470.699219 L 333.949219 470.699219 L 333.949219 430.648438 L 356.902344 430.648438 C 374.75 430.648438 388.851562 426.148438 399.203125 417.148438 C 409.550781 408 414.726562 395.023438 414.726562 378.226562 C 414.726562 363.523438 409.703125 351.675781 399.652344 342.675781 C 389.601562 333.675781 376.027344 329.175781 358.925781 329.175781 C 349.175781 329.175781 340.777344 330.675781 333.726562 333.675781 C 326.824219 336.675781 320.75 340.949219 315.5 346.5 C 310.25 352.050781 305.902344 358.425781 302.449219 365.625 C 299 372.675781 297.277344 376.199219 297.277344 376.199219 L 257.902344 361.351562 C 257.902344 361.351562 260.300781 356.101562 265.101562 345.601562 C 269.902344 334.949219 276.726562 325.199219 285.574219 316.351562 C 294.574219 307.5 305.152344 300.75 317.300781 296.101562 C 329.449219 291.300781 343.851562 288.898438 360.5 288.898438 C 392.453125 288.898438 416.828125 297.148438 433.628906 313.648438 C 450.578125 330.148438 459.050781 350.925781 459.050781 375.976562 C 459.050781 394.425781 454.402344 409.648438 445.101562 421.648438 C 435.953125 433.5 422.902344 442.050781 405.953125 447.300781 L 405.953125 448.648438 C 426.800781 453.898438 442.925781 463.199219 454.328125 476.550781 C 465.878906 489.75 471.652344 507.226562 471.652344 528.976562 C 471.652344 556.273438 461.527344 579.375 441.277344 598.273438 C 421.027344 617.023438 394.027344 626.398438 360.277344 626.398438 Z M 577.789062 618.75 L 577.789062 356.625 L 513.890625 403.875 L 490.9375 371.023438 L 592.863281 296.550781 L 621.4375 296.550781 L 621.4375 618.75 Z M 577.789062 618.75 "/>
</g>
</svg>
