<svg width="900" height="900" viewBox="0 0 900 900" fill="none" xmlns="http://www.w3.org/2000/svg">
<path fill-rule="evenodd" clip-rule="evenodd" d="M799.18 851.497C769.587 848.586 769.268 836.537 769.587 675.984C769.587 675.984 766.639 665.88 783.638 657.142C800.601 648.398 852.278 570.403 820.521 503.869C788.794 437.302 811.7 440.671 824.961 447.402C838.264 454.14 844.666 445.622 836.768 409.104C820.518 333.828 795.159 308.313 735.374 274.352C696.108 252.011 710.334 211.54 766.174 214.521C793.413 215.98 793.413 216.012 796.829 196.55C802.235 165.89 791.491 113.505 749.635 106.286C720.825 101.297 685.014 129.368 642.407 109.815C599.796 90.2601 529.376 139.085 500.57 150.415C471.76 161.748 447.967 161.877 415.107 161.132C382.208 160.41 432.534 210.702 482.894 222.032C526.14 231.747 509.321 238.739 506.863 270.923C504.093 306.957 515.4 322.402 496.941 326.189C468.634 331.948 436.977 262.698 388.396 233.688C278.072 167.801 212.633 199.173 20.2225 6.50196C-13.1747 -26.8789 0.377368 76.4054 20.9004 131.539C75.7781 278.855 182.083 298.376 232.23 302.814C274.198 306.567 302.79 297.696 302.79 312.43C302.79 323.114 253.321 327.969 234.15 328.035C213.126 327.954 192.152 326.081 171.483 322.437C133.324 315.956 191.722 404.51 229.243 432.58C292.548 480.014 365.031 497.79 423.285 503.163C440.108 504.719 464.047 504.454 464.047 516.437C464.047 527.833 451.457 530.615 436.553 530.715C354.964 531.277 308.09 590.58 294.791 659.15C286.36 702.73 292.655 752.006 293.545 788.819L296.748 815.108C303.154 861.28 120.771 879.054 96.6229 804.685C70.1966 723.419 214.307 680.455 216.939 602.915C218.609 554.057 169.531 531.878 169.531 531.878V460.522H113.018V409.138H56.6089V357.759H0.166202V511.905H56.6089V563.35H149.576C170.703 563.35 187.631 576.041 185.676 603.494C180.804 671.262 22.4635 712.897 65.9981 820.936C97.4364 898.965 233.015 899.967 368.768 899.967L621.922 899.807C629.819 899.807 640.914 896.342 624.769 859.175C611.715 829.164 566.725 850.242 528.526 850.242C488.088 850.242 486.702 819.159 512.665 786.362C528.526 766.351 548.73 751.462 583.05 736.924C635.898 714.484 676.122 743.332 695.932 768.102C724.387 803.685 733.418 844.347 708.312 850.726C678.047 858.434 668.727 859.469 667.73 885.692C666.967 904.502 676.835 899.357 724.458 899.357H882.544C907.016 899.357 905.201 882.194 880.587 852.41C863.126 831.267 844.024 855.971 799.178 851.536L799.18 851.497Z" fill="#8954FF"/>
</svg>
