<svg width="900" height="900" viewBox="0 0 900 900" fill="none" xmlns="http://www.w3.org/2000/svg">
<path d="M135.508 107.345L551.446 76.7202C602.508 72.3452 615.664 75.2514 647.758 98.5952L780.539 191.908C802.414 207.939 809.727 212.314 809.727 229.814V741.626C809.727 773.689 798.07 792.689 757.227 795.564L274.164 824.751C243.539 826.22 228.914 821.845 212.852 801.408L115.071 674.533C97.5706 651.189 90.2893 633.72 90.2893 613.283V158.345C90.2893 132.126 101.977 110.22 135.508 107.345Z" fill="white"/>
<path d="M214.352 206.501C237.664 225.439 246.414 224.001 290.227 221.064L703.196 196.283C711.946 196.283 704.664 187.533 701.758 186.095L633.133 136.501C620.008 126.314 602.477 114.626 568.914 117.533L169.071 146.72C154.508 148.158 151.571 155.47 157.383 161.283L214.352 206.501ZM239.133 302.751V737.251C239.133 760.595 250.789 769.345 277.071 767.876L730.914 741.626C757.196 740.189 760.133 724.126 760.133 705.158V273.564C760.133 254.626 752.852 244.408 736.758 245.845L262.477 273.564C244.977 275.033 239.133 283.814 239.133 302.751ZM687.164 326.033C690.071 339.158 687.164 352.283 674.039 353.783L652.164 358.158V678.908C633.164 689.126 615.664 694.97 601.071 694.97C577.696 694.97 571.852 687.658 554.352 665.814L411.321 441.251V658.501L456.571 668.751C456.571 668.751 456.571 695.001 420.071 695.001L319.383 700.814C316.477 695.001 319.383 680.408 329.602 677.501L355.852 670.22V382.939L319.446 380.001C316.508 366.876 323.821 347.939 344.227 346.47L452.227 339.189L601.102 566.658V365.408L563.133 361.064C560.227 345.001 571.883 333.345 586.477 331.908L687.164 326.033ZM135.508 107.345L551.446 76.7202C602.508 72.3452 615.664 75.2514 647.758 98.5952L780.539 191.908C802.414 207.939 809.727 212.314 809.727 229.814V741.626C809.727 773.689 798.07 792.689 757.227 795.564L274.164 824.751C243.539 826.22 228.914 821.845 212.852 801.408L115.071 674.533C97.5706 651.189 90.2893 633.72 90.2893 613.283V158.345C90.2893 132.126 101.977 110.22 135.508 107.345Z" fill="black"/>
</svg>
