<?xml version="1.0" encoding="UTF-8"?>
<svg xmlns="http://www.w3.org/2000/svg" xmlns:xlink="http://www.w3.org/1999/xlink" width="900px" height="px" viewBox="0 0 900 900" version="1.1">
<g id="surface1">
<path style=" stroke:none;fill-rule:nonzero;fill:rgb(11.372549%,11.372549%,11.372549%);fill-opacity:1;" d="M 843.75 450 C 843.75 667.351562 667.546875 843.75 450 843.75 C 232.453125 843.75 56.25 667.351562 56.25 450 C 56.25 232.453125 232.453125 56.25 450 56.25 C 667.546875 56.25 843.75 232.453125 843.75 450 Z M 843.75 450 "/>
<path style=" stroke:none;fill-rule:nonzero;fill:rgb(100%,100%,100%);fill-opacity:1;" d="M 251.851562 225 L 224.363281 337.5 L 318.882812 337.5 C 344.113281 337.5 366.101562 319.933594 372.21875 294.894531 C 380.898438 259.390625 354.652344 225 318.882812 225 Z M 251.851562 225 "/>
<path style=" stroke:none;fill-rule:nonzero;fill:rgb(100%,100%,100%);fill-opacity:1;" d="M 224.363281 393.75 L 196.875 506.25 L 291.394531 506.25 C 316.621094 506.25 338.613281 488.683594 344.730469 463.644531 C 353.40625 428.140625 327.164062 393.75 291.394531 393.75 Z M 224.363281 393.75 "/>
<path style=" stroke:none;fill-rule:nonzero;fill:rgb(100%,100%,100%);fill-opacity:1;" d="M 389.300781 506.25 L 416.789062 393.75 L 483.820312 393.75 C 519.585938 393.75 545.832031 428.140625 537.15625 463.644531 C 531.039062 488.683594 509.046875 506.25 483.820312 506.25 Z M 389.300781 506.25 "/>
<path style=" stroke:none;fill-rule:nonzero;fill:rgb(100%,100%,100%);fill-opacity:1;" d="M 389.300781 562.5 L 361.8125 675 L 456.332031 675 C 481.558594 675 503.550781 657.433594 509.667969 632.394531 C 518.34375 596.890625 492.097656 562.5 456.332031 562.5 Z M 389.300781 562.5 "/>
<path style=" stroke:none;fill-rule:nonzero;fill:rgb(100%,100%,100%);fill-opacity:1;" d="M 648.757812 618.75 L 554.234375 618.75 L 581.722656 506.25 L 648.757812 506.25 C 684.523438 506.25 710.765625 540.640625 702.09375 576.144531 C 695.972656 601.183594 673.980469 618.75 648.757812 618.75 Z M 648.757812 618.75 "/>
<path style=" stroke:none;fill-rule:nonzero;fill:rgb(100%,100%,100%);fill-opacity:1;" d="M 609.210938 337.5 L 581.722656 450 L 676.242188 450 C 701.472656 450 723.460938 432.433594 729.582031 407.394531 C 738.257812 371.890625 712.011719 337.5 676.242188 337.5 Z M 609.210938 337.5 "/>
<path style=" stroke:none;fill-rule:nonzero;fill:rgb(100%,100%,100%);fill-opacity:1;" d="M 416.789062 337.5 L 444.28125 225 L 511.308594 225 C 547.078125 225 573.320312 259.390625 564.644531 294.894531 C 558.527344 319.933594 536.539062 337.5 511.308594 337.5 Z M 416.789062 337.5 "/>
</g>
</svg>
