<svg width="900" height="900" viewBox="0 0 900 900" fill="none" xmlns="http://www.w3.org/2000/svg">
<path fill-rule="evenodd" clip-rule="evenodd" d="M436.381 14.2422C450.661 6.22656 468.244 6.22656 482.506 14.2422C553.069 53.8586 765.413 173.109 836 212.725C850.28 220.72 859.071 235.53 859.071 251.563C859.071 330.796 859.071 569.275 859.071 648.508C859.071 664.539 850.28 679.349 836 687.367C765.434 726.984 553.09 846.234 482.506 885.85C468.223 893.866 450.64 893.866 436.381 885.85C365.815 846.234 153.471 726.984 82.8871 687.367C68.6277 679.349 59.834 664.56 59.834 648.529C59.834 569.294 59.834 330.817 59.834 251.584C59.834 235.551 68.6277 220.741 82.9082 212.725C153.45 173.109 365.836 53.8586 436.381 14.2422Z" fill="#283593"/>
<path fill-rule="evenodd" clip-rule="evenodd" d="M66.2301 668.938C60.6355 661.448 59.834 654.337 59.834 644.765C59.834 565.994 59.834 328.884 59.834 250.091C59.834 234.144 68.6066 219.416 82.8449 211.464C153.157 172.08 364.786 53.5234 435.096 14.1179C449.337 6.14451 468.624 6.31091 482.862 14.2867C553.175 53.6711 764.089 171.217 834.401 210.602C840.08 213.801 844.411 217.649 848.281 222.721L66.2301 668.938Z" fill="#5C6BC0"/>
<path fill-rule="evenodd" clip-rule="evenodd" d="M459.452 155.5C621.97 155.5 753.909 287.479 753.909 450.048C753.909 612.616 621.97 744.595 459.452 744.595C296.934 744.595 164.997 612.616 164.997 450.048C164.997 287.479 296.934 155.5 459.452 155.5ZM459.452 302.774C540.7 302.774 606.679 368.753 606.679 450.048C606.679 531.323 540.7 597.32 459.452 597.32C378.203 597.32 312.224 531.323 312.224 450.048C312.224 368.753 378.182 302.774 459.452 302.774Z" fill="white"/>
<path fill-rule="evenodd" clip-rule="evenodd" d="M848.239 222.923C859.093 233.085 858.882 248.402 858.882 260.458C858.882 340.3 858.209 567.398 859.071 647.24C859.156 655.572 856.4 664.345 852.277 670.952L450.893 450.042L848.239 222.923Z" fill="#3949AB"/>
<path fill-rule="evenodd" clip-rule="evenodd" d="M606.68 386.927H648.745V513.161H606.68V386.927ZM753.909 386.927H795.973V513.161H753.909V386.927Z" fill="white"/>
<path fill-rule="evenodd" clip-rule="evenodd" d="M564.616 429.006H690.81V471.083H564.616V429.006ZM711.843 429.006H838.038V471.083H711.843V429.006Z" fill="white"/>
</svg>
