<svg width="900" height="900" viewBox="0 0 900 900" fill="none" xmlns="http://www.w3.org/2000/svg">
<path fill-rule="evenodd" clip-rule="evenodd" d="M526.609 103.138L711.67 209.986C716.881 204.467 722.968 199.593 729.873 195.582C768.254 173.519 817.207 186.619 839.5 225C861.563 263.381 848.463 312.334 810.082 334.627C803.23 338.566 796.033 341.384 788.708 343.138V556.917C795.954 558.675 803.072 561.475 809.852 565.373C848.463 587.666 861.563 636.619 839.27 675C817.207 713.381 768.024 726.481 729.643 704.418C722.002 700.025 715.362 694.558 709.803 688.314L525.872 794.511C528.501 802.456 529.924 810.954 529.924 819.791C529.924 863.917 494.071 900 449.714 900C405.358 900 369.505 864.147 369.505 819.791C369.505 811.906 370.638 804.29 372.75 797.097L187.739 690.277C182.583 695.689 176.581 700.471 169.786 704.418C131.175 726.481 82.222 713.381 60.1586 675C38.0953 636.619 51.1954 587.666 89.5764 565.373C96.3625 561.472 103.479 558.67 110.72 556.913V343.138C103.395 341.384 96.1988 338.566 89.3466 334.627C50.9656 312.564 37.8655 263.381 59.9288 225C81.9921 186.619 131.175 173.519 169.556 195.582C176.423 199.571 182.482 204.414 187.674 209.896L372.784 103.02C370.65 95.7918 369.505 88.1364 369.505 80.2094C369.505 35.8529 405.358 0 449.714 0C494.071 0 529.924 35.8529 529.924 80.2094C529.924 88.1799 528.766 95.8757 526.609 103.138ZM507.328 136.059L692.829 243.161C687.095 263.3 689.2 285.63 700.455 305.209C711.747 324.852 730.142 337.874 750.557 342.948V556.995C749.517 557.25 748.481 557.526 747.452 557.823L505.174 138.198C505.906 137.498 506.624 136.785 507.328 136.059ZM394.305 138.246L152.031 557.864C150.984 557.56 149.93 557.277 148.872 557.016V342.948C169.287 337.874 187.682 324.852 198.974 305.209C210.251 285.591 212.342 263.211 206.565 243.041L392.014 135.969C392.762 136.744 393.526 137.503 394.305 138.246ZM472.126 157.256L714.344 576.779C708.923 581.948 704.146 587.97 700.225 594.791C696.327 601.571 693.527 608.689 691.769 615.935H207.663C205.906 608.693 203.105 601.577 199.204 594.791C195.267 588.014 190.5 582.025 185.106 576.878L427.37 157.276C434.461 159.322 441.958 160.419 449.714 160.419C457.496 160.419 465.015 159.315 472.126 157.256ZM509.032 765.754L693.329 659.347C692.776 657.61 692.282 655.856 691.847 654.086H207.561C207.304 655.126 207.027 656.16 206.729 657.189L391.93 764.118C406.512 748.985 426.998 739.581 449.714 739.581C473.238 739.581 494.371 749.665 509.032 765.754Z" fill="#E535AB"/>
</svg>
