<svg width="900" height="900" viewBox="0 0 900 900" fill="none" xmlns="http://www.w3.org/2000/svg">
<path d="M34.2394 268.563H865.761C881.969 268.563 895.109 281.703 895.109 297.911V601.172C895.109 617.38 881.969 630.52 865.761 630.52H34.2394C18.0311 630.52 4.8916 617.38 4.8916 601.172V297.911C4.8916 281.703 18.0311 268.563 34.2394 268.563Z" fill="white"/>
<path d="M34.2391 263.672H865.761C884.671 263.672 900 279.001 900 297.911V601.172C900 620.082 884.671 635.411 865.761 635.411H34.2391C15.3294 635.411 0 620.082 0 601.172V297.911C0 279.001 15.3294 263.672 34.2391 263.672ZM34.2391 273.454C20.7322 273.454 9.78261 284.404 9.78261 297.911V601.172C9.78261 614.679 20.7322 625.628 34.2391 625.628H865.761C879.268 625.628 890.217 614.679 890.217 601.172V297.911C890.217 284.404 879.268 273.454 865.761 273.454H34.2391Z" fill="#EAEAEA"/>
<path d="M479.348 334.341L479.346 483.572L534.161 428.767L561.83 456.438L460.506 557.754L357.904 455.152L385.574 427.483L440.215 482.124L440.217 334.341H479.348Z" fill="black"/>
<path d="M126.848 550.159V434.587L197.608 505.352L268.905 434.061V548.991H308.035V339.596L197.61 450.013L87.7178 340.113V550.159H126.848Z" fill="black"/>
<path d="M787.231 328.098L814.9 355.768L732.02 438.644L812.35 518.976L784.681 546.646L704.348 466.315L624.015 546.646L596.346 518.976L676.67 438.644L593.796 355.768L621.465 328.098L704.348 410.972L787.231 328.098Z" fill="#F9AC00"/>
</svg>
