<svg width="900" height="900" viewBox="0 0 900 900" fill="none" xmlns="http://www.w3.org/2000/svg">
<g clip-path="url(#clip0_334_952)">
<path d="M893.835 438.959L856.052 415.571C855.734 411.89 855.372 408.219 854.977 404.564L887.446 374.279C890.748 371.201 892.227 366.643 891.332 362.232C890.464 357.804 887.36 354.158 883.138 352.584L841.632 337.064C840.591 333.469 839.499 329.901 838.381 326.35L864.272 290.389C866.912 286.735 867.454 281.98 865.734 277.809C864.014 273.656 860.256 270.681 855.811 269.95L812.043 262.83C810.341 259.511 808.569 256.244 806.781 253.002L825.173 212.631C827.057 208.52 826.67 203.74 824.159 200.008C821.657 196.259 817.417 194.066 812.894 194.238L768.473 195.786C766.177 192.914 763.838 190.067 761.456 187.273L771.663 144.004C772.695 139.61 771.397 135.009 768.198 131.819C765.025 128.638 760.416 127.322 756.022 128.354L712.762 138.552C709.958 136.179 707.112 133.831 704.232 131.536L705.788 87.1143C705.96 82.6171 703.767 78.3435 700.018 75.8498C696.26 73.339 691.505 72.9607 687.404 74.8266L647.041 93.228C643.782 91.4394 640.515 89.6681 637.213 87.9569L630.076 44.1805C629.353 39.7436 626.378 35.9773 622.216 34.2575C618.063 32.5292 613.299 33.0881 609.645 35.7193L573.659 61.6103C570.116 60.4838 566.556 59.4004 562.962 58.3685L547.441 16.8536C545.868 12.623 542.222 9.51885 537.794 8.64178C533.374 7.7733 528.825 9.24369 525.755 12.5284L495.47 45.0232C491.816 44.6191 488.136 44.2493 484.464 43.9484L461.075 6.15673C458.711 2.33027 454.523 0 450.017 0C445.511 0 441.324 2.33027 438.968 6.15673L415.579 43.9484C411.899 44.2493 408.219 44.6191 404.564 45.0232L374.271 12.5284C371.201 9.24369 366.643 7.7733 362.232 8.64178C357.804 9.52745 354.158 12.623 352.584 16.8536L337.064 58.3685C333.469 59.4004 329.909 60.4924 326.358 61.6103L290.381 35.7193C286.726 33.0795 281.963 32.5206 277.801 34.2575C273.648 35.9773 270.664 39.7436 269.942 44.1805L262.805 87.9569C259.503 89.6681 256.235 91.4308 252.976 93.228L212.613 74.8266C208.512 72.9521 203.731 73.339 199.999 75.8498C196.25 78.3435 194.057 82.6171 194.229 87.1143L195.777 131.536C192.905 133.831 190.059 136.179 187.247 138.552L143.987 128.354C139.593 127.331 134.984 128.638 131.802 131.819C128.603 135.009 127.305 139.61 128.337 144.004L138.526 187.273C136.162 190.076 133.823 192.914 131.527 195.786L87.1057 194.238C82.6257 194.109 78.3435 196.259 75.8413 200.008C73.3304 203.74 72.9521 208.52 74.818 212.631L93.2194 253.002C91.4308 256.244 89.6595 259.511 87.9483 262.83L44.1805 269.95C39.735 270.672 35.9859 273.648 34.2575 277.809C32.5378 281.98 33.0967 286.735 35.7193 290.389L61.6103 326.35C60.4838 329.901 59.3918 333.469 58.3599 337.064L16.845 352.584C12.6316 354.158 9.52745 357.804 8.65037 362.232C7.7733 366.652 9.24369 371.201 12.537 374.279L45.0146 404.564C44.6105 408.219 44.2493 411.899 43.9398 415.571L6.15673 438.959C2.33027 441.324 0 445.503 0 450.017C0 454.532 2.33027 458.711 6.15673 461.067L43.9398 484.455C44.2493 488.136 44.6105 491.807 45.0146 495.462L12.537 525.755C9.24369 528.825 7.7733 533.382 8.65037 537.794C9.52745 542.222 12.6316 545.859 16.845 547.441L58.3599 562.962C59.3918 566.556 60.4838 570.125 61.6103 573.676L35.7193 609.645C33.0881 613.308 32.5292 618.063 34.2575 622.216C35.9859 626.387 39.7436 629.362 44.1891 630.076L87.9483 637.195C89.6595 640.515 91.4136 643.782 93.2194 647.041L74.818 687.395C72.9435 691.497 73.3304 696.269 75.8413 700.018C78.3521 703.776 82.6257 705.969 87.1057 705.788L131.51 704.232C133.823 707.121 136.153 709.95 138.526 712.762L128.337 756.039C127.305 760.425 128.603 765.008 131.802 768.198C134.975 771.405 139.593 772.686 143.987 771.655L187.247 761.465C190.059 763.856 192.905 766.177 195.777 768.464L194.229 812.894C194.057 817.392 196.25 821.657 199.999 824.167C203.731 826.67 208.512 827.048 212.613 825.173L252.976 806.781C256.226 808.586 259.494 810.341 262.805 812.052L269.942 855.802C270.664 860.256 273.639 864.023 277.801 865.734C281.954 867.462 286.726 866.903 290.381 864.281L326.341 838.373C329.892 839.499 333.461 840.6 337.055 841.632L352.576 883.129C354.149 887.343 357.795 890.464 362.224 891.324C366.643 892.218 371.192 890.739 374.262 887.437L404.555 854.96C408.21 855.381 411.89 855.734 415.571 856.06L438.959 893.843C441.315 897.653 445.503 900 450.009 900C454.514 900 458.702 897.661 461.067 893.843L484.455 856.06C488.136 855.734 491.807 855.381 495.462 854.96L525.747 887.437C528.816 890.739 533.374 892.218 537.785 891.324C542.213 890.455 545.859 887.343 547.433 883.129L562.954 841.632C566.548 840.6 570.116 839.499 573.668 838.373L609.636 864.281C613.291 866.903 618.055 867.462 622.208 865.734C626.37 864.023 629.345 860.248 630.067 855.802L637.204 812.052C640.506 810.341 643.774 808.561 647.033 806.781L687.395 825.173C691.497 827.048 696.269 826.67 700.01 824.167C703.759 821.657 705.943 817.4 705.779 812.894L704.232 768.464C707.104 766.169 709.95 763.856 712.753 761.465L756.013 771.655C760.407 772.686 765.016 771.405 768.189 768.198C771.388 765.008 772.686 760.425 771.655 756.039L761.465 712.762C763.838 709.95 766.177 707.121 768.464 704.232L812.886 705.788C817.366 705.969 821.648 703.776 824.15 700.018C826.661 696.269 827.048 691.497 825.165 687.395L806.772 647.041C808.569 643.782 810.332 640.515 812.035 637.195L855.802 630.076C860.256 629.362 864.006 626.387 865.725 622.216C867.445 618.063 866.903 613.308 864.264 609.645L838.373 573.676C839.49 570.125 840.582 566.556 841.623 562.962L883.129 547.441C887.351 545.859 890.464 542.222 891.324 537.794C892.218 533.374 890.739 528.825 887.437 525.755L854.968 495.462C855.364 491.807 855.725 488.127 856.043 484.455L893.826 461.067C897.653 458.711 899.983 454.523 899.983 450.017C899.983 445.511 897.661 441.324 893.835 438.959ZM640.953 752.393C626.524 749.281 617.35 735.058 620.445 720.586C623.532 706.132 637.746 696.931 652.166 700.044C666.595 703.131 675.787 717.379 672.691 731.825C669.596 746.271 655.373 755.48 640.953 752.393ZM628.115 665.563C614.95 662.742 602.001 671.118 599.18 684.308L585.766 746.907C544.372 765.696 498.403 776.135 449.991 776.135C400.471 776.135 353.505 765.18 311.37 745.592L297.965 682.993C295.145 669.819 282.195 661.427 269.039 664.256L213.774 676.122C203.516 665.563 193.971 654.316 185.201 642.441H454.102C457.146 642.441 459.175 641.89 459.175 639.122V544.002C459.175 541.233 457.146 540.683 454.102 540.683H375.457V480.388H460.516C468.281 480.388 502.031 482.607 512.823 525.747C516.202 539.015 523.623 582.172 528.696 595.99C533.752 611.485 554.338 642.441 576.273 642.441H710.268C711.79 642.441 713.415 642.269 715.126 641.959C705.831 654.591 695.633 666.543 684.652 677.713L628.115 665.563ZM256.201 751.086C241.772 754.199 227.567 744.998 224.463 730.544C221.376 716.064 230.551 701.85 244.979 698.737C259.408 695.65 273.622 704.851 276.717 719.305C279.804 733.751 270.621 747.991 256.201 751.086ZM154.193 337.442C160.178 350.951 154.09 366.781 140.599 372.757C127.107 378.751 111.32 372.654 105.335 359.137C99.3503 345.619 105.438 329.815 118.93 323.822C132.43 317.837 148.209 323.925 154.193 337.442ZM122.842 411.761L180.411 386.18C192.707 380.72 198.262 366.308 192.802 353.986L180.944 327.175H227.575V537.364H133.496C125.336 508.678 120.959 478.402 120.959 447.111C120.959 435.167 121.604 423.361 122.842 411.761ZM375.474 391.348V329.394H486.519C492.254 329.394 527.019 336.023 527.019 362.017C527.019 383.6 500.354 391.339 478.428 391.339H375.474V391.348ZM779.032 447.111C779.032 455.331 778.731 463.466 778.13 471.54H744.371C740.991 471.54 739.633 473.758 739.633 477.069V492.573C739.633 529.066 719.056 537.002 701.024 539.023C683.852 540.958 664.815 531.835 662.467 521.327C652.338 464.351 635.459 452.184 608.802 431.16C641.882 410.153 676.303 379.163 676.303 337.683C676.303 292.892 645.596 264.679 624.667 250.844C595.302 231.488 562.79 227.61 554.02 227.61H204.883C252.228 174.77 316.392 137.34 388.966 123.719L430.12 166.894C439.424 176.636 454.833 176.997 464.566 167.685L510.613 123.642C607.1 141.605 688.788 201.667 735.866 284.069L704.343 355.267C698.9 367.589 704.455 382.001 716.743 387.461L777.433 414.418C778.482 425.193 779.032 436.079 779.032 447.111ZM430.137 86.9939C440.799 76.7785 457.713 77.1827 467.92 87.8623C478.109 98.5678 477.723 115.499 467.034 125.706C456.372 135.921 439.458 135.525 429.251 124.829C419.07 114.14 419.457 97.2092 430.137 86.9939ZM742.961 338.74C748.937 325.232 764.724 319.135 778.216 325.129C791.707 331.113 797.795 346.935 791.81 360.444C785.834 373.961 770.047 380.058 756.547 374.064C743.072 368.079 736.984 352.266 742.961 338.74Z" fill="white"/>
</g>
<defs>
<clipPath id="clip0_334_952">
<rect width="900" height="900" fill="white"/>
</clipPath>
</defs>
</svg>
