<svg width="900" height="900" viewBox="0 0 900 900" fill="none" xmlns="http://www.w3.org/2000/svg">
<path d="M203.579 113.792C303.323 189.733 410.609 343.71 449.999 426.343C489.392 343.717 596.672 189.732 696.419 113.792C768.389 58.9962 884.999 16.5981 884.999 151.511C884.999 178.455 869.767 377.854 860.833 410.226C829.778 522.773 716.617 551.478 615.958 534.104C791.908 564.474 836.668 665.07 740.003 765.665C556.418 956.716 476.138 717.73 455.558 656.493C451.787 645.267 450.022 640.015 449.997 644.481C449.97 640.015 448.206 645.267 444.435 656.493C423.864 717.73 343.586 956.722 159.99 765.665C63.324 665.07 108.083 564.468 284.036 534.104C183.374 551.478 70.2105 522.772 39.1605 410.226C30.2262 377.851 14.994 178.452 14.994 151.511C14.994 16.5981 131.607 58.9962 203.574 113.792H203.579Z" fill="#1185FE"/>
</svg>
