<svg width="900" height="900" viewBox="0 0 900 900" fill="none" xmlns="http://www.w3.org/2000/svg">
<path d="M0 150C0 67.1573 67.1573 0 150 0H750C832.843 0 900 67.1573 900 150V750C900 832.843 832.843 900 750 900H150C67.1573 900 0 832.843 0 750V150Z" fill="#0A66C2"/>
<path d="M202.005 279.495C245.124 279.495 280.079 244.54 280.079 201.42C280.079 158.3 245.124 123.345 202.005 123.345C158.885 123.345 123.93 158.3 123.93 201.42C123.93 244.54 158.885 279.495 202.005 279.495Z" fill="white"/>
<path d="M351.583 337.195H480.978V396.471C480.978 396.471 516.091 326.245 611.629 326.245C696.853 326.245 767.451 368.228 767.451 496.197V766.047H633.361V528.896C633.361 453.406 593.059 445.103 562.349 445.103C498.614 445.103 487.702 500.079 487.702 538.743V766.047H351.583V337.195Z" fill="white"/>
<path d="M133.945 337.195H270.065V766.047H133.945V337.195Z" fill="white"/>
</svg>
