<svg width="900" height="900" viewBox="0 0 900 900" fill="none" xmlns="http://www.w3.org/2000/svg">
<g clip-path="url(#clip0_18_238)">
<path d="M0 150C0 67.1573 67.1573 0 150 0H750C832.843 0 900 67.1573 900 150V750C900 832.843 832.843 900 750 900H150C67.1573 900 0 832.843 0 750V150Z" fill="black"/>
<path d="M505.85 404.05L724.425 150H672.625L482.85 370.6L331.275 150H156.45L385.65 483.575L156.45 750H208.25L408.65 517.05L568.725 750H743.55L505.85 404.05ZM434.925 486.525L411.7 453.3L226.9 189H306.45L455.575 402.3L478.8 435.525L672.65 712.775H593.1L434.925 486.525Z" fill="white"/>
</g>
<defs>
<clipPath id="clip0_18_238">
<rect width="900" height="900" fill="white"/>
</clipPath>
</defs>
</svg>
