<?xml version="1.0" encoding="UTF-8"?>
<svg xmlns="http://www.w3.org/2000/svg" xmlns:xlink="http://www.w3.org/1999/xlink" width="900px" height="px" viewBox="0 0 900 900" version="1.1">
<g id="surface1">
<path style=" stroke:none;fill-rule:nonzero;fill:rgb(100%,100%,100%);fill-opacity:1;" d="M 900 899.964844 C 900 899.984375 899.984375 900 899.964844 900 L 0.0351562 900 C 0.015625 900 0 899.984375 0 899.964844 L 0 0.0351562 C 0 0.015625 0.015625 0 0.0351562 0 L 899.976562 0 C 899.992188 0 900.007812 0.015625 900.007812 0.0351562 L 900.007812 899.964844 Z M 900 899.964844 "/>
<path style=" stroke:none;fill-rule:nonzero;fill:rgb(81.568629%,0%,0%);fill-opacity:1;" d="M 885 884.964844 C 885 884.984375 884.984375 885 884.964844 885 L 15.035156 885 C 15.015625 885 15 884.984375 15 884.964844 L 15 15.035156 C 15 15.015625 15.015625 15 15.035156 15 L 884.976562 15 C 884.992188 15 885.007812 15.015625 885.007812 15.035156 L 885.007812 884.964844 Z M 885 884.964844 "/>
<path style=" stroke:none;fill-rule:nonzero;fill:rgb(100%,100%,100%);fill-opacity:1;" d="M 252.5 686.390625 C 252.5 687.050781 252.882812 687.964844 253.339844 688.425781 L 268.234375 703.316406 C 268.699219 703.785156 269.617188 704.160156 270.265625 704.160156 L 321.226562 704.160156 C 321.882812 704.160156 322.800781 703.773438 323.257812 703.316406 L 338.148438 688.425781 C 338.617188 687.957031 338.992188 687.042969 338.992188 686.390625 L 338.992188 524.699219 C 338.992188 524.042969 339.382812 523.132812 339.859375 522.683594 L 404.601562 460.851562 C 405.074219 460.398438 405.765625 460.464844 406.132812 461.015625 L 569.707031 703.183594 C 570.074219 703.726562 570.917969 704.175781 571.566406 704.175781 L 643.757812 704.175781 C 644.417969 704.175781 645.199219 703.699219 645.5 703.117188 L 658.601562 677.734375 C 658.898438 677.148438 658.839844 676.234375 658.464844 675.691406 L 467.132812 398.359375 C 466.757812 397.816406 466.832031 397 467.300781 396.535156 L 643.285156 221.375 C 643.75 220.910156 644.125 220 644.125 219.339844 L 644.125 216.109375 C 644.125 215.449219 643.910156 214.425781 643.648438 213.816406 L 633.5 190.476562 C 633.242188 189.875 632.484375 189.382812 631.832031 189.382812 L 560.476562 189.382812 C 559.816406 189.382812 558.898438 189.765625 558.441406 190.226562 L 339.851562 409.640625 C 339.382812 410.109375 339.007812 409.949219 339.007812 409.292969 L 339.007812 208 C 339.007812 207.339844 338.640625 206.417969 338.191406 205.933594 L 323.582031 190.265625 C 323.132812 189.785156 322.234375 189.390625 321.574219 189.390625 L 270.265625 189.390625 C 269.609375 189.390625 268.707031 189.785156 268.257812 190.265625 L 253.300781 206.417969 C 252.851562 206.898438 252.492188 207.824219 252.492188 208.484375 L 252.492188 686.390625 Z M 252.5 686.390625 "/>
</g>
</svg>
