<?xml version="1.0" encoding="UTF-8"?><svg width="171.51mm" height="32.701mm" version="1.1" viewBox="0 0 171.51 32.701" xmlns="http://www.w3.org/2000/svg"><g transform="translate(-17.207 -128.25)"><g fill="#00adef"><path d="m17.207 132.88 13.323-1.8144 0.0058 12.851-13.316 0.0758zm13.317 12.517 0.01035 12.862-13.316-1.8308-7.94e-4 -11.117zm1.615-14.569 17.665-2.5782v15.503l-17.665 0.14024zm17.669 14.69-0.0042 15.433-17.665-2.4932-0.02474-12.969z" fill-rule="evenodd"/><path d="m88.349 133.8c-0.4785 3e-5 -0.8849 0.16457-1.2196 0.49351-0.33467 0.32899-0.5023 0.73369-0.5023 1.2139 0 0.48707 0.16605 0.89107 0.49816 1.2123 0.3321 0.3213 0.74007 0.48216 1.2237 0.48214 0.48761 2e-5 0.90129-0.16645 1.2402-0.49971 0.33893-0.33322 0.50797-0.73162 0.50798-1.1948-5e-6 -0.47791-0.16992-0.88168-0.51056-1.2118-0.34065-0.33009-0.75345-0.49555-1.2377-0.49558zm29.232 0.01v7.8807c-0.8756-1.0707-2.1638-1.6082-3.868-1.6082-2.0052 1e-5 -3.6045 0.71303-4.7976 2.1394-1.1931 1.4264-1.7896 3.3067-1.7896 5.6405 0 2.1852 0.54024 3.9207 1.6206 5.2069 1.0803 1.2863 2.5349 1.9296 4.3641 1.9296 1.9552 0 3.445-0.67066 4.4705-2.0107v1.6893h2.8004v-20.867zm64.601 0.77722c-0.80264 2e-5 -1.5562 0.13077-2.2603 0.39222-0.70408 0.26149-1.3101 0.6233-1.8185 1.0847-0.50841 0.46143-0.90611 1.0075-1.1932 1.6387-0.2871 0.63118-0.43098 1.3189-0.43098 2.0634 0 0.94049 0.25871 1.7939 0.77566 2.56 0.51696 0.76619 1.1653 1.3019 1.9451 1.6066-0.47509 0.0906-0.94584 0.32876-1.4118 0.71468-0.46598 0.38595-0.8558 0.81328-1.17 1.2821s-0.55455 0.96869-0.72089 1.5002c-0.16633 0.53149-0.24959 1.0689-0.24959 1.6123 0 0.87782 0.1615 1.682 0.4842 2.4117 0.32271 0.72971 0.77665 1.3562 1.3617 1.88 0.58502 0.52379 1.2735 0.93023 2.065 1.219 0.79152 0.28881 1.666 0.43305 2.6236 0.43305 0.96212 0 1.8414-0.14424 2.6381-0.43305 0.79664-0.28881 1.4853-0.69525 2.066-1.219 0.58074-0.52379 1.0305-1.152 1.3498-1.8852 0.31927-0.73313 0.47902-1.5356 0.47904-2.4066-2e-5 -0.53489-0.0839-1.0701-0.25167-1.6061-0.16777-0.53602-0.40939-1.0396-0.72553-1.511-0.31617-0.47138-0.70348-0.89877-1.1612-1.2816-0.45773-0.38279-0.9199-0.62027-1.387-0.71313 0.75933-0.30304 1.3985-0.83896 1.9172-1.6071 0.51864-0.76816 0.77771-1.6204 0.77773-2.557-2e-5 -0.72856-0.1421-1.4105-0.42633-2.0454-0.28427-0.63486-0.68022-1.1822-1.188-1.6428-0.50785-0.46054-1.1144-0.82427-1.819-1.0909-0.70466-0.26657-1.4608-0.39995-2.2691-0.39997zm-110.76 0.29455-4.5062 16.099-4.2762-16.097-3.0365 8e-3 5.6307 19.521 3.2448-0.0326 4.2199-15.331 4.2385 15.348 3.2406 0.0325 5.4565-19.546-2.9688 0.0165-4.0783 16.284-4.2514-16.293zm110.77 2.1017c0.39874 2e-5 0.77316 0.0743 1.1229 0.22325 0.34976 0.14898 0.65637 0.35512 0.91984 0.61856 0.26345 0.26348 0.47047 0.57429 0.62115 0.93173 0.15066 0.35747 0.22633 0.75161 0.22635 1.1834-2e-5 0.41187-0.0785 0.79742-0.23513 1.156-0.15666 0.35861-0.36525 0.67-0.62529 0.93431-0.26005 0.26433-0.56399 0.4724-0.9126 0.62477-0.34863 0.15239-0.72135 0.22894-1.1172 0.22892-0.39934 2e-5 -0.76979-0.0737-1.1116-0.22065-0.34179-0.14696-0.64619-0.35444-0.91363-0.62219-0.26746-0.26772-0.476-0.5776-0.62581-0.92966-0.14982-0.35202-0.2248-0.74255-0.22479-1.1715-1e-5 -0.41868 0.0697-0.80804 0.20929-1.1689 0.13956-0.36086 0.33637-0.67254 0.59015-0.93431 0.25377-0.26174 0.55619-0.4694 0.90795-0.62322 0.35175-0.15379 0.74116-0.23046 1.1684-0.23048zm-52.367 3.066c-2.2336 1e-5 -4.0084 0.67244-5.3242 2.0169-1.3159 1.3445-1.9735 3.1948-1.9735 5.5516 0 2.1724 0.6322 3.9239 1.8965 5.2539 1.2643 1.3301 2.9573 1.9952 5.0793 1.9952 2.1732 0 3.9061-0.6839 5.1986-2.051 1.2925-1.3671 1.9389-3.1708 1.9389-5.411-1e-5 -2.2833-0.60128-4.0801-1.8035-5.3904-1.2022-1.3102-2.8731-1.9652-5.0121-1.9652zm33.547 0.0331c-0.61455 1e-5 -1.2182 0.0898-1.8113 0.26975-0.59301 0.18002-1.123 0.449-1.589 0.80615-0.4661 0.35719-0.83941 0.80086-1.1198 1.3312-0.28042 0.53035-0.42065 1.1418-0.42065 1.8345 0 0.56453 0.0751 1.0587 0.22531 1.4831 0.15022 0.4244 0.37254 0.80208 0.66663 1.1328 0.2941 0.33069 0.65315 0.62336 1.0774 0.87798 0.4243 0.25464 0.91656 0.50699 1.4764 0.75706 0.34856 0.1521 0.69656 0.30859 1.0439 0.46923 0.34729 0.16064 0.63394 0.32997 0.86042 0.50797 0.22644 0.17802 0.40301 0.37588 0.52916 0.59377s0.18913 0.48437 0.18914 0.79995c-1e-5 1.1045-0.76924 1.6573-2.3079 1.6573-1.2184 0-2.4797-0.44239-3.7838-1.327v2.7921c1.0502 0.62034 2.228 0.93069 3.5336 0.93069 0.66672 0 1.3014-0.0832 1.9043-0.25011 0.60288-0.16691 1.1409-0.42626 1.6139-0.77773 0.47293-0.35147 0.85429-0.79935 1.1436-1.3431 0.28928-0.54373 0.43356-1.1759 0.43357-1.8965-1e-5 -0.58673-0.0883-1.0988-0.26562-1.5369-0.17733-0.43805-0.42816-0.82227-0.75189-1.1524-0.32374-0.33011-0.70111-0.61887-1.1328-0.8661-0.43166-0.24722-0.9371-0.49566-1.5157-0.74517-0.40379-0.17886-0.75612-0.33962-1.0573-0.48318-0.30119-0.14354-0.55204-0.30003-0.7524-0.46922-0.20038-0.16917-0.34922-0.35576-0.44649-0.55914-0.0973-0.20335-0.14573-0.4644-0.14573-0.78341 0-0.24323 0.0477-0.46332 0.14366-0.66043 0.096-0.19709 0.23623-0.37014 0.42065-0.51883 0.18441-0.14867 0.40942-0.26548 0.6749-0.35036 0.26547-0.0849 0.56584-0.12712 0.90123-0.12713 1.1065 1e-5 2.2294 0.33084 3.3678 0.99219v-2.666c-0.97729-0.4819-2.0124-0.72294-3.1052-0.72295zm-67.937 2.5838-0.01601-2.1859-2.6722 0.0114-0.01138 13.935 2.7182 0.0233 0.03514-7.7758c0.0074-1.6483 0.15912-2.1641 0.97927-3.1073 0.66818-0.7684 1.5964-1.1756 2.5967-1.1756 2.0829-0.0195 2.9595 1.541 2.9595 4.2829v7.7758h2.6836l-0.0233-8.338c-2e-5 -1.8889-0.30666-3.4892-1.1534-4.5217-0.84679-1.0325-2.023-1.4671-3.622-1.4671-2.1578-3e-5 -3.4869 1.0613-4.4741 2.543zm41.718-2.2288 4.3212 14.009h2.7213l3.2794-10.795 2.9357 10.803 2.8985-0.0165 4.1021-14.001h-2.7709l-2.7244 11.451 0.0941 0.3483-3.2029-11.8h-2.5296l-3.268 11.299-2.9538-11.299zm-47.581 0.0248-2.7094 0.0165 0.05788 13.935 2.635 0.0207zm40.092 1.9678c1.3182 1e-5 2.3352 0.43198 3.0504 1.296 0.71518 0.86409 1.0723 2.1174 1.0723 3.759-1e-5 1.6263-0.35646 2.8665-1.0702 3.7207-0.71378 0.85417-1.7315 1.2811-3.0525 1.2811-1.3022 0-2.3414-0.43598-3.1182-1.3074-0.77672-0.87144-1.1653-2.085-1.1653-3.6411-1e-5 -1.6167 0.38532-2.8723 1.1555-3.7667 0.77015-0.89434 1.8127-1.3415 3.128-1.3415zm-15.671 0.0491c1.031 1e-5 1.8864 0.35675 2.5662 1.0702 0.67986 0.71349 1.0196 1.5885 1.0196 2.6246v2.0242c-1e-5 1.2868-0.35611 2.3424-1.0682 3.1672-0.71207 0.82485-1.6317 1.2376-2.759 1.2376-1.1439 0-2.0589-0.42675-2.745-1.2795-0.68615-0.85275-1.0289-2.0422-1.0289-3.5682-1e-5 -1.6759 0.35977-2.974 1.0795-3.8949 0.71974-0.92082 1.6985-1.3813 2.9357-1.3813zm68.199 2.7482c0.54172 1e-5 1.0294 0.0939 1.463 0.28216 0.43349 0.18828 0.80814 0.44873 1.1234 0.78083 0.31529 0.33211 0.55871 0.71761 0.73019 1.1565 0.17145 0.43892 0.25682 0.90809 0.25683 1.4077-1e-5 0.55598-0.0905 1.0609-0.2713 1.5146-0.18087 0.45373-0.42821 0.83526-0.74207 1.1452-0.31389 0.30989-0.68807 0.55092-1.1224 0.72295-0.43436 0.17204-0.91357 0.25787-1.4376 0.25787-0.54915 0-1.0412-0.083-1.4764-0.2496-0.43522-0.16662-0.80608-0.40572-1.1131-0.71675-0.30705-0.31102-0.54545-0.69017-0.7152-1.1379-0.16976-0.44773-0.25477-0.95985-0.25477-1.5363 0-0.53887 0.0915-1.0312 0.27492-1.4764s0.43385-0.8263 0.75086-1.1436c0.317-0.31729 0.69206-0.56439 1.125-0.74156 0.43292-0.17715 0.90227-0.26561 1.4087-0.26562z"/><path d="m54.636 160.95h-0.2723v-1.2052h-0.01011l-0.55217 1.2052h-0.14875l-0.53957-1.2052h-0.0101v1.2052h-0.25718v-1.6691h0.32021l0.5673 1.2506h0.01011l0.57487-1.2506h0.31769zm-2.0019-1.422h-0.52696v1.422h-0.27987v-1.422h-0.5194v-0.2471h1.3262z"/><path d="m169.12 143.1c-0.39355 0-0.7294-0.1383-1.0076-0.41489-0.27659-0.27659-0.41489-0.61165-0.41489-1.0052s0.1383-0.72862 0.41489-1.0052c0.27817-0.27817 0.61402-0.41725 1.0076-0.41725 0.39197 0 0.72624 0.13908 1.0028 0.41725 0.27817 0.27659 0.41726 0.61166 0.41726 1.0052s-0.13909 0.72861-0.41726 1.0052c-0.27659 0.27659-0.61086 0.41489-1.0028 0.41489zm2e-3 -2.6197c-0.33191 0-0.61561 0.11696-0.8511 0.35087-0.23392 0.23392-0.35088 0.51683-0.35088 0.84874 0 0.33033 0.11696 0.61245 0.35088 0.84636 0.23549 0.23392 0.51919 0.35088 0.8511 0.35088 0.33033 0 0.61166-0.11696 0.84399-0.35088 0.23392-0.23391 0.35088-0.51603 0.35088-0.84636 0-0.33191-0.11696-0.61482-0.35088-0.84874-0.23233-0.23391-0.51366-0.35087-0.84399-0.35087zm0.68752 2.0886h-0.32716l-0.19678-0.43385c-0.0996-0.21811-0.20704-0.32717-0.32242-0.32717h-0.12328v0.76102h-0.27738v-1.8089h0.50972c0.21021 0 0.37221 0.0442 0.486 0.13276 0.11538 0.0885 0.17307 0.20863 0.17307 0.36036 0 0.12328-0.0403 0.22917-0.12091 0.31768-0.0806 0.0869-0.19282 0.14541-0.33665 0.17544v7e-3c0.0996 0.0221 0.19915 0.13356 0.29872 0.33428zm-0.96964-1.5742v0.58084h0.22285c0.24972 0 0.37458-0.0972 0.37458-0.29161 0-0.11221-0.034-0.18808-0.10194-0.22759-0.0664-0.0411-0.17229-0.0616-0.31768-0.0616z"/></g></g></svg>
