<svg width="900" height="900" viewBox="0 0 900 900" fill="none" xmlns="http://www.w3.org/2000/svg">
<path d="M305.163 710.82H608.37C676.369 709.057 740.992 680.805 788.464 632.085C835.935 583.365 862.5 518.033 862.5 450.011C862.5 381.99 835.935 316.657 788.464 267.939C740.992 219.22 676.369 190.968 608.37 189.204H305.163C270.344 188.3 235.697 194.378 203.264 207.079C170.831 219.779 141.27 238.846 116.323 263.153C91.3766 287.461 71.5496 316.518 58.0121 348.61C44.4746 380.704 37.5 415.181 37.5 450.011C37.5 484.841 44.4746 519.322 58.0121 551.415C71.5496 583.507 91.3766 612.562 116.323 636.87C141.27 661.177 170.831 680.246 203.264 692.944C235.697 705.645 270.344 711.724 305.163 710.82ZM601.522 618.997H311.835C268.006 617.584 226.445 599.179 195.941 567.675C165.437 536.171 148.382 494.04 148.382 450.187C148.382 406.335 165.437 364.203 195.941 332.7C226.445 301.196 268.006 282.791 311.835 281.377H601.522C624.15 280.648 646.691 284.474 667.811 292.629C688.931 300.784 708.195 313.101 724.459 328.849C740.719 344.596 753.652 363.453 762.484 384.296C771.315 405.142 775.868 427.549 775.868 450.187C775.868 472.826 771.315 495.232 762.484 516.079C753.652 536.921 740.719 555.78 724.459 571.526C708.195 587.272 688.931 599.591 667.811 607.747C646.691 615.9 624.15 619.729 601.522 618.997Z" fill="#C74634"/>
</svg>
